<?xml version="1.0" encoding="UTF-8"?>
<svg xmlns="http://www.w3.org/2000/svg" xmlns:xlink="http://www.w3.org/1999/xlink" viewBox="0 0 64 64" version="1.1" fill="#33ccff" width="100px" height="100px">
<g id="surface1" fill="#33ccff">
<path style=" " d="M 32.996094 6.015625 C 32.933594 6.015625 32.875 6.019531 32.8125 6.03125 C 32.75 6.042969 32.6875 6.0625 32.625 6.085938 C 32.566406 6.113281 32.511719 6.144531 32.453125 6.179688 C 32.425781 6.199219 32.390625 6.207031 32.359375 6.230469 L 3.359375 30.230469 C 2.933594 30.582031 2.878906 31.210938 3.226563 31.640625 C 3.429688 31.878906 3.714844 32 4 32 C 4.226563 32 4.453125 31.925781 4.640625 31.769531 L 8 28.988281 L 8 54 L 5 54 C 4.445313 54 4 54.445313 4 55 C 4 55.554688 4.445313 56 5 56 L 61 56 C 61.554688 56 62 55.554688 62 55 C 62 54.445313 61.554688 54 61 54 L 58 54 L 58 28.988281 L 61.359375 31.769531 C 61.546875 31.925781 61.773438 32 62 32 C 62.285156 32 62.570313 31.878906 62.769531 31.640625 C 63.121094 31.210938 63.0625 30.582031 62.636719 30.230469 L 33.636719 6.230469 C 33.609375 6.207031 33.574219 6.199219 33.542969 6.179688 C 33.484375 6.140625 33.429688 6.109375 33.363281 6.085938 C 33.304688 6.0625 33.25 6.046875 33.1875 6.03125 C 33.125 6.019531 33.058594 6.015625 32.996094 6.015625 Z M 33 8.296875 L 56 27.332031 L 56 44 L 10 44 L 10 27.332031 Z M 30 18 C 28.898438 18 28 18.898438 28 20 L 28 24 L 24 24 C 22.898438 24 22 24.898438 22 26 L 22 32 C 22 33.101563 22.898438 34 24 34 L 28 34 L 28 38 C 28 39.101563 28.898438 40 30 40 L 36 40 C 37.101563 40 38 39.101563 38 38 L 38 34 L 42 34 C 43.101563 34 44 33.101563 44 32 L 44 26 C 44 24.898438 43.101563 24 42 24 L 38 24 L 38 20 C 38 18.898438 37.101563 18 36 18 Z M 30 20 L 36 20 L 36 24 C 36 25.101563 36.898438 26 38 26 L 42 26 L 42 32 L 38 32 C 36.898438 32 36 32.898438 36 34 L 36 38 L 30 38 L 30 34 C 30 32.898438 29.101563 32 28 32 L 24 32 L 24 26 L 28 26 C 29.101563 26 30 25.101563 30 24 Z M 10 46 L 56 46 L 56 54 L 10 54 Z M 13 48 C 12.445313 48 12 48.445313 12 49 L 12 51 C 12 51.554688 12.445313 52 13 52 C 13.554688 52 14 51.554688 14 51 L 14 49 C 14 48.445313 13.554688 48 13 48 Z M 18 48 C 17.445313 48 17 48.445313 17 49 L 17 51 C 17 51.554688 17.445313 52 18 52 C 18.554688 52 19 51.554688 19 51 L 19 49 C 19 48.445313 18.554688 48 18 48 Z M 23 48 C 22.445313 48 22 48.445313 22 49 L 22 51 C 22 51.554688 22.445313 52 23 52 C 23.554688 52 24 51.554688 24 51 L 24 49 C 24 48.445313 23.554688 48 23 48 Z M 28 48 C 27.445313 48 27 48.445313 27 49 L 27 51 C 27 51.554688 27.445313 52 28 52 C 28.554688 52 29 51.554688 29 51 L 29 49 C 29 48.445313 28.554688 48 28 48 Z M 33 48 C 32.445313 48 32 48.445313 32 49 L 32 51 C 32 51.554688 32.445313 52 33 52 C 33.554688 52 34 51.554688 34 51 L 34 49 C 34 48.445313 33.554688 48 33 48 Z M 38 48 C 37.445313 48 37 48.445313 37 49 L 37 51 C 37 51.554688 37.445313 52 38 52 C 38.554688 52 39 51.554688 39 51 L 39 49 C 39 48.445313 38.554688 48 38 48 Z M 43 48 C 42.445313 48 42 48.445313 42 49 L 42 51 C 42 51.554688 42.445313 52 43 52 C 43.554688 52 44 51.554688 44 51 L 44 49 C 44 48.445313 43.554688 48 43 48 Z M 48 48 C 47.445313 48 47 48.445313 47 49 L 47 51 C 47 51.554688 47.445313 52 48 52 C 48.554688 52 49 51.554688 49 51 L 49 49 C 49 48.445313 48.554688 48 48 48 Z M 53 48 C 52.445313 48 52 48.445313 52 49 L 52 51 C 52 51.554688 52.445313 52 53 52 C 53.554688 52 54 51.554688 54 51 L 54 49 C 54 48.445313 53.554688 48 53 48 Z " fill="#33ccff"/>
</g>
</svg>
