<?xml version="1.0"?>
<svg xmlns="http://www.w3.org/2000/svg" viewBox="0 0 80 80" fill="#003366" width="240px" height="240px">
    <path style="line-height:normal;text-indent:0;text-align:start;text-decoration-line:none;text-decoration-style:solid;text-decoration-color:#000;text-transform:none;block-progression:tb;isolation:auto;mix-blend-mode:normal" d="M 40 9 C 39.627654 9 39.301465 9.1011007 38.974609 9.1933594 A 1.0001 1.0001 0 0 0 38.568359 9.2675781 L 38.501953 9.296875 C 38.454333 9.315926 38.407373 9.3362058 38.365234 9.3554688 L 10.611328 21.078125 A 1.0001 1.0001 0 0 0 10 22 L 10 27 A 1.0001 1.0001 0 0 0 11 28 L 14 28 L 14 30 C 14 31.093063 14.906937 32 16 32 L 16 58 L 14 58 A 1.0001 1.0001 0 0 0 13 59 L 13 63 L 10 63 A 1.0001 1.0001 0 0 0 9 64 L 9 69 A 1.0001 1.0001 0 0 0 10 70 L 70 70 A 1.0001 1.0001 0 0 0 71 69 L 71 64 A 1.0001 1.0001 0 0 0 70 63 L 67 63 L 67 59 A 1.0001 1.0001 0 0 0 66 58 L 64 58 L 64 32 C 65.093063 32 66 31.093063 66 30 L 66 28 L 69 28 A 1.0001 1.0001 0 0 0 70 27 L 70 22 A 1.0001 1.0001 0 0 0 69.388672 21.078125 L 41.634766 9.3554688 C 41.571108 9.3263679 41.52555 9.3083348 41.498047 9.296875 L 41.431641 9.2675781 A 1.0001 1.0001 0 0 0 41.025391 9.1914062 C 40.698634 9.0992041 40.372217 9 40 9 z M 40 11 C 40.231692 11 40.459099 11.0471 40.693359 11.134766 A 1.0001 1.0001 0 0 0 40.753906 11.154297 C 40.773896 11.162597 40.798594 11.171938 40.802734 11.173828 A 1.0001 1.0001 0 0 0 40.830078 11.185547 L 68 22.664062 L 68 26 L 46 26 L 40 26 L 36 26 L 34 26 L 14 26 L 12 26 L 12 22.664062 L 39.169922 11.185547 A 1.0001 1.0001 0 0 0 39.197266 11.173828 C 39.212606 11.166828 39.224318 11.16115 39.236328 11.15625 A 1.0001 1.0001 0 0 0 39.306641 11.134766 C 39.54091 11.047097 39.768308 11 40 11 z M 40 15 C 37.802706 15 36 16.802706 36 19 C 36 21.197294 37.802706 23 40 23 C 42.197294 23 44 21.197294 44 19 C 44 16.802706 42.197294 15 40 15 z M 40 17 C 41.116414 17 42 17.883586 42 19 C 42 20.116414 41.116414 21 40 21 C 38.883586 21 38 20.116414 38 19 C 38 17.883586 38.883586 17 40 17 z M 16 28 L 24 28 L 24 30 L 22 30 L 22 58 L 18 58 L 18 30 L 16 30 L 16 28 z M 26 28 L 34 28 L 34 30 L 32 30 L 32 58 L 28 58 L 28 30 L 26 30 L 26 28 z M 36 28 L 40 28 L 44 28 L 44 30 L 42 30 L 42 58 L 38 58 L 38 30 L 36 30 L 36 28 z M 46 28 L 54 28 L 54 30 L 52 30 L 52 58 L 48 58 L 48 30 L 46 30 L 46 28 z M 56 28 L 64 28 L 64 30 L 62 30 L 62 58 L 58 58 L 58 30 L 56 30 L 56 28 z M 25 31.71875 C 25.296235 31.893497 25.635756 32 26 32 L 26 58 L 24 58 L 24 32 C 24.364244 32 24.703765 31.893497 25 31.71875 z M 35 31.71875 C 35.296235 31.893497 35.635756 32 36 32 L 36 58 L 34 58 L 34 32 C 34.364244 32 34.703765 31.893497 35 31.71875 z M 45 31.71875 C 45.296235 31.893497 45.635756 32 46 32 L 46 58 L 44 58 L 44 32 C 44.364244 32 44.703765 31.893497 45 31.71875 z M 55 31.71875 C 55.296235 31.893497 55.635756 32 56 32 L 56 58 L 54 58 L 54 32 C 54.364244 32 54.703765 31.893497 55 31.71875 z M 15 60 L 16 60 L 24 60 L 26 60 L 34 60 L 65 60 L 65 64 A 1.0001 1.0001 0 0 0 66 65 L 69 65 L 69 68 L 11 68 L 11 65 L 14 65 A 1.0001 1.0001 0 0 0 15 64 L 15 60 z M 18 63 A 1 1 0 0 0 17 64 A 1 1 0 0 0 18 65 A 1 1 0 0 0 19 64 A 1 1 0 0 0 18 63 z M 22 63 A 1 1 0 0 0 21 64 A 1 1 0 0 0 22 65 A 1 1 0 0 0 23 64 A 1 1 0 0 0 22 63 z M 26 63 A 1 1 0 0 0 25 64 A 1 1 0 0 0 26 65 A 1 1 0 0 0 27 64 A 1 1 0 0 0 26 63 z M 30 63 A 1 1 0 0 0 29 64 A 1 1 0 0 0 30 65 A 1 1 0 0 0 31 64 A 1 1 0 0 0 30 63 z M 34 63 A 1 1 0 0 0 33 64 A 1 1 0 0 0 34 65 A 1 1 0 0 0 35 64 A 1 1 0 0 0 34 63 z M 38 63 A 1 1 0 0 0 37 64 A 1 1 0 0 0 38 65 A 1 1 0 0 0 39 64 A 1 1 0 0 0 38 63 z M 42 63 A 1 1 0 0 0 41 64 A 1 1 0 0 0 42 65 A 1 1 0 0 0 43 64 A 1 1 0 0 0 42 63 z M 46 63 A 1 1 0 0 0 45 64 A 1 1 0 0 0 46 65 A 1 1 0 0 0 47 64 A 1 1 0 0 0 46 63 z M 50 63 A 1 1 0 0 0 49 64 A 1 1 0 0 0 50 65 A 1 1 0 0 0 51 64 A 1 1 0 0 0 50 63 z M 54 63 A 1 1 0 0 0 53 64 A 1 1 0 0 0 54 65 A 1 1 0 0 0 55 64 A 1 1 0 0 0 54 63 z M 58 63 A 1 1 0 0 0 57 64 A 1 1 0 0 0 58 65 A 1 1 0 0 0 59 64 A 1 1 0 0 0 58 63 z M 62 63 A 1 1 0 0 0 61 64 A 1 1 0 0 0 62 65 A 1 1 0 0 0 63 64 A 1 1 0 0 0 62 63 z" fill="#003366"/>
</svg>
