<?xml version="1.0" encoding="UTF-8"?>
<svg xmlns="http://www.w3.org/2000/svg" xmlns:xlink="http://www.w3.org/1999/xlink" viewBox="0 0 64 64" version="1.1" fill="#ff9900" width="100px" height="100px">
<g id="surface1" fill="#ff9900">
<path style=" " d="M 15 4 C 14.449219 4 14 4.445313 14 5 L 14 12 L 12 12 L 12 9 C 12 8.445313 11.550781 8 11 8 C 10.449219 8 10 8.445313 10 9 L 10 12 L 8 12 C 6.898438 12 6 12.898438 6 14 L 6 26 L 3 26 C 1.347656 26 0 27.347656 0 29 L 0 31.398438 C 0 33.3125 0.59375 35.144531 1.722656 36.691406 L 7.195313 44.21875 C 6.703125 44.136719 6.21875 43.992188 5.765625 43.765625 L 4.449219 43.105469 C 3.402344 42.582031 2.277344 42.25 1.113281 42.117188 C 0.570313 42.0625 0.0703125 42.449219 0.0078125 43 C -0.0546875 43.546875 0.339844 44.042969 0.890625 44.105469 C 1.820313 44.210938 2.71875 44.476563 3.554688 44.894531 L 4.871094 45.550781 C 6.832031 46.53125 9.171875 46.53125 11.132813 45.550781 L 15.554688 43.34375 C 15.835938 43.199219 16.171875 43.199219 16.449219 43.34375 L 20.871094 45.550781 C 22.832031 46.53125 25.171875 46.53125 27.132813 45.550781 L 31.554688 43.34375 C 31.835938 43.199219 32.171875 43.199219 32.449219 43.34375 L 36.871094 45.550781 C 38.832031 46.53125 41.171875 46.53125 43.132813 45.550781 L 47.554688 43.34375 C 47.835938 43.199219 48.171875 43.199219 48.449219 43.34375 L 52.871094 45.550781 C 53.851563 46.042969 54.925781 46.285156 56 46.285156 C 57.078125 46.285156 58.152344 46.042969 59.132813 45.550781 L 60.449219 44.894531 C 61.285156 44.476563 62.183594 44.210938 63.113281 44.105469 C 63.664063 44.042969 64.054688 43.546875 63.996094 43 C 63.933594 42.449219 63.4375 42.0625 62.890625 42.117188 C 61.722656 42.25 60.601563 42.582031 59.550781 43.105469 L 58.234375 43.765625 C 56.835938 44.464844 55.164063 44.464844 53.765625 43.765625 L 52.941406 43.351563 L 63.894531 21.449219 C 64.050781 21.136719 64.035156 20.769531 63.851563 20.472656 C 63.667969 20.179688 63.347656 20 63 20 L 47.140625 20 C 45.464844 20 43.910156 20.832031 42.980469 22.226563 L 41.355469 24.664063 C 40.796875 25.5 39.867188 26 38.859375 26 L 20 26 L 20 22.5625 C 20 22.101563 20.3125 21.703125 20.757813 21.59375 L 21.730469 21.347656 C 23.066406 21.015625 24 19.816406 24 18.4375 L 24 14 C 24 12.898438 23.101563 12 22 12 L 16 12 L 16 5 C 16 4.445313 15.550781 4 15 4 Z M 8 14 L 22 14 L 22 18.4375 C 22 18.898438 21.6875 19.296875 21.242188 19.40625 L 20.269531 19.652344 C 18.933594 19.984375 18 21.183594 18 22.5625 L 18 26 L 8 26 Z M 11 16 C 10.449219 16 10 16.445313 10 17 C 10 17.554688 10.449219 18 11 18 L 19 18 C 19.550781 18 20 17.554688 20 17 C 20 16.445313 19.550781 16 19 16 Z M 47.140625 22 L 61.382813 22 L 55.96875 32.832031 C 55.882813 32.363281 55.492188 32 55 32 C 54.449219 32 54 32.445313 54 33 L 54 35 C 54 35.351563 54.191406 35.648438 54.46875 35.828125 L 51.152344 42.457031 L 49.34375 41.550781 C 48.503906 41.132813 47.5 41.132813 46.65625 41.550781 L 42.234375 43.765625 C 40.835938 44.464844 39.167969 44.464844 37.765625 43.765625 L 33.34375 41.550781 C 32.503906 41.132813 31.5 41.132813 30.65625 41.550781 L 26.234375 43.765625 C 24.835938 44.464844 23.167969 44.464844 21.765625 43.765625 L 17.34375 41.550781 C 16.503906 41.132813 15.5 41.132813 14.65625 41.550781 L 10.234375 43.765625 C 10.011719 43.875 9.777344 43.964844 9.539063 44.039063 L 3.339844 35.515625 C 2.460938 34.3125 2 32.886719 2 31.398438 L 2 29 C 2 28.449219 2.449219 28 3 28 L 38.859375 28 C 40.535156 28 42.089844 27.167969 43.019531 25.773438 L 44.644531 23.335938 C 45.203125 22.5 46.132813 22 47.140625 22 Z M 50 24 C 48.347656 24 47 25.347656 47 27 C 47 28.652344 48.347656 30 50 30 C 51.652344 30 53 28.652344 53 27 C 53 25.347656 51.652344 24 50 24 Z M 50 26 C 50.550781 26 51 26.449219 51 27 C 51 27.550781 50.550781 28 50 28 C 49.449219 28 49 27.550781 49 27 C 49 26.449219 49.449219 26 50 26 Z M 5 32 C 4.449219 32 4 32.445313 4 33 L 4 35 C 4 35.554688 4.449219 36 5 36 C 5.550781 36 6 35.554688 6 35 L 6 33 C 6 32.445313 5.550781 32 5 32 Z M 10 32 C 9.449219 32 9 32.445313 9 33 L 9 35 C 9 35.554688 9.449219 36 10 36 C 10.550781 36 11 35.554688 11 35 L 11 33 C 11 32.445313 10.550781 32 10 32 Z M 15 32 C 14.449219 32 14 32.445313 14 33 L 14 35 C 14 35.554688 14.449219 36 15 36 C 15.550781 36 16 35.554688 16 35 L 16 33 C 16 32.445313 15.550781 32 15 32 Z M 20 32 C 19.449219 32 19 32.445313 19 33 L 19 35 C 19 35.554688 19.449219 36 20 36 C 20.550781 36 21 35.554688 21 35 L 21 33 C 21 32.445313 20.550781 32 20 32 Z M 25 32 C 24.449219 32 24 32.445313 24 33 L 24 35 C 24 35.554688 24.449219 36 25 36 C 25.550781 36 26 35.554688 26 35 L 26 33 C 26 32.445313 25.550781 32 25 32 Z M 30 32 C 29.449219 32 29 32.445313 29 33 L 29 35 C 29 35.554688 29.449219 36 30 36 C 30.550781 36 31 35.554688 31 35 L 31 33 C 31 32.445313 30.550781 32 30 32 Z M 35 32 C 34.449219 32 34 32.445313 34 33 L 34 35 C 34 35.554688 34.449219 36 35 36 C 35.550781 36 36 35.554688 36 35 L 36 33 C 36 32.445313 35.550781 32 35 32 Z M 40 32 C 39.449219 32 39 32.445313 39 33 L 39 35 C 39 35.554688 39.449219 36 40 36 C 40.550781 36 41 35.554688 41 35 L 41 33 C 41 32.445313 40.550781 32 40 32 Z M 45 32 C 44.449219 32 44 32.445313 44 33 L 44 35 C 44 35.554688 44.449219 36 45 36 C 45.550781 36 46 35.554688 46 35 L 46 33 C 46 32.445313 45.550781 32 45 32 Z M 50 32 C 49.449219 32 49 32.445313 49 33 L 49 35 C 49 35.554688 49.449219 36 50 36 C 50.550781 36 51 35.554688 51 35 L 51 33 C 51 32.445313 50.550781 32 50 32 Z M 48 46.234375 C 47.539063 46.234375 47.078125 46.34375 46.65625 46.550781 C 46.164063 46.800781 45.964844 47.402344 46.210938 47.894531 C 46.457031 48.386719 47.054688 48.585938 47.550781 48.34375 C 47.832031 48.199219 48.167969 48.199219 48.445313 48.34375 L 52.867188 50.550781 C 53.847656 51.042969 54.921875 51.285156 56 51.285156 C 57.074219 51.285156 58.148438 51.042969 59.128906 50.550781 L 60.445313 49.894531 C 61.28125 49.476563 62.179688 49.210938 63.109375 49.105469 C 63.660156 49.042969 64.050781 48.546875 63.988281 48 C 63.929688 47.449219 63.4375 47.058594 62.890625 47.117188 C 61.722656 47.25 60.601563 47.582031 59.550781 48.105469 L 58.234375 48.765625 C 56.835938 49.464844 55.164063 49.464844 53.765625 48.765625 L 49.34375 46.550781 C 48.921875 46.34375 48.460938 46.234375 48 46.234375 Z M 16 46.238281 C 15.539063 46.238281 15.078125 46.34375 14.65625 46.550781 L 10.234375 48.765625 C 8.835938 49.464844 7.164063 49.464844 5.765625 48.765625 C 5.269531 48.519531 4.667969 48.71875 4.421875 49.210938 C 4.175781 49.703125 4.375 50.304688 4.867188 50.550781 C 6.828125 51.53125 9.171875 51.53125 11.128906 50.550781 L 15.550781 48.34375 C 15.832031 48.199219 16.167969 48.199219 16.449219 48.34375 L 20.871094 50.550781 C 21.847656 51.042969 22.925781 51.285156 24 51.285156 C 25.074219 51.285156 26.152344 51.042969 27.128906 50.550781 L 31.550781 48.34375 C 31.832031 48.199219 32.167969 48.199219 32.449219 48.34375 L 36.871094 50.550781 C 37.363281 50.800781 37.964844 50.597656 38.210938 50.105469 C 38.457031 49.613281 38.257813 49.011719 37.765625 48.765625 L 33.34375 46.550781 C 32.503906 46.132813 31.5 46.132813 30.65625 46.550781 L 26.234375 48.765625 C 24.835938 49.464844 23.164063 49.464844 21.765625 48.765625 L 17.34375 46.550781 C 16.921875 46.34375 16.460938 46.238281 16 46.238281 Z M 44.035156 47.953125 C 43.90625 47.960938 43.777344 47.996094 43.652344 48.058594 L 42.234375 48.765625 C 41.933594 48.914063 41.613281 49.035156 41.289063 49.121094 C 40.753906 49.265625 40.4375 49.8125 40.578125 50.34375 C 40.699219 50.792969 41.101563 51.089844 41.546875 51.089844 C 41.628906 51.089844 41.714844 51.078125 41.800781 51.058594 C 42.261719 50.933594 42.707031 50.765625 43.128906 50.550781 L 44.546875 49.84375 C 45.039063 49.597656 45.242188 48.996094 44.996094 48.503906 C 44.808594 48.132813 44.425781 47.929688 44.035156 47.953125 Z M 16 51.238281 C 15.539063 51.238281 15.078125 51.34375 14.65625 51.550781 L 10.234375 53.765625 C 8.835938 54.464844 7.164063 54.464844 5.765625 53.765625 L 4.445313 53.105469 C 3.398438 52.582031 2.277344 52.25 1.109375 52.117188 C 0.566406 52.0625 0.0703125 52.449219 0.0078125 53 C -0.0546875 53.550781 0.339844 54.042969 0.890625 54.105469 C 1.820313 54.210938 2.71875 54.476563 3.554688 54.894531 L 4.871094 55.550781 C 6.832031 56.53125 9.171875 56.53125 11.132813 55.550781 L 15.554688 53.34375 C 15.835938 53.199219 16.171875 53.199219 16.449219 53.34375 L 20.871094 55.550781 C 22.832031 56.53125 25.171875 56.53125 27.132813 55.550781 L 31.554688 53.34375 C 31.835938 53.199219 32.171875 53.199219 32.449219 53.34375 L 36.871094 55.550781 C 37.851563 56.042969 38.925781 56.285156 40 56.285156 C 41.078125 56.285156 42.152344 56.042969 43.128906 55.550781 L 47.550781 53.34375 C 47.832031 53.199219 48.167969 53.199219 48.449219 53.34375 L 52.871094 55.550781 C 54.828125 56.53125 57.171875 56.53125 59.128906 55.550781 C 59.625 55.304688 59.824219 54.703125 59.578125 54.210938 C 59.332031 53.71875 58.730469 53.519531 58.234375 53.765625 C 56.835938 54.464844 55.164063 54.464844 53.765625 53.765625 L 49.34375 51.550781 C 48.503906 51.132813 47.5 51.132813 46.65625 51.550781 L 42.234375 53.765625 C 40.835938 54.464844 39.164063 54.464844 37.765625 53.765625 L 33.34375 51.550781 C 32.503906 51.132813 31.5 51.132813 30.65625 51.550781 L 26.234375 53.765625 C 24.835938 54.464844 23.164063 54.464844 21.765625 53.765625 L 17.34375 51.550781 C 16.921875 51.34375 16.460938 51.238281 16 51.238281 Z " fill="#ff9900"/>
</g>
</svg>
