<?xml version="1.0" encoding="UTF-8"?>
<svg xmlns="http://www.w3.org/2000/svg" xmlns:xlink="http://www.w3.org/1999/xlink" viewBox="0 0 64 64" version="1.1" fill="#33ccff" width="240px" height="240px">
<g id="surface1" fill="#33ccff">
<path style=" " d="M 31.390625 8 C 23.839844 7.894531 16.699219 10.652344 11.164063 15.84375 C 5.339844 21.308594 2 29.019531 2 37 C 2 43.121094 3.890625 48.980469 7.460938 53.933594 C 7.476563 53.957031 7.5 53.976563 7.515625 54 L 7 54 C 5.347656 54 4 55.347656 4 57 C 4 58.652344 5.347656 60 7 60 L 55 60 C 56.652344 60 58 58.652344 58 57 C 58 55.347656 56.652344 54 55 54 L 54.484375 54 C 54.503906 53.980469 54.519531 53.960938 54.535156 53.9375 C 58.5 48.4375 60.417969 41.660156 59.921875 34.847656 C 58.886719 20.5 47.273438 8.980469 32.90625 8.0625 C 32.402344 8.027344 31.894531 8.007813 31.390625 8 Z M 30.980469 10 C 31.578125 10 32.179688 10.019531 32.78125 10.058594 C 46.152344 10.914063 56.960938 21.632813 57.925781 34.996094 C 58.394531 41.429688 56.65625 47.574219 52.910156 52.769531 C 52.355469 53.539063 51.449219 54 50.480469 54 L 46.484375 54 C 51.28125 49.648438 54 43.566406 54 37 C 54 36.449219 53.554688 36 53 36 C 52.445313 36 52 36.449219 52 37 C 52 43.667969 48.9375 49.792969 43.597656 53.800781 C 43.527344 53.859375 43.476563 53.929688 43.421875 54 L 18.679688 54 C 13.242188 50.050781 10 43.722656 10 37 C 10 36.449219 9.554688 36 9 36 C 8.445313 36 8 36.449219 8 37 C 8 43.503906 10.765625 49.667969 15.515625 54 L 11.519531 54 C 10.550781 54 9.640625 53.539063 9.085938 52.765625 C 5.757813 48.152344 4 42.699219 4 37 C 4 29.460938 7.027344 22.464844 12.53125 17.300781 C 17.59375 12.554688 24.085938 10 30.980469 10 Z M 31 15 C 30.445313 15 30 15.449219 30 16 L 30 18 C 30 18.550781 30.445313 19 31 19 C 31.554688 19 32 18.550781 32 18 L 32 16 C 32 15.449219 31.554688 15 31 15 Z M 25.574219 15.738281 C 25.445313 15.722656 25.308594 15.730469 25.175781 15.765625 C 24.644531 15.910156 24.324219 16.457031 24.46875 16.988281 L 24.984375 18.921875 C 25.105469 19.371094 25.507813 19.664063 25.953125 19.664063 C 26.039063 19.664063 26.125 19.65625 26.214844 19.628906 C 26.746094 19.488281 27.0625 18.9375 26.921875 18.40625 L 26.402344 16.472656 C 26.292969 16.070313 25.960938 15.792969 25.574219 15.738281 Z M 36.429688 15.742188 C 36.042969 15.796875 35.707031 16.074219 35.597656 16.472656 L 35.078125 18.40625 C 34.9375 18.9375 35.253906 19.488281 35.785156 19.628906 C 35.875 19.652344 35.960938 19.664063 36.046875 19.664063 C 36.488281 19.664063 36.894531 19.371094 37.015625 18.921875 L 37.53125 16.988281 C 37.675781 16.457031 37.355469 15.910156 36.824219 15.765625 C 36.691406 15.730469 36.558594 15.722656 36.429688 15.742188 Z M 20.125 17.886719 C 19.996094 17.902344 19.867188 17.945313 19.75 18.015625 C 19.269531 18.289063 19.109375 18.902344 19.386719 19.378906 L 20.386719 21.109375 C 20.570313 21.433594 20.90625 21.609375 21.25 21.609375 C 21.421875 21.609375 21.59375 21.570313 21.75 21.480469 C 22.230469 21.203125 22.390625 20.589844 22.113281 20.109375 L 21.113281 18.378906 C 20.90625 18.023438 20.511719 17.839844 20.125 17.886719 Z M 41.875 17.890625 C 41.484375 17.839844 41.089844 18.023438 40.886719 18.378906 L 39.886719 20.113281 C 39.609375 20.589844 39.769531 21.203125 40.25 21.480469 C 40.40625 21.570313 40.578125 21.613281 40.75 21.613281 C 41.09375 21.613281 41.429688 21.433594 41.613281 21.113281 L 42.613281 19.378906 C 42.890625 18.902344 42.726563 18.292969 42.25 18.015625 C 42.128906 17.945313 42 17.90625 41.875 17.890625 Z M 15.796875 21.296875 C 15.542969 21.296875 15.285156 21.394531 15.089844 21.589844 C 14.699219 21.980469 14.699219 22.613281 15.089844 23.003906 L 16.503906 24.417969 C 16.699219 24.613281 16.953125 24.710938 17.210938 24.710938 C 17.46875 24.710938 17.722656 24.613281 17.917969 24.417969 C 18.308594 24.027344 18.308594 23.394531 17.917969 23.003906 L 16.503906 21.589844 C 16.308594 21.394531 16.050781 21.296875 15.796875 21.296875 Z M 46.203125 21.296875 C 45.949219 21.296875 45.691406 21.394531 45.496094 21.589844 L 44.082031 23.003906 C 43.691406 23.394531 43.691406 24.027344 44.082031 24.417969 C 44.277344 24.613281 44.53125 24.710938 44.789063 24.710938 C 45.046875 24.710938 45.300781 24.613281 45.496094 24.417969 L 46.910156 23.003906 C 47.300781 22.613281 47.300781 21.980469 46.910156 21.589844 C 46.714844 21.394531 46.457031 21.296875 46.203125 21.296875 Z M 12.503906 25.757813 C 12.117188 25.710938 11.722656 25.890625 11.515625 26.25 C 11.238281 26.726563 11.402344 27.339844 11.878906 27.613281 L 13.609375 28.613281 C 13.769531 28.707031 13.941406 28.75 14.109375 28.75 C 14.457031 28.75 14.792969 28.570313 14.980469 28.25 C 15.253906 27.773438 15.089844 27.160156 14.609375 26.886719 L 12.878906 25.886719 C 12.761719 25.816406 12.632813 25.773438 12.503906 25.757813 Z M 49.492188 25.757813 C 49.363281 25.773438 49.234375 25.816406 49.117188 25.886719 L 47.386719 26.886719 C 46.910156 27.160156 46.746094 27.773438 47.019531 28.25 C 47.207031 28.570313 47.542969 28.75 47.890625 28.75 C 48.058594 28.75 48.230469 28.707031 48.386719 28.613281 L 50.117188 27.613281 C 50.597656 27.339844 50.761719 26.726563 50.484375 26.25 C 50.277344 25.890625 49.878906 25.710938 49.492188 25.757813 Z M 41 26 C 40.746094 26 40.488281 26.097656 40.292969 26.292969 L 32.285156 34.300781 C 31.894531 34.113281 31.460938 34 31 34 C 29.347656 34 28 35.347656 28 37 C 28 38.652344 29.347656 40 31 40 C 32.652344 40 34 38.652344 34 37 C 34 36.539063 33.886719 36.105469 33.699219 35.714844 L 41.707031 27.707031 C 42.097656 27.316406 42.097656 26.683594 41.707031 26.292969 C 41.511719 26.097656 41.253906 26 41 26 Z M 10.09375 30.941406 C 9.710938 30.996094 9.375 31.277344 9.265625 31.675781 C 9.125 32.207031 9.441406 32.757813 9.976563 32.902344 L 11.90625 33.421875 C 11.992188 33.441406 12.078125 33.453125 12.167969 33.453125 C 12.605469 33.453125 13.011719 33.160156 13.128906 32.714844 C 13.273438 32.179688 12.957031 31.628906 12.421875 31.484375 L 10.492188 30.96875 C 10.359375 30.933594 10.222656 30.925781 10.09375 30.941406 Z M 51.90625 30.941406 C 51.777344 30.925781 51.644531 30.933594 51.511719 30.96875 L 49.578125 31.484375 C 49.042969 31.628906 48.726563 32.179688 48.871094 32.714844 C 48.988281 33.160156 49.394531 33.453125 49.835938 33.453125 C 49.921875 33.453125 50.007813 33.445313 50.09375 33.421875 L 52.027344 32.902344 C 52.558594 32.757813 52.878906 32.210938 52.734375 31.675781 C 52.628906 31.273438 52.292969 30.996094 51.90625 30.941406 Z M 23 44 C 22.445313 44 22 44.449219 22 45 C 22 45.550781 22.445313 46 23 46 L 39 46 C 39.554688 46 40 45.550781 40 45 C 40 44.449219 39.554688 44 39 44 Z M 27 48 C 26.445313 48 26 48.449219 26 49 C 26 49.550781 26.445313 50 27 50 L 35 50 C 35.554688 50 36 49.550781 36 49 C 36 48.449219 35.554688 48 35 48 Z M 7 56 L 18.328125 56 C 18.339844 56 18.34375 56.003906 18.355469 56.003906 C 18.359375 56.003906 18.363281 56 18.367188 56 L 55 56 C 55.550781 56 56 56.449219 56 57 C 56 57.550781 55.550781 58 55 58 L 7 58 C 6.449219 58 6 57.550781 6 57 C 6 56.449219 6.449219 56 7 56 Z " fill="#33ccff"/>
</g>
</svg>
