<?xml version="1.0"?>
<svg xmlns="http://www.w3.org/2000/svg" viewBox="0 0 80 80" fill="#003366" width="240px" height="240px">
    <path style="line-height:normal;text-indent:0;text-align:start;text-decoration-line:none;text-decoration-style:solid;text-decoration-color:#000;text-transform:none;block-progression:tb;isolation:auto;mix-blend-mode:normal" d="M 7 16 L 7 22 L 5 22 L 5 62 L 35 62 L 35 60 L 7 60 L 7 24 L 73 24 L 73 60 L 45 60 L 45 62 L 75 62 L 75 22 L 73 22 L 73 16 L 7 16 z M 9 18 L 71 18 L 71 22 L 9 22 L 9 18 z M 16 26 A 1 1 0 0 0 15 27 A 1 1 0 0 0 16 28 A 1 1 0 0 0 17 27 A 1 1 0 0 0 16 26 z M 19 26 A 1 1 0 0 0 18 27 A 1 1 0 0 0 19 28 A 1 1 0 0 0 20 27 A 1 1 0 0 0 19 26 z M 22 26 A 1 1 0 0 0 21 27 A 1 1 0 0 0 22 28 A 1 1 0 0 0 23 27 A 1 1 0 0 0 22 26 z M 25 26 A 1 1 0 0 0 24 27 A 1 1 0 0 0 25 28 A 1 1 0 0 0 26 27 A 1 1 0 0 0 25 26 z M 28 26 A 1 1 0 0 0 27 27 A 1 1 0 0 0 28 28 A 1 1 0 0 0 29 27 A 1 1 0 0 0 28 26 z M 31 26 A 1 1 0 0 0 30 27 A 1 1 0 0 0 31 28 A 1 1 0 0 0 32 27 A 1 1 0 0 0 31 26 z M 34 26 A 1 1 0 0 0 33 27 A 1 1 0 0 0 34 28 A 1 1 0 0 0 35 27 A 1 1 0 0 0 34 26 z M 37 26 A 1 1 0 0 0 36 27 A 1 1 0 0 0 37 28 A 1 1 0 0 0 38 27 A 1 1 0 0 0 37 26 z M 40 26 A 1 1 0 0 0 39 27 A 1 1 0 0 0 40 28 A 1 1 0 0 0 41 27 A 1 1 0 0 0 40 26 z M 43 26 A 1 1 0 0 0 42 27 A 1 1 0 0 0 43 28 A 1 1 0 0 0 44 27 A 1 1 0 0 0 43 26 z M 46 26 A 1 1 0 0 0 45 27 A 1 1 0 0 0 46 28 A 1 1 0 0 0 47 27 A 1 1 0 0 0 46 26 z M 49 26 A 1 1 0 0 0 48 27 A 1 1 0 0 0 49 28 A 1 1 0 0 0 50 27 A 1 1 0 0 0 49 26 z M 52 26 A 1 1 0 0 0 51 27 A 1 1 0 0 0 52 28 A 1 1 0 0 0 53 27 A 1 1 0 0 0 52 26 z M 55 26 A 1 1 0 0 0 54 27 A 1 1 0 0 0 55 28 A 1 1 0 0 0 56 27 A 1 1 0 0 0 55 26 z M 58 26 A 1 1 0 0 0 57 27 A 1 1 0 0 0 58 28 A 1 1 0 0 0 59 27 A 1 1 0 0 0 58 26 z M 61 26 A 1 1 0 0 0 60 27 A 1 1 0 0 0 61 28 A 1 1 0 0 0 62 27 A 1 1 0 0 0 61 26 z M 64 26 A 1 1 0 0 0 63 27 A 1 1 0 0 0 64 28 A 1 1 0 0 0 65 27 A 1 1 0 0 0 64 26 z M 15 29 A 1 1 0 0 0 14 30 A 1 1 0 0 0 15 31 A 1 1 0 0 0 16 30 A 1 1 0 0 0 15 29 z M 65 29 A 1 1 0 0 0 64 30 A 1 1 0 0 0 65 31 A 1 1 0 0 0 66 30 A 1 1 0 0 0 65 29 z M 13 31 A 1 1 0 0 0 12 32 A 1 1 0 0 0 13 33 A 1 1 0 0 0 14 32 A 1 1 0 0 0 13 31 z M 40 31 C 33.936593 31 29 35.936593 29 42 C 29 45.589297 30.733915 48.778188 33.398438 50.78125 A 1.0007817 1.0007817 0 0 0 34.601562 49.181641 C 32.416086 47.538703 31 44.946703 31 42 C 31 37.017407 35.017407 33 40 33 C 44.982593 33 49 37.017407 49 42 C 49 44.946703 47.583914 47.538703 45.398438 49.181641 A 1.0007817 1.0007817 0 0 0 46.601562 50.78125 C 49.266085 48.778188 51 45.589297 51 42 C 51 35.936593 46.063407 31 40 31 z M 67 31 A 1 1 0 0 0 66 32 A 1 1 0 0 0 67 33 A 1 1 0 0 0 68 32 A 1 1 0 0 0 67 31 z M 10 32 A 1 1 0 0 0 9 33 A 1 1 0 0 0 10 34 A 1 1 0 0 0 11 33 A 1 1 0 0 0 10 32 z M 70 32 A 1 1 0 0 0 69 33 A 1 1 0 0 0 70 34 A 1 1 0 0 0 71 33 A 1 1 0 0 0 70 32 z M 10 35 A 1 1 0 0 0 9 36 A 1 1 0 0 0 10 37 A 1 1 0 0 0 11 36 A 1 1 0 0 0 10 35 z M 70 35 A 1 1 0 0 0 69 36 A 1 1 0 0 0 70 37 A 1 1 0 0 0 71 36 A 1 1 0 0 0 70 35 z M 10 38 A 1 1 0 0 0 9 39 A 1 1 0 0 0 10 40 A 1 1 0 0 0 11 39 A 1 1 0 0 0 10 38 z M 19 38 C 16.802706 38 15 39.802706 15 42 C 15 44.197294 16.802706 46 19 46 C 21.197294 46 23 44.197294 23 42 C 23 39.802706 21.197294 38 19 38 z M 60 38 C 57.802706 38 56 39.802706 56 42 C 56 44.197294 57.802706 46 60 46 C 62.197294 46 64 44.197294 64 42 C 64 39.802706 62.197294 38 60 38 z M 70 38 A 1 1 0 0 0 69 39 A 1 1 0 0 0 70 40 A 1 1 0 0 0 71 39 A 1 1 0 0 0 70 38 z M 19 40 C 20.116414 40 21 40.883586 21 42 C 21 43.116414 20.116414 44 19 44 C 17.883586 44 17 43.116414 17 42 C 17 40.883586 17.883586 40 19 40 z M 60 40 C 61.116414 40 62 40.883586 62 42 C 62 43.116414 61.116414 44 60 44 C 58.883586 44 58 43.116414 58 42 C 58 40.883586 58.883586 40 60 40 z M 10 41 A 1 1 0 0 0 9 42 A 1 1 0 0 0 10 43 A 1 1 0 0 0 11 42 A 1 1 0 0 0 10 41 z M 70 41 A 1 1 0 0 0 69 42 A 1 1 0 0 0 70 43 A 1 1 0 0 0 71 42 A 1 1 0 0 0 70 41 z M 39 42 L 39 73.585938 L 31.707031 66.292969 L 30.292969 67.707031 L 40 77.414062 L 49.707031 67.707031 L 48.292969 66.292969 L 41 73.585938 L 41 42 L 39 42 z M 10 44 A 1 1 0 0 0 9 45 A 1 1 0 0 0 10 46 A 1 1 0 0 0 11 45 A 1 1 0 0 0 10 44 z M 70 44 A 1 1 0 0 0 69 45 A 1 1 0 0 0 70 46 A 1 1 0 0 0 71 45 A 1 1 0 0 0 70 44 z M 10 47 A 1 1 0 0 0 9 48 A 1 1 0 0 0 10 49 A 1 1 0 0 0 11 48 A 1 1 0 0 0 10 47 z M 70 47 A 1 1 0 0 0 69 48 A 1 1 0 0 0 70 49 A 1 1 0 0 0 71 48 A 1 1 0 0 0 70 47 z M 10 50 A 1 1 0 0 0 9 51 A 1 1 0 0 0 10 52 A 1 1 0 0 0 11 51 A 1 1 0 0 0 10 50 z M 70 50 A 1 1 0 0 0 69 51 A 1 1 0 0 0 70 52 A 1 1 0 0 0 71 51 A 1 1 0 0 0 70 50 z M 13 51 A 1 1 0 0 0 12 52 A 1 1 0 0 0 13 53 A 1 1 0 0 0 14 52 A 1 1 0 0 0 13 51 z M 67 51 A 1 1 0 0 0 66 52 A 1 1 0 0 0 67 53 A 1 1 0 0 0 68 52 A 1 1 0 0 0 67 51 z M 15 53 A 1 1 0 0 0 14 54 A 1 1 0 0 0 15 55 A 1 1 0 0 0 16 54 A 1 1 0 0 0 15 53 z M 65 53 A 1 1 0 0 0 64 54 A 1 1 0 0 0 65 55 A 1 1 0 0 0 66 54 A 1 1 0 0 0 65 53 z M 16 56 A 1 1 0 0 0 15 57 A 1 1 0 0 0 16 58 A 1 1 0 0 0 17 57 A 1 1 0 0 0 16 56 z M 19 56 A 1 1 0 0 0 18 57 A 1 1 0 0 0 19 58 A 1 1 0 0 0 20 57 A 1 1 0 0 0 19 56 z M 22 56 A 1 1 0 0 0 21 57 A 1 1 0 0 0 22 58 A 1 1 0 0 0 23 57 A 1 1 0 0 0 22 56 z M 25 56 A 1 1 0 0 0 24 57 A 1 1 0 0 0 25 58 A 1 1 0 0 0 26 57 A 1 1 0 0 0 25 56 z M 28 56 A 1 1 0 0 0 27 57 A 1 1 0 0 0 28 58 A 1 1 0 0 0 29 57 A 1 1 0 0 0 28 56 z M 31 56 A 1 1 0 0 0 30 57 A 1 1 0 0 0 31 58 A 1 1 0 0 0 32 57 A 1 1 0 0 0 31 56 z M 34 56 A 1 1 0 0 0 33 57 A 1 1 0 0 0 34 58 A 1 1 0 0 0 35 57 A 1 1 0 0 0 34 56 z M 46 56 A 1 1 0 0 0 45 57 A 1 1 0 0 0 46 58 A 1 1 0 0 0 47 57 A 1 1 0 0 0 46 56 z M 49 56 A 1 1 0 0 0 48 57 A 1 1 0 0 0 49 58 A 1 1 0 0 0 50 57 A 1 1 0 0 0 49 56 z M 52 56 A 1 1 0 0 0 51 57 A 1 1 0 0 0 52 58 A 1 1 0 0 0 53 57 A 1 1 0 0 0 52 56 z M 55 56 A 1 1 0 0 0 54 57 A 1 1 0 0 0 55 58 A 1 1 0 0 0 56 57 A 1 1 0 0 0 55 56 z M 58 56 A 1 1 0 0 0 57 57 A 1 1 0 0 0 58 58 A 1 1 0 0 0 59 57 A 1 1 0 0 0 58 56 z M 61 56 A 1 1 0 0 0 60 57 A 1 1 0 0 0 61 58 A 1 1 0 0 0 62 57 A 1 1 0 0 0 61 56 z M 64 56 A 1 1 0 0 0 63 57 A 1 1 0 0 0 64 58 A 1 1 0 0 0 65 57 A 1 1 0 0 0 64 56 z" fill="#003366"/>
</svg>
