<?xml version="1.0" encoding="UTF-8"?>
<svg xmlns="http://www.w3.org/2000/svg" xmlns:xlink="http://www.w3.org/1999/xlink" viewBox="0 0 80 80" version="1.1" fill="#003366" width="240px" height="240px">
<g id="surface1" fill="#003366">
<path style=" " d="M 46 6.992188 C 45.808594 6.996094 45.621094 7.050781 45.464844 7.15625 C 44.933594 7.492188 43.199219 8.242188 41.058594 9.054688 C 38.914063 9.863281 36.296875 10.789063 33.714844 11.707031 C 31.132813 12.625 28.582031 13.527344 26.558594 14.300781 C 25.542969 14.691406 24.664063 15.042969 23.960938 15.355469 C 23.257813 15.664063 22.78125 15.875 22.355469 16.234375 C 21.675781 16.8125 20.976563 17.796875 20.035156 19.167969 C 19.097656 20.535156 18.015625 22.222656 16.992188 23.917969 C 15.96875 25.609375 14.996094 27.308594 14.273438 28.707031 C 13.910156 29.40625 13.613281 30.03125 13.390625 30.558594 C 13.171875 31.085938 13 31.425781 13 32 C 13 32.417969 13.078125 32.609375 13.183594 33.039063 C 13.285156 33.46875 13.4375 34.015625 13.625 34.660156 C 14.007813 35.957031 14.550781 37.640625 15.203125 39.480469 C 16.398438 42.828125 17.953125 46.671875 19.640625 49.644531 C 17.332031 52.117188 16 55.394531 16 59 C 16 66.695313 22.304688 73 30 73 C 37.695313 73 44 66.695313 44 59 C 44 54.984375 42.304688 51.332031 39.59375 48.804688 C 39.601563 48.800781 39.605469 48.792969 39.613281 48.789063 C 40.46875 48.125 43.128906 47.265625 46.1875 45.972656 C 49.242188 44.683594 52.785156 42.839844 55.730469 39.683594 C 55.730469 39.683594 55.730469 39.683594 55.734375 39.683594 C 58.691406 36.503906 59.972656 32.109375 61.296875 28.113281 C 62.625 24.117188 63.984375 20.582031 66.5625 18.828125 C 66.9375 18.578125 67.101563 18.109375 66.964844 17.683594 C 66.824219 17.253906 66.417969 16.972656 65.96875 16.992188 C 65.777344 17 65.59375 17.0625 65.4375 17.171875 C 62.136719 19.425781 60.738281 23.453125 59.402344 27.484375 C 58.0625 31.515625 56.785156 35.617188 54.265625 38.316406 C 51.601563 41.171875 48.34375 42.894531 45.40625 44.132813 C 42.472656 45.371094 39.941406 46.003906 38.390625 47.207031 C 35.503906 49.34375 32.34375 54 27.707031 54 C 26.050781 54 24.984375 53.535156 24.257813 52.832031 C 23.542969 52.144531 23.132813 51.15625 23.007813 49.957031 C 23.03125 47 25.445313 44.484375 28.0625 42.703125 C 30.691406 40.90625 33.34375 39.9375 33.34375 39.9375 C 33.53125 39.871094 33.691406 39.746094 33.8125 39.585938 C 33.8125 39.585938 35.371094 37.425781 37.140625 35.109375 C 38.027344 33.949219 38.96875 32.746094 39.785156 31.765625 C 40.605469 30.785156 41.359375 29.984375 41.609375 29.792969 C 41.980469 29.507813 42.101563 29.007813 41.90625 28.582031 C 41.714844 28.160156 41.25 27.925781 40.796875 28.019531 C 40.796875 28.019531 39.167969 28.359375 37.160156 28.355469 C 35.15625 28.351563 32.871094 27.945313 31.589844 26.769531 C 31.339844 26.539063 30.992188 26.453125 30.660156 26.539063 C 30.332031 26.625 30.070313 26.871094 29.964844 27.191406 C 29.964844 27.191406 28.601563 31.210938 24.792969 32.019531 C 24.523438 32.078125 24.289063 32.246094 24.144531 32.480469 C 24 32.714844 23.960938 33 24.035156 33.265625 C 24.035156 33.265625 24.746094 35.84375 25.003906 39.078125 C 25.015625 39.234375 25.0625 39.382813 25.140625 39.515625 C 25.140625 39.515625 25.738281 40.554688 25.945313 41.277344 C 25.984375 41.417969 26.054688 41.550781 26.148438 41.660156 C 23.960938 43.292969 21.835938 45.480469 21.199219 48.292969 C 19.691406 45.546875 18.214844 41.964844 17.089844 38.8125 C 16.445313 37.003906 15.914063 35.347656 15.546875 34.097656 C 15.359375 33.472656 15.21875 32.945313 15.125 32.5625 C 15.058594 32.292969 15.023438 32.046875 15.011719 31.980469 C 15.019531 32.03125 15.070313 31.726563 15.238281 31.328125 C 15.421875 30.882813 15.703125 30.296875 16.050781 29.625 C 16.742188 28.289063 17.699219 26.617188 18.703125 24.953125 C 19.710938 23.285156 20.777344 21.621094 21.6875 20.296875 C 22.59375 18.976563 23.457031 17.925781 23.644531 17.765625 C 23.652344 17.757813 24.128906 17.46875 24.773438 17.183594 C 25.417969 16.894531 26.273438 16.550781 27.269531 16.171875 C 29.257813 15.414063 31.800781 14.511719 34.382813 13.59375 C 36.964844 12.675781 39.589844 11.746094 41.765625 10.921875 C 43.9375 10.101563 45.597656 9.441406 46.535156 8.84375 C 46.921875 8.609375 47.097656 8.144531 46.972656 7.714844 C 46.847656 7.28125 46.449219 6.988281 46 6.992188 Z M 31.261719 28.9375 C 32.363281 29.621094 33.617188 29.972656 34.851563 30.164063 C 34.753906 30.441406 34.78125 30.746094 34.925781 31 C 35.203125 31.476563 35.816406 31.640625 36.292969 31.363281 C 36.652344 31.15625 36.847656 30.75 36.78125 30.339844 C 36.902344 30.339844 37.035156 30.355469 37.15625 30.355469 C 37.890625 30.359375 37.894531 30.289063 38.488281 30.234375 C 38.398438 30.339844 38.34375 30.371094 38.25 30.484375 C 37.5 31.386719 36.667969 32.457031 35.863281 33.5 C 35.832031 33.5 35.800781 33.5 35.769531 33.5 C 35.601563 33.503906 35.4375 33.550781 35.292969 33.632813 C 34.875 33.875 34.691406 34.378906 34.851563 34.832031 C 33.871094 36.132813 33.175781 37.070313 32.785156 37.601563 C 32.808594 37.394531 32.765625 37.183594 32.660156 37 C 32.476563 36.683594 32.136719 36.492188 31.769531 36.5 C 31.601563 36.503906 31.4375 36.550781 31.292969 36.632813 C 31.0625 36.765625 30.894531 36.984375 30.828125 37.242188 C 30.757813 37.496094 30.792969 37.769531 30.925781 38 C 31.089844 38.277344 31.371094 38.460938 31.6875 38.492188 C 30.921875 38.828125 29.589844 39.449219 27.792969 40.5625 C 27.484375 39.632813 27.070313 38.898438 26.964844 38.71875 C 26.710938 35.898438 26.257813 34.164063 26.105469 33.578125 C 29.375 32.429688 30.710938 30.179688 31.261719 28.9375 Z M 31.769531 29.5 C 31.601563 29.503906 31.4375 29.550781 31.292969 29.632813 C 31.0625 29.765625 30.894531 29.984375 30.828125 30.242188 C 30.757813 30.496094 30.792969 30.769531 30.925781 31 C 31.203125 31.476563 31.816406 31.640625 32.292969 31.363281 C 32.769531 31.089844 32.9375 30.476563 32.660156 30 C 32.476563 29.683594 32.136719 29.492188 31.769531 29.5 Z M 30.769531 33.5 C 30.601563 33.503906 30.4375 33.550781 30.292969 33.632813 C 30.0625 33.765625 29.894531 33.984375 29.828125 34.242188 C 29.757813 34.496094 29.792969 34.769531 29.925781 35 C 30.203125 35.476563 30.816406 35.640625 31.292969 35.363281 C 31.769531 35.089844 31.9375 34.476563 31.660156 34 C 31.476563 33.683594 31.136719 33.492188 30.769531 33.5 Z M 38.113281 50.152344 C 40.488281 52.308594 42 55.480469 42 59 C 42 65.605469 36.605469 71 30 71 C 23.394531 71 18 65.605469 18 59 C 18 55.886719 19.125 53.125 21.082031 51.027344 C 21.101563 51.023438 21.125 51.019531 21.144531 51.015625 C 21.335938 51.917969 21.6875 52.765625 22.214844 53.5 C 21.851563 53.5 21.519531 53.6875 21.339844 54 C 21.0625 54.476563 21.226563 55.089844 21.703125 55.363281 C 21.933594 55.5 22.207031 55.535156 22.460938 55.464844 C 22.71875 55.398438 22.9375 55.230469 23.070313 55 C 23.148438 54.867188 23.195313 54.714844 23.203125 54.5625 C 24.320313 55.476563 25.847656 56 27.707031 56 C 32.488281 56 35.839844 52.402344 38.113281 50.152344 Z M 37.769531 53.5 C 37.601563 53.503906 37.4375 53.546875 37.292969 53.632813 C 36.816406 53.910156 36.652344 54.519531 36.925781 55 C 37.203125 55.476563 37.816406 55.640625 38.292969 55.363281 C 38.769531 55.085938 38.933594 54.476563 38.65625 54 C 38.476563 53.679688 38.136719 53.488281 37.769531 53.5 Z M 21 58 C 20.449219 58 20 58.449219 20 59 C 20 59.550781 20.449219 60 21 60 C 21.550781 60 22 59.550781 22 59 C 22 58.449219 21.550781 58 21 58 Z M 39 58 C 38.449219 58 38 58.449219 38 59 C 38 59.550781 38.449219 60 39 60 C 39.550781 60 40 59.550781 40 59 C 40 58.449219 39.550781 58 39 58 Z M 22.183594 62.5 C 22.015625 62.503906 21.851563 62.546875 21.703125 62.632813 C 21.226563 62.910156 21.0625 63.519531 21.339844 64 C 21.617188 64.476563 22.226563 64.640625 22.703125 64.363281 C 23.183594 64.085938 23.347656 63.476563 23.074219 63 C 22.890625 62.679688 22.546875 62.488281 22.183594 62.5 Z M 37.746094 62.5 C 37.402344 62.519531 37.09375 62.707031 36.925781 63 C 36.648438 63.480469 36.816406 64.089844 37.292969 64.367188 C 37.769531 64.644531 38.382813 64.480469 38.65625 64 C 38.792969 63.773438 38.828125 63.5 38.757813 63.242188 C 38.691406 62.984375 38.523438 62.765625 38.292969 62.636719 C 38.125 62.539063 37.9375 62.492188 37.746094 62.5 Z M 34.472656 65.792969 C 34.308594 65.796875 34.144531 65.84375 34 65.925781 C 33.769531 66.058594 33.601563 66.277344 33.53125 66.535156 C 33.464844 66.789063 33.5 67.0625 33.632813 67.292969 C 33.910156 67.769531 34.519531 67.933594 35 67.65625 C 35.476563 67.382813 35.640625 66.769531 35.363281 66.292969 C 35.183594 65.976563 34.839844 65.785156 34.472656 65.792969 Z M 25.453125 65.796875 C 25.113281 65.8125 24.804688 66 24.632813 66.296875 C 24.355469 66.773438 24.519531 67.382813 25 67.660156 C 25.226563 67.792969 25.5 67.828125 25.757813 67.761719 C 26.015625 67.691406 26.234375 67.523438 26.363281 67.296875 C 26.640625 66.816406 26.476563 66.207031 26 65.929688 C 25.832031 65.832031 25.640625 65.789063 25.453125 65.796875 Z M 30 67 C 29.449219 67 29 67.449219 29 68 C 29 68.550781 29.449219 69 30 69 C 30.550781 69 31 68.550781 31 68 C 31 67.449219 30.550781 67 30 67 Z " fill="#003366"/>
</g>
</svg>
