<?xml version="1.0" encoding="UTF-8"?>
<svg xmlns="http://www.w3.org/2000/svg" xmlns:xlink="http://www.w3.org/1999/xlink" viewBox="0 0 64 64" version="1.1" fill="#003366" width="100px" height="100px">
<g id="surface1" fill="#003366">
<path style=" " d="M 32 4 C 24.28125 4 18 10.28125 18 18 L 18 20 C 18 23.398438 19.292969 27.570313 21.503906 31.042969 L 8.253906 37.378906 C 4.453125 39.195313 2 43.089844 2 47.300781 L 2 55 C 2 56.652344 3.347656 58 5 58 L 59 58 C 60.652344 58 62 56.652344 62 55 L 62 47.300781 C 62 43.089844 59.546875 39.195313 55.746094 37.378906 L 42.496094 31.042969 C 44.707031 27.570313 46 23.398438 46 20 L 46 18 C 46 10.28125 39.71875 4 32 4 Z M 32 6 C 38.617188 6 44 11.382813 44 18 L 44 20 C 44 27.054688 38.351563 36 32 36 C 25.648438 36 20 27.054688 20 20 L 20 18 C 20 11.382813 25.382813 6 32 6 Z M 22.679688 32.695313 C 25.101563 35.785156 28.320313 38 32 38 C 35.679688 38 38.898438 35.789063 41.320313 32.699219 L 54.882813 39.183594 C 57.992188 40.667969 60 43.855469 60 47.300781 L 60 55 C 60 55.550781 59.550781 56 59 56 L 5 56 C 4.449219 56 4 55.550781 4 55 L 4 47.300781 C 4 43.855469 6.007813 40.667969 9.117188 39.183594 Z M 27 44 C 26.449219 44 26 44.449219 26 45 C 26 45.550781 26.449219 46 27 46 L 37 46 C 37.550781 46 38 45.550781 38 45 C 38 44.449219 37.550781 44 37 44 Z M 7 50 C 6.449219 50 6 50.449219 6 51 L 6 53 C 6 53.550781 6.449219 54 7 54 C 7.550781 54 8 53.550781 8 53 L 8 51 C 8 50.449219 7.550781 50 7 50 Z M 12 50 C 11.449219 50 11 50.449219 11 51 L 11 53 C 11 53.550781 11.449219 54 12 54 C 12.550781 54 13 53.550781 13 53 L 13 51 C 13 50.449219 12.550781 50 12 50 Z M 17 50 C 16.449219 50 16 50.449219 16 51 L 16 53 C 16 53.550781 16.449219 54 17 54 C 17.550781 54 18 53.550781 18 53 L 18 51 C 18 50.449219 17.550781 50 17 50 Z M 22 50 C 21.449219 50 21 50.449219 21 51 L 21 53 C 21 53.550781 21.449219 54 22 54 C 22.550781 54 23 53.550781 23 53 L 23 51 C 23 50.449219 22.550781 50 22 50 Z M 27 50 C 26.449219 50 26 50.449219 26 51 L 26 53 C 26 53.550781 26.449219 54 27 54 C 27.550781 54 28 53.550781 28 53 L 28 51 C 28 50.449219 27.550781 50 27 50 Z M 32 50 C 31.449219 50 31 50.449219 31 51 L 31 53 C 31 53.550781 31.449219 54 32 54 C 32.550781 54 33 53.550781 33 53 L 33 51 C 33 50.449219 32.550781 50 32 50 Z M 37 50 C 36.449219 50 36 50.449219 36 51 L 36 53 C 36 53.550781 36.449219 54 37 54 C 37.550781 54 38 53.550781 38 53 L 38 51 C 38 50.449219 37.550781 50 37 50 Z M 42 50 C 41.449219 50 41 50.449219 41 51 L 41 53 C 41 53.550781 41.449219 54 42 54 C 42.550781 54 43 53.550781 43 53 L 43 51 C 43 50.449219 42.550781 50 42 50 Z M 47 50 C 46.449219 50 46 50.449219 46 51 L 46 53 C 46 53.550781 46.449219 54 47 54 C 47.550781 54 48 53.550781 48 53 L 48 51 C 48 50.449219 47.550781 50 47 50 Z M 52 50 C 51.449219 50 51 50.449219 51 51 L 51 53 C 51 53.550781 51.449219 54 52 54 C 52.550781 54 53 53.550781 53 53 L 53 51 C 53 50.449219 52.550781 50 52 50 Z M 57 50 C 56.449219 50 56 50.449219 56 51 L 56 53 C 56 53.550781 56.449219 54 57 54 C 57.550781 54 58 53.550781 58 53 L 58 51 C 58 50.449219 57.550781 50 57 50 Z " fill="#003366"/>
</g>
</svg>
