<?xml version="1.0" encoding="UTF-8"?>
<svg xmlns="http://www.w3.org/2000/svg" xmlns:xlink="http://www.w3.org/1999/xlink" viewBox="0 0 80 80" version="1.1" fill="#000033" width="240px" height="240px">
<g id="surface1" fill="#000033">
<path style=" " d="M 40 8.242188 L 39.175781 9.429688 C 39.175781 9.429688 38.65625 10.183594 38.136719 11.082031 C 37.875 11.535156 37.609375 12.023438 37.394531 12.503906 C 37.183594 12.988281 37 13.421875 37 14 C 37 14.992188 37.5 15.875 38.25 16.421875 C 37.355469 16.863281 36.652344 17.628906 36.28125 18.5625 C 34.273438 17.675781 29.972656 16 26 16 C 20.601563 16 14.550781 19.105469 14.550781 19.105469 C 14.058594 19.351563 13.859375 19.953125 14.105469 20.449219 C 14.351563 20.941406 14.953125 21.140625 15.449219 20.894531 C 15.449219 20.894531 21.398438 18 26 18 C 30.042969 18 34.898438 20.136719 36.066406 20.675781 C 36.242188 21.6875 36.804688 22.5625 37.589844 23.164063 C 37.226563 23.628906 37 24.199219 37 24.828125 L 37 61 L 36 61 C 33.605469 61 31.683594 62.742188 31.203125 65 L 30 65 C 27.25 65 25 67.25 25 70 L 25 71 L 55 71 L 55 70 C 55 67.25 52.75 65 50 65 L 48.796875 65 C 48.316406 62.742188 46.394531 61 44 61 L 43 61 L 43 24.828125 C 43 24.199219 42.773438 23.628906 42.410156 23.164063 C 43.195313 22.5625 43.757813 21.683594 43.933594 20.675781 C 45.101563 20.136719 49.957031 18 54 18 C 58.601563 18 64.550781 20.894531 64.550781 20.894531 C 65.046875 21.140625 65.648438 20.941406 65.894531 20.449219 C 66.140625 19.953125 65.941406 19.351563 65.449219 19.105469 C 65.449219 19.105469 59.398438 16 54 16 C 50.027344 16 45.726563 17.671875 43.71875 18.5625 C 43.351563 17.625 42.644531 16.863281 41.75 16.421875 C 42.5 15.875 43 14.992188 43 14 C 43 13.421875 42.816406 12.988281 42.605469 12.503906 C 42.390625 12.023438 42.125 11.535156 41.863281 11.082031 C 41.34375 10.183594 40.824219 9.429688 40.824219 9.429688 Z M 40 11.875 C 40.066406 11.984375 40.066406 11.972656 40.136719 12.089844 C 40.375 12.5 40.609375 12.9375 40.769531 13.3125 C 40.933594 13.683594 41 14.027344 41 14 C 41 14.566406 40.566406 15 40 15 C 39.433594 15 39 14.566406 39 14 C 39 14.027344 39.066406 13.683594 39.230469 13.3125 C 39.390625 12.9375 39.625 12.5 39.863281 12.089844 C 39.933594 11.972656 39.933594 11.984375 40 11.875 Z M 40 18 C 41.117188 18 42 18.882813 42 20 C 42 21.117188 41.117188 22 40 22 C 38.882813 22 38 21.117188 38 20 C 38 18.882813 38.882813 18 40 18 Z M 13.664063 22.253906 L 12.8125 22.542969 L 12.613281 22.832031 L 12.574219 22.921875 L 12.609375 23.816406 L 13.34375 24.328125 L 14.191406 24.042969 L 14.390625 23.75 L 14.4375 23.660156 L 14.402344 22.765625 Z M 63.664063 22.253906 L 62.8125 22.542969 L 62.613281 22.832031 L 62.574219 22.921875 L 62.609375 23.816406 L 63.34375 24.328125 L 64.191406 24.042969 L 64.390625 23.75 L 64.4375 23.660156 L 64.402344 22.765625 Z M 16.6875 22.269531 L 15.820313 22.488281 L 15.480469 23.316406 L 15.5625 23.660156 L 15.609375 23.75 L 16.300781 24.3125 L 17.171875 24.09375 L 17.515625 23.265625 L 17.425781 22.921875 L 17.386719 22.832031 Z M 66.6875 22.269531 L 65.820313 22.488281 L 65.480469 23.316406 L 65.5625 23.660156 L 65.609375 23.75 L 66.300781 24.3125 L 67.171875 24.09375 L 67.515625 23.265625 L 67.425781 22.921875 L 67.386719 22.832031 Z M 40 24 C 40.609375 24 41 24.410156 41 24.828125 L 41 63 L 44 63 C 45.667969 63 47 64.332031 47 66 L 47 67 L 50 67 C 51.277344 67 52.152344 67.886719 52.589844 69 L 27.410156 69 C 27.847656 67.886719 28.722656 67 30 67 L 33 67 L 33 66 C 33 64.332031 34.332031 63 36 63 L 39 63 L 39 24.828125 C 39 24.410156 39.390625 24 40 24 Z M 11.96875 25.988281 L 11.117188 26.277344 L 10.917969 26.5625 L 10.875 26.65625 L 10.910156 27.550781 L 11.648438 28.0625 L 12.496094 27.773438 L 12.699219 27.484375 L 12.738281 27.390625 L 12.703125 26.5 Z M 61.96875 25.988281 L 61.117188 26.277344 L 60.917969 26.5625 L 60.875 26.65625 L 60.910156 27.550781 L 61.648438 28.0625 L 62.496094 27.773438 L 62.699219 27.484375 L 62.738281 27.390625 L 62.703125 26.5 Z M 18.386719 26 L 17.515625 26.222656 L 17.175781 27.050781 L 17.261719 27.390625 L 17.300781 27.484375 L 18 28.046875 L 18.871094 27.828125 L 19.210938 27 L 19.125 26.65625 L 19.082031 26.5625 Z M 68.386719 26 L 67.515625 26.222656 L 67.175781 27.050781 L 67.261719 27.390625 L 67.300781 27.484375 L 68 28.046875 L 68.871094 27.828125 L 69.210938 27 L 69.125 26.65625 L 69.082031 26.5625 Z M 10.269531 29.71875 L 9.421875 30.007813 L 9.21875 30.296875 L 9.179688 30.390625 L 9.210938 31.28125 L 9.953125 31.792969 L 10.800781 31.503906 L 11 31.21875 L 11.042969 31.125 L 11.007813 30.230469 Z M 60.269531 29.71875 L 59.421875 30.007813 L 59.21875 30.296875 L 59.179688 30.390625 L 59.214844 31.28125 L 59.953125 31.792969 L 60.800781 31.503906 L 61 31.21875 L 61.042969 31.125 L 61.007813 30.230469 Z M 20.082031 29.734375 L 19.214844 29.953125 L 18.871094 30.78125 L 18.957031 31.125 L 19 31.21875 L 19.699219 31.78125 L 20.5625 31.558594 L 20.90625 30.730469 L 20.820313 30.390625 L 20.78125 30.296875 Z M 70.082031 29.734375 L 69.214844 29.953125 L 68.871094 30.78125 L 68.957031 31.125 L 69 31.21875 L 69.699219 31.78125 L 70.5625 31.558594 L 70.90625 30.730469 L 70.820313 30.390625 L 70.78125 30.296875 Z M 8.574219 33.453125 L 7.726563 33.738281 L 7.523438 34.03125 L 7.484375 34.121094 L 7.515625 35.015625 L 8.253906 35.527344 L 9.101563 35.238281 L 9.304688 34.949219 L 9.34375 34.859375 L 9.3125 33.964844 Z M 58.574219 33.453125 L 57.722656 33.738281 L 57.523438 34.03125 L 57.484375 34.121094 L 57.515625 35.015625 L 58.253906 35.527344 L 59.105469 35.238281 L 59.300781 34.949219 L 59.34375 34.859375 L 59.3125 33.964844 Z M 21.78125 33.46875 L 20.910156 33.6875 L 20.566406 34.515625 L 20.65625 34.859375 L 20.699219 34.949219 L 21.390625 35.511719 L 22.261719 35.292969 L 22.605469 34.464844 L 22.515625 34.121094 L 22.476563 34.03125 Z M 71.78125 33.46875 L 70.910156 33.6875 L 70.566406 34.515625 L 70.65625 34.859375 L 70.699219 34.949219 L 71.390625 35.511719 L 72.261719 35.292969 L 72.605469 34.464844 L 72.515625 34.121094 L 72.476563 34.03125 Z M 6.875 37.1875 L 6.027344 37.472656 L 5.828125 37.761719 L 5.789063 37.855469 L 5.820313 38.75 L 6.558594 39.257813 L 7.40625 38.96875 L 7.609375 38.683594 L 7.648438 38.589844 L 7.617188 37.695313 Z M 56.875 37.1875 L 56.027344 37.472656 L 55.828125 37.761719 L 55.785156 37.855469 L 55.820313 38.75 L 56.558594 39.257813 L 57.40625 38.96875 L 57.609375 38.683594 L 57.648438 38.589844 L 57.613281 37.695313 Z M 23.472656 37.199219 L 22.609375 37.421875 L 22.265625 38.25 L 22.351563 38.589844 L 22.390625 38.683594 L 23.089844 39.246094 L 23.957031 39.023438 L 24.300781 38.195313 L 24.214844 37.855469 L 24.171875 37.761719 Z M 73.472656 37.199219 L 72.609375 37.421875 L 72.265625 38.25 L 72.351563 38.589844 L 72.390625 38.683594 L 73.089844 39.246094 L 73.957031 39.023438 L 74.300781 38.195313 L 74.214844 37.855469 L 74.171875 37.761719 Z M 5.179688 40.917969 L 4.332031 41.203125 L 4.132813 41.496094 L 4.089844 41.585938 L 4.125 42.484375 L 4.859375 42.988281 L 5.710938 42.703125 L 5.910156 42.414063 L 5.953125 42.324219 L 5.917969 41.425781 Z M 55.179688 40.917969 L 54.332031 41.203125 L 54.128906 41.496094 L 54.089844 41.585938 L 54.125 42.484375 L 54.859375 42.988281 L 55.710938 42.703125 L 55.910156 42.414063 L 55.953125 42.324219 L 55.917969 41.425781 Z M 25.171875 40.933594 L 24.304688 41.152344 L 23.960938 41.980469 L 24.046875 42.324219 L 24.089844 42.414063 L 24.785156 42.976563 L 25.65625 42.753906 L 26 41.925781 L 25.910156 41.585938 L 25.871094 41.496094 Z M 75.171875 40.933594 L 74.304688 41.152344 L 73.960938 41.980469 L 74.046875 42.324219 L 74.089844 42.414063 L 74.785156 42.976563 L 75.65625 42.753906 L 76 41.925781 L 75.910156 41.585938 L 75.871094 41.496094 Z M 4 44 L 4 46 L 3 45 C 3 49.957031 7.042969 54 12 54 L 18 54 C 22.957031 54 27 49.957031 27 45 L 26 46 L 26 44 Z M 54 44 L 54 46 L 53 45 C 53 49.957031 57.042969 54 62 54 L 68 54 C 72.957031 54 77 49.957031 77 45 L 76 46 L 76 44 Z M 5.203125 46 L 24.796875 46 C 24.296875 49.378906 21.523438 52 18 52 L 12 52 C 8.476563 52 5.703125 49.378906 5.203125 46 Z M 55.203125 46 L 74.796875 46 C 74.296875 49.378906 71.523438 52 68 52 L 62 52 C 58.476563 52 55.703125 49.378906 55.203125 46 Z M 36 65 C 35.449219 65 35 65.449219 35 66 C 35 66.550781 35.449219 67 36 67 C 36.550781 67 37 66.550781 37 66 C 37 65.449219 36.550781 65 36 65 Z M 40 65 C 39.449219 65 39 65.449219 39 66 C 39 66.550781 39.449219 67 40 67 C 40.550781 67 41 66.550781 41 66 C 41 65.449219 40.550781 65 40 65 Z M 44 65 C 43.449219 65 43 65.449219 43 66 C 43 66.550781 43.449219 67 44 67 C 44.550781 67 45 66.550781 45 66 C 45 65.449219 44.550781 65 44 65 Z " fill="#000033"/>
</g>
</svg>
