<?xml version="1.0" encoding="UTF-8"?>
<svg xmlns="http://www.w3.org/2000/svg" xmlns:xlink="http://www.w3.org/1999/xlink" viewBox="0 0 64 64" version="1.1" fill="#003366" width="100px" height="100px">
<g id="surface1" fill="#003366">
<path style=" " d="M 29 0.0585938 C 28.445313 0.0585938 28 0.503906 28 1.054688 L 28 8 L 13 8 C 11.347656 8 10 9.347656 10 11 C 10 12.300781 10.839844 13.402344 12 13.816406 L 12 60 L 9 60 C 8.445313 60 8 60.449219 8 61 C 8 61.550781 8.445313 62 9 62 L 55 62 C 55.554688 62 56 61.550781 56 61 C 56 60.449219 55.554688 60 55 60 L 52 60 L 52 13.816406 C 53.160156 13.402344 54 12.300781 54 11 C 54 9.347656 52.652344 8 51 8 L 34 8 L 34 4.054688 C 34 3.503906 33.554688 3.054688 33 3.054688 C 32.445313 3.054688 32 3.503906 32 4.054688 L 32 8 L 30 8 L 30 1.054688 C 30 0.503906 29.554688 0.0585938 29 0.0585938 Z M 13 10 L 51 10 C 51.550781 10 52 10.449219 52 11 C 52 11.550781 51.550781 12 51 12 L 13 12 C 12.449219 12 12 11.550781 12 11 C 12 10.449219 12.449219 10 13 10 Z M 14 14 L 50 14 L 50 54 L 36 54 L 36 53.949219 C 36 52.847656 35.101563 51.949219 34 51.949219 L 30 51.949219 C 28.898438 51.949219 28 52.847656 28 53.949219 L 28 54 L 14 54 L 14 18 L 40 18 C 40.554688 18 41 17.550781 41 17 C 41 16.449219 40.554688 16 40 16 L 14 16 Z M 43 16 C 42.445313 16 42 16.449219 42 17 C 42 17.550781 42.445313 18 43 18 L 47 18 C 47.554688 18 48 17.550781 48 17 C 48 16.449219 47.554688 16 47 16 Z M 19 20 C 18.445313 20 18 20.449219 18 21 C 18 21.550781 18.445313 22 19 22 L 21 22 C 21.554688 22 22 21.550781 22 21 C 22 20.449219 21.554688 20 21 20 Z M 27 20 C 26.445313 20 26 20.449219 26 21 C 26 21.550781 26.445313 22 27 22 L 29 22 C 29.554688 22 30 21.550781 30 21 C 30 20.449219 29.554688 20 29 20 Z M 35 20 C 34.445313 20 34 20.449219 34 21 C 34 21.550781 34.445313 22 35 22 L 37 22 C 37.554688 22 38 21.550781 38 21 C 38 20.449219 37.554688 20 37 20 Z M 43 20 C 42.445313 20 42 20.449219 42 21 C 42 21.550781 42.445313 22 43 22 L 45 22 C 45.554688 22 46 21.550781 46 21 C 46 20.449219 45.554688 20 45 20 Z M 19 24 C 18.445313 24 18 24.449219 18 25 C 18 25.550781 18.445313 26 19 26 L 21 26 C 21.554688 26 22 25.550781 22 25 C 22 24.449219 21.554688 24 21 24 Z M 27 24 C 26.445313 24 26 24.449219 26 25 C 26 25.550781 26.445313 26 27 26 L 29 26 C 29.554688 26 30 25.550781 30 25 C 30 24.449219 29.554688 24 29 24 Z M 35 24 C 34.445313 24 34 24.449219 34 25 C 34 25.550781 34.445313 26 35 26 L 37 26 C 37.554688 26 38 25.550781 38 25 C 38 24.449219 37.554688 24 37 24 Z M 43 24 C 42.445313 24 42 24.449219 42 25 C 42 25.550781 42.445313 26 43 26 L 45 26 C 45.554688 26 46 25.550781 46 25 C 46 24.449219 45.554688 24 45 24 Z M 19 28 C 18.445313 28 18 28.449219 18 29 C 18 29.550781 18.445313 30 19 30 L 21 30 C 21.554688 30 22 29.550781 22 29 C 22 28.449219 21.554688 28 21 28 Z M 27 28 C 26.445313 28 26 28.449219 26 29 C 26 29.550781 26.445313 30 27 30 L 29 30 C 29.554688 30 30 29.550781 30 29 C 30 28.449219 29.554688 28 29 28 Z M 35 28 C 34.445313 28 34 28.449219 34 29 C 34 29.550781 34.445313 30 35 30 L 37 30 C 37.554688 30 38 29.550781 38 29 C 38 28.449219 37.554688 28 37 28 Z M 43 28 C 42.445313 28 42 28.449219 42 29 C 42 29.550781 42.445313 30 43 30 L 45 30 C 45.554688 30 46 29.550781 46 29 C 46 28.449219 45.554688 28 45 28 Z M 19 32 C 18.445313 32 18 32.449219 18 33 C 18 33.550781 18.445313 34 19 34 L 21 34 C 21.554688 34 22 33.550781 22 33 C 22 32.449219 21.554688 32 21 32 Z M 27 32 C 26.445313 32 26 32.449219 26 33 C 26 33.550781 26.445313 34 27 34 L 29 34 C 29.554688 34 30 33.550781 30 33 C 30 32.449219 29.554688 32 29 32 Z M 35 32 C 34.445313 32 34 32.449219 34 33 C 34 33.550781 34.445313 34 35 34 L 37 34 C 37.554688 34 38 33.550781 38 33 C 38 32.449219 37.554688 32 37 32 Z M 43 32 C 42.445313 32 42 32.449219 42 33 C 42 33.550781 42.445313 34 43 34 L 45 34 C 45.554688 34 46 33.550781 46 33 C 46 32.449219 45.554688 32 45 32 Z M 19 36 C 18.445313 36 18 36.449219 18 37 C 18 37.550781 18.445313 38 19 38 L 21 38 C 21.554688 38 22 37.550781 22 37 C 22 36.449219 21.554688 36 21 36 Z M 27 36 C 26.445313 36 26 36.449219 26 37 C 26 37.550781 26.445313 38 27 38 L 29 38 C 29.554688 38 30 37.550781 30 37 C 30 36.449219 29.554688 36 29 36 Z M 35 36 C 34.445313 36 34 36.449219 34 37 C 34 37.550781 34.445313 38 35 38 L 37 38 C 37.554688 38 38 37.550781 38 37 C 38 36.449219 37.554688 36 37 36 Z M 43 36 C 42.445313 36 42 36.449219 42 37 C 42 37.550781 42.445313 38 43 38 L 45 38 C 45.554688 38 46 37.550781 46 37 C 46 36.449219 45.554688 36 45 36 Z M 19 40 C 18.445313 40 18 40.449219 18 41 C 18 41.550781 18.445313 42 19 42 L 21 42 C 21.554688 42 22 41.550781 22 41 C 22 40.449219 21.554688 40 21 40 Z M 27 40 C 26.445313 40 26 40.449219 26 41 C 26 41.550781 26.445313 42 27 42 L 29 42 C 29.554688 42 30 41.550781 30 41 C 30 40.449219 29.554688 40 29 40 Z M 35 40 C 34.445313 40 34 40.449219 34 41 C 34 41.550781 34.445313 42 35 42 L 37 42 C 37.554688 42 38 41.550781 38 41 C 38 40.449219 37.554688 40 37 40 Z M 43 40 C 42.445313 40 42 40.449219 42 41 C 42 41.550781 42.445313 42 43 42 L 45 42 C 45.554688 42 46 41.550781 46 41 C 46 40.449219 45.554688 40 45 40 Z M 19 44 C 18.445313 44 18 44.449219 18 45 C 18 45.550781 18.445313 46 19 46 L 21 46 C 21.554688 46 22 45.550781 22 45 C 22 44.449219 21.554688 44 21 44 Z M 27 44 C 26.445313 44 26 44.449219 26 45 C 26 45.550781 26.445313 46 27 46 L 29 46 C 29.554688 46 30 45.550781 30 45 C 30 44.449219 29.554688 44 29 44 Z M 35 44 C 34.445313 44 34 44.449219 34 45 C 34 45.550781 34.445313 46 35 46 L 37 46 C 37.554688 46 38 45.550781 38 45 C 38 44.449219 37.554688 44 37 44 Z M 43 44 C 42.445313 44 42 44.449219 42 45 C 42 45.550781 42.445313 46 43 46 L 45 46 C 45.554688 46 46 45.550781 46 45 C 46 44.449219 45.554688 44 45 44 Z M 19 48 C 18.445313 48 18 48.449219 18 49 C 18 49.550781 18.445313 50 19 50 L 21 50 C 21.554688 50 22 49.550781 22 49 C 22 48.449219 21.554688 48 21 48 Z M 27 48 C 26.445313 48 26 48.449219 26 49 C 26 49.550781 26.445313 50 27 50 L 29 50 C 29.554688 50 30 49.550781 30 49 C 30 48.449219 29.554688 48 29 48 Z M 35 48 C 34.445313 48 34 48.449219 34 49 C 34 49.550781 34.445313 50 35 50 L 37 50 C 37.554688 50 38 49.550781 38 49 C 38 48.449219 37.554688 48 37 48 Z M 43 48 C 42.445313 48 42 48.449219 42 49 C 42 49.550781 42.445313 50 43 50 L 45 50 C 45.554688 50 46 49.550781 46 49 C 46 48.449219 45.554688 48 45 48 Z M 30 53.949219 L 34 53.949219 L 34 59.949219 L 30 59.949219 Z M 14 56 L 28 56 L 28 60 L 14 60 Z M 36 56 L 50 56 L 50 60 L 36 60 Z " fill="#003366"/>
</g>
</svg>
