<?xml version="1.0" encoding="UTF-8"?>
<svg xmlns="http://www.w3.org/2000/svg" xmlns:xlink="http://www.w3.org/1999/xlink" viewBox="0 0 80 80" version="1.1" fill="#003366" width="240px" height="240px">
<g id="surface1" fill="#003366">
<path style=" " d="M 56.640625 8.007813 C 56.324219 8.003906 56.011719 8.011719 55.699219 8.023438 C 51.304688 8.214844 46.921875 10.015625 43.722656 13.214844 C 40.542969 16.394531 39.53125 20.105469 40.203125 23.6875 C 40.476563 25.132813 41.011719 26.546875 41.746094 27.925781 L 35.542969 34.128906 L 23.988281 22.578125 L 23.90625 18.527344 L 12.359375 11.226563 L 8.226563 15.359375 L 15.527344 26.90625 L 19.578125 26.988281 L 31.128906 38.542969 L 10.140625 59.53125 C 7.292969 62.378906 7.292969 67.019531 10.140625 69.859375 C 12.984375 72.707031 17.625 72.707031 20.46875 69.859375 L 38.492188 51.835938 L 56.515625 69.859375 C 59.363281 72.707031 64.003906 72.707031 66.84375 69.859375 C 69.691406 67.015625 69.691406 62.375 66.84375 59.53125 L 48.820313 41.507813 L 52.074219 38.253906 C 53.453125 38.988281 54.867188 39.523438 56.3125 39.796875 C 59.894531 40.46875 63.605469 39.457031 66.785156 36.277344 C 71.660156 31.402344 73.289063 23.785156 70.917969 17.554688 L 70.371094 16.109375 L 59.671875 26.808594 L 54.792969 25.207031 L 53.191406 20.328125 L 63.890625 9.632813 L 62.445313 9.082031 C 60.886719 8.488281 59.246094 8.144531 57.578125 8.039063 C 57.265625 8.019531 56.953125 8.011719 56.640625 8.007813 Z M 55.785156 10.042969 C 56.34375 10.015625 56.902344 10.019531 57.453125 10.050781 C 58.363281 10.105469 59.214844 10.390625 60.089844 10.605469 L 50.910156 19.78125 L 53.207031 26.792969 L 60.21875 29.089844 L 69.394531 19.914063 C 70.652344 25.039063 69.246094 30.988281 65.371094 34.863281 C 62.574219 37.660156 59.691406 38.398438 56.679688 37.828125 C 53.667969 37.261719 50.515625 35.277344 47.621094 32.378906 C 44.722656 29.484375 42.738281 26.332031 42.171875 23.320313 C 41.601563 20.308594 42.339844 17.425781 45.136719 14.628906 C 47.953125 11.8125 51.882813 10.21875 55.785156 10.042969 Z M 12.640625 13.773438 L 21.925781 19.640625 L 22.011719 23.421875 L 34.085938 35.5 L 32.5 37.085938 L 20.421875 25.011719 L 16.640625 24.925781 L 10.773438 15.640625 Z M 42.808594 29.691406 C 43.757813 31.113281 44.898438 32.488281 46.203125 33.796875 C 47.511719 35.101563 48.886719 36.242188 50.308594 37.191406 L 19.050781 68.449219 C 16.972656 70.527344 13.632813 70.527344 11.550781 68.449219 C 9.472656 66.367188 9.472656 63.027344 11.550781 60.949219 Z M 44 38 C 43.449219 38 43 38.449219 43 39 C 43 39.550781 43.449219 40 44 40 C 44.550781 40 45 39.550781 45 39 C 45 38.449219 44.550781 38 44 38 Z M 41 41 C 40.449219 41 40 41.449219 40 42 C 40 42.550781 40.449219 43 41 43 C 41.550781 43 42 42.550781 42 42 C 42 41.449219 41.550781 41 41 41 Z M 47.40625 42.921875 L 65.433594 60.949219 C 67.511719 63.027344 67.511719 66.367188 65.433594 68.449219 C 63.351563 70.527344 60.011719 70.527344 57.933594 68.449219 L 39.90625 50.421875 Z M 38 44 C 37.449219 44 37 44.449219 37 45 C 37 45.550781 37.449219 46 38 46 C 38.550781 46 39 45.550781 39 45 C 39 44.449219 38.550781 44 38 44 Z M 35 47 C 34.449219 47 34 47.449219 34 48 C 34 48.550781 34.449219 49 35 49 C 35.550781 49 36 48.550781 36 48 C 36 47.449219 35.550781 47 35 47 Z M 32 50 C 31.449219 50 31 50.449219 31 51 C 31 51.550781 31.449219 52 32 52 C 32.550781 52 33 51.550781 33 51 C 33 50.449219 32.550781 50 32 50 Z M 45 50 C 44.449219 50 44 50.449219 44 51 C 44 51.550781 44.449219 52 45 52 C 45.550781 52 46 51.550781 46 51 C 46 50.449219 45.550781 50 45 50 Z M 29 53 C 28.449219 53 28 53.449219 28 54 C 28 54.550781 28.449219 55 29 55 C 29.550781 55 30 54.550781 30 54 C 30 53.449219 29.550781 53 29 53 Z M 48 53 C 47.449219 53 47 53.449219 47 54 C 47 54.550781 47.449219 55 48 55 C 48.550781 55 49 54.550781 49 54 C 49 53.449219 48.550781 53 48 53 Z M 26 56 C 25.449219 56 25 56.449219 25 57 C 25 57.550781 25.449219 58 26 58 C 26.550781 58 27 57.550781 27 57 C 27 56.449219 26.550781 56 26 56 Z M 51 56 C 50.449219 56 50 56.449219 50 57 C 50 57.550781 50.449219 58 51 58 C 51.550781 58 52 57.550781 52 57 C 52 56.449219 51.550781 56 51 56 Z M 23 59 C 22.449219 59 22 59.449219 22 60 C 22 60.550781 22.449219 61 23 61 C 23.550781 61 24 60.550781 24 60 C 24 59.449219 23.550781 59 23 59 Z M 54 59 C 53.449219 59 53 59.449219 53 60 C 53 60.550781 53.449219 61 54 61 C 54.550781 61 55 60.550781 55 60 C 55 59.449219 54.550781 59 54 59 Z M 20 62 C 19.449219 62 19 62.449219 19 63 C 19 63.550781 19.449219 64 20 64 C 20.550781 64 21 63.550781 21 63 C 21 62.449219 20.550781 62 20 62 Z M 57 62 C 56.449219 62 56 62.449219 56 63 C 56 63.550781 56.449219 64 57 64 C 57.550781 64 58 63.550781 58 63 C 58 62.449219 57.550781 62 57 62 Z M 17 65 C 16.449219 65 16 65.449219 16 66 C 16 66.550781 16.449219 67 17 67 C 17.550781 67 18 66.550781 18 66 C 18 65.449219 17.550781 65 17 65 Z M 60 65 C 59.449219 65 59 65.449219 59 66 C 59 66.550781 59.449219 67 60 67 C 60.550781 67 61 66.550781 61 66 C 61 65.449219 60.550781 65 60 65 Z " fill="#003366"/>
</g>
</svg>
