<?xml version="1.0" encoding="UTF-8"?>
<svg xmlns="http://www.w3.org/2000/svg" xmlns:xlink="http://www.w3.org/1999/xlink" viewBox="0 0 64 64" version="1.1" fill="#33ccff" width="100px" height="100px">
<g id="surface1" fill="#33ccff">
<path style=" " d="M 9 6 C 7.699219 6 6.597656 6.839844 6.183594 8 L 5 8 C 3.347656 8 2 9.347656 2 11 L 2 51 C 2 52.652344 3.347656 54 5 54 L 26.21875 54 C 26.808594 54 27.320313 54.398438 27.464844 54.96875 C 27.90625 56.753906 29.503906 58 31.34375 58 L 34.65625 58 C 36.496094 58 38.089844 56.753906 38.535156 54.96875 C 38.679688 54.398438 39.191406 54 39.78125 54 L 61 54 C 62.652344 54 64 52.652344 64 51 L 64 11 C 64 9.347656 62.652344 8 61 8 L 59.816406 8 C 59.402344 6.839844 58.300781 6 57 6 L 37 6 C 35.359375 6 33.910156 6.804688 33 8.03125 C 32.089844 6.804688 30.640625 6 29 6 Z M 9 8 L 29 8 C 30.652344 8 32 9.347656 32 11 L 32 37 C 32 37.554688 32.449219 38 33 38 C 33.550781 38 34 37.554688 34 37 L 34 11 C 34 9.347656 35.347656 8 37 8 L 57 8 C 57.550781 8 58 8.449219 58 9 L 58 47 C 58 47.550781 57.550781 48 57 48 L 37 48 C 35.359375 48 33.910156 48.804688 33 50.03125 C 32.089844 48.804688 30.640625 48 29 48 L 9 48 C 8.449219 48 8 47.550781 8 47 L 8 9 C 8 8.449219 8.449219 8 9 8 Z M 5 10 L 6 10 L 6 47 C 6 48.652344 7.347656 50 9 50 L 29 50 C 30.652344 50 32 51.347656 32 53 C 32 53.554688 32.449219 54 33 54 C 33.550781 54 34 53.554688 34 53 C 34 51.347656 35.347656 50 37 50 L 57 50 C 58.652344 50 60 48.652344 60 47 L 60 10 L 61 10 C 61.550781 10 62 10.449219 62 11 L 62 51 C 62 51.550781 61.550781 52 61 52 L 39.78125 52 C 38.269531 52 36.964844 53.019531 36.597656 54.484375 C 36.375 55.375 35.578125 56 34.65625 56 L 31.34375 56 C 30.425781 56 29.625 55.378906 29.402344 54.484375 C 29.035156 53.019531 27.730469 52 26.21875 52 L 5 52 C 4.449219 52 4 51.550781 4 51 L 4 11 C 4 10.449219 4.449219 10 5 10 Z M 12 12 C 11.449219 12 11 12.445313 11 13 L 11 15 C 11 15.554688 11.449219 16 12 16 C 12.550781 16 13 15.554688 13 15 L 13 13 C 13 12.445313 12.550781 12 12 12 Z M 17 12 C 16.449219 12 16 12.445313 16 13 L 16 15 C 16 15.554688 16.449219 16 17 16 C 17.550781 16 18 15.554688 18 15 L 18 13 C 18 12.445313 17.550781 12 17 12 Z M 22 12 C 21.449219 12 21 12.445313 21 13 L 21 15 C 21 15.554688 21.449219 16 22 16 C 22.550781 16 23 15.554688 23 15 L 23 13 C 23 12.445313 22.550781 12 22 12 Z M 27 12 C 26.449219 12 26 12.445313 26 13 L 26 15 C 26 15.554688 26.449219 16 27 16 C 27.550781 16 28 15.554688 28 15 L 28 13 C 28 12.445313 27.550781 12 27 12 Z M 39 12 C 38.449219 12 38 12.445313 38 13 L 38 15 C 38 15.554688 38.449219 16 39 16 C 39.550781 16 40 15.554688 40 15 L 40 13 C 40 12.445313 39.550781 12 39 12 Z M 44 12 C 43.449219 12 43 12.445313 43 13 L 43 15 C 43 15.554688 43.449219 16 44 16 C 44.550781 16 45 15.554688 45 15 L 45 13 C 45 12.445313 44.550781 12 44 12 Z M 49 12 C 48.449219 12 48 12.445313 48 13 L 48 15 C 48 15.554688 48.449219 16 49 16 C 49.550781 16 50 15.554688 50 15 L 50 13 C 50 12.445313 49.550781 12 49 12 Z M 54 12 C 53.449219 12 53 12.445313 53 13 L 53 15 C 53 15.554688 53.449219 16 54 16 C 54.550781 16 55 15.554688 55 15 L 55 13 C 55 12.445313 54.550781 12 54 12 Z M 33 40 C 32.449219 40 32 40.445313 32 41 L 32 45 C 32 45.554688 32.449219 46 33 46 C 33.550781 46 34 45.554688 34 45 L 34 41 C 34 40.445313 33.550781 40 33 40 Z " fill="#33ccff"/>
</g>
</svg>
