<?xml version="1.0" encoding="UTF-8"?>
<svg xmlns="http://www.w3.org/2000/svg" xmlns:xlink="http://www.w3.org/1999/xlink" viewBox="0 0 64 64" version="1.1" fill="#00ce33" width="100px" height="100px">
<g id="surface1" fill="#00ce33">
<path style=" " d="M 31.566406 0.140625 C 29.34375 0.140625 27.546875 1.882813 27.480469 4.101563 L 27.429688 5.671875 C 26.597656 4.730469 25.378906 4.140625 24.03125 4.140625 C 21.542969 4.140625 19.550781 6.085938 19.488281 8.570313 L 18.875 31.605469 L 18.125 29.75 C 16.976563 26.929688 14.636719 24.832031 11.710938 23.996094 C 10.746094 23.71875 9.71875 23.945313 8.953125 24.589844 C 8.1875 25.234375 7.796875 26.210938 7.90625 27.207031 L 9.039063 37.59375 C 9.421875 41.089844 10.800781 46.035156 13.527344 49.4375 L 15.597656 52.023438 C 16.984375 53.753906 18.042969 55.695313 18.753906 57.789063 L 19.242188 59.222656 C 20.207031 62.0625 22.871094 63.96875 25.871094 63.96875 L 43.902344 63.96875 C 47.109375 63.96875 49.902344 61.796875 50.6875 58.6875 L 52.800781 50.316406 C 53.320313 48.273438 53.523438 46.171875 53.410156 44.0625 L 51.75 15.488281 C 51.621094 13.050781 49.609375 11.140625 47.164063 11.140625 C 45.835938 11.140625 44.632813 11.707031 43.796875 12.613281 L 43.671875 8.5625 C 43.601563 6.082031 41.605469 4.140625 39.125 4.140625 C 37.769531 4.140625 36.554688 4.734375 35.71875 5.671875 L 35.667969 4.101563 C 35.597656 1.882813 33.800781 0.140625 31.566406 0.140625 Z M 31.578125 2.140625 C 32.714844 2.140625 33.632813 3.03125 33.667969 4.167969 L 34.472656 28.171875 C 34.492188 28.710938 35.035156 29.140625 35.574219 29.140625 C 36.128906 29.140625 36.574219 28.695313 36.574219 28.140625 L 36.574219 8.6875 C 36.574219 7.285156 37.71875 6.140625 39.125 6.140625 C 40.511719 6.140625 41.632813 7.226563 41.671875 8.617188 L 42.277344 28.171875 C 42.292969 28.710938 42.734375 29.140625 43.277344 29.140625 L 43.574219 29.140625 C 44.128906 29.140625 44.574219 28.695313 44.574219 28.140625 L 44.574219 15.730469 C 44.574219 14.300781 45.738281 13.140625 47.171875 13.140625 C 48.546875 13.140625 49.683594 14.21875 49.757813 15.597656 L 51.417969 44.171875 C 51.515625 46.074219 51.332031 47.976563 50.863281 49.828125 L 48.75 58.191406 C 48.1875 60.417969 46.191406 61.96875 43.902344 61.96875 L 25.871094 61.96875 C 23.726563 61.96875 21.828125 60.605469 21.140625 58.578125 L 20.652344 57.144531 C 19.867188 54.828125 18.6875 52.683594 17.15625 50.769531 L 15.089844 48.1875 C 13.066406 45.660156 11.472656 41.414063 11.03125 37.375 L 9.890625 26.988281 C 9.855469 26.652344 9.984375 26.335938 10.242188 26.113281 C 10.425781 25.960938 10.648438 25.878906 10.878906 25.878906 C 10.976563 25.878906 11.070313 25.894531 11.160156 25.921875 C 13.492188 26.585938 15.355469 28.257813 16.269531 30.503906 L 19.03125 37.285156 C 19.308594 37.972656 19.65625 38.632813 20.070313 39.25 C 20.378906 39.710938 20.996094 39.832031 21.457031 39.527344 C 21.917969 39.21875 22.042969 38.601563 21.734375 38.140625 C 21.394531 37.632813 21.109375 37.09375 20.878906 36.53125 L 20.710938 36.109375 C 20.742188 36.015625 20.761719 35.914063 20.765625 35.808594 L 21.488281 8.617188 C 21.523438 7.25 22.664063 6.140625 24.03125 6.140625 C 25.433594 6.140625 26.574219 7.28125 26.574219 8.679688 L 26.574219 28.140625 C 26.574219 28.695313 27.019531 29.140625 27.574219 29.140625 L 27.675781 29.140625 C 28.214844 29.140625 28.65625 28.710938 28.671875 28.171875 L 29.480469 4.164063 C 29.515625 3.03125 30.433594 2.140625 31.578125 2.140625 Z M 30.921875 32.832031 C 29.160156 32.835938 27.398438 33.507813 26.058594 34.847656 C 23.375 37.53125 23.375 41.894531 26.058594 44.574219 L 34.785156 53.300781 C 35.128906 53.644531 35.574219 53.8125 36.027344 53.8125 C 36.472656 53.8125 36.925781 53.644531 37.265625 53.300781 L 45.984375 44.574219 C 47.285156 43.273438 48 41.550781 48 39.710938 C 48 37.875 47.285156 36.148438 45.984375 34.847656 C 43.300781 32.164063 38.941406 32.164063 36.261719 34.847656 L 36.023438 35.082031 L 35.785156 34.847656 C 34.445313 33.503906 32.683594 32.832031 30.921875 32.832031 Z M 41.121094 34.832031 C 42.371094 34.832031 43.617188 35.308594 44.570313 36.261719 C 45.492188 37.183594 46 38.40625 46 39.710938 C 46 41.015625 45.492188 42.238281 44.570313 43.15625 L 36.027344 51.714844 L 27.472656 43.15625 C 25.570313 41.257813 25.570313 38.164063 27.472656 36.261719 C 28.421875 35.3125 29.671875 34.835938 30.921875 34.835938 C 32.167969 34.835938 33.417969 35.3125 34.371094 36.261719 L 34.609375 36.5 L 34.203125 36.90625 C 33.808594 37.296875 33.808594 37.929688 34.203125 38.316406 C 34.394531 38.511719 34.652344 38.609375 34.90625 38.609375 C 35.164063 38.609375 35.421875 38.511719 35.613281 38.316406 L 36.019531 37.914063 L 36.019531 37.910156 L 37.671875 36.261719 C 38.625 35.3125 39.871094 34.835938 41.121094 34.832031 Z M 25.183594 55.859375 C 24.628906 55.859375 24.183594 56.304688 24.183594 56.859375 L 24.183594 58.859375 C 24.183594 59.414063 24.628906 59.859375 25.183594 59.859375 C 25.734375 59.859375 26.183594 59.414063 26.183594 58.859375 L 26.183594 56.859375 C 26.183594 56.308594 25.734375 55.859375 25.183594 55.859375 Z M 30.183594 55.859375 C 29.628906 55.859375 29.183594 56.304688 29.183594 56.859375 L 29.183594 58.859375 C 29.183594 59.414063 29.628906 59.859375 30.183594 59.859375 C 30.734375 59.859375 31.183594 59.414063 31.183594 58.859375 L 31.183594 56.859375 C 31.183594 56.308594 30.734375 55.859375 30.183594 55.859375 Z M 35.183594 55.859375 C 34.628906 55.859375 34.183594 56.304688 34.183594 56.859375 L 34.183594 58.859375 C 34.183594 59.414063 34.628906 59.859375 35.183594 59.859375 C 35.734375 59.859375 36.183594 59.414063 36.183594 58.859375 L 36.183594 56.859375 C 36.183594 56.308594 35.734375 55.859375 35.183594 55.859375 Z M 40.183594 55.859375 C 39.628906 55.859375 39.183594 56.304688 39.183594 56.859375 L 39.183594 58.859375 C 39.183594 59.414063 39.628906 59.859375 40.183594 59.859375 C 40.734375 59.859375 41.183594 59.414063 41.183594 58.859375 L 41.183594 56.859375 C 41.183594 56.308594 40.734375 55.859375 40.183594 55.859375 Z M 45.183594 55.859375 C 44.628906 55.859375 44.183594 56.304688 44.183594 56.859375 L 44.183594 58.859375 C 44.183594 59.414063 44.628906 59.859375 45.183594 59.859375 C 45.734375 59.859375 46.183594 59.414063 46.183594 58.859375 L 46.183594 56.859375 C 46.183594 56.308594 45.734375 55.859375 45.183594 55.859375 Z " fill="#00ce33"/>
</g>
</svg>
