<?xml version="1.0" encoding="UTF-8"?>
<svg xmlns="http://www.w3.org/2000/svg" xmlns:xlink="http://www.w3.org/1999/xlink" viewBox="0 0 80 80" version="1.1" fill="#003366" width="240px" height="240px">
<g id="surface1" fill="#003366">
<path style=" " d="M 40 7 C 36.144531 7 33 10.144531 33 14 C 33 17.855469 36.144531 21 40 21 C 43.855469 21 47 17.855469 47 14 C 47 10.144531 43.855469 7 40 7 Z M 40 9 C 42.773438 9 45 11.226563 45 14 C 45 16.773438 42.773438 19 40 19 C 37.226563 19 35 16.773438 35 14 C 35 11.226563 37.226563 9 40 9 Z M 14 19 C 10.144531 19 7 22.144531 7 26 C 7 29.855469 10.144531 33 14 33 C 16.453125 33 18.613281 31.726563 19.863281 29.808594 L 19.988281 30.292969 L 20.265625 30.511719 L 20.355469 30.558594 L 21.25 30.582031 L 21.808594 29.882813 L 21.578125 29.015625 L 21.300781 28.796875 L 21.214844 28.75 L 20.441406 28.726563 C 20.800781 27.886719 21 26.964844 21 26 C 21 22.144531 17.855469 19 14 19 Z M 14 21 C 16.773438 21 19 23.226563 19 26 C 19 28.773438 16.773438 31 14 31 C 11.226563 31 9 28.773438 9 26 C 9 23.226563 11.226563 21 14 21 Z M 39.71875 21.25 L 39.0625 21.863281 L 39 22.210938 L 39 22.3125 L 39.402344 23.109375 L 40.28125 23.269531 L 40.9375 22.65625 L 41 22.3125 L 41 22.210938 L 40.597656 21.410156 Z M 66 22 C 62.144531 22 59 25.144531 59 29 C 59 29.65625 59.097656 30.285156 59.265625 30.890625 L 58.855469 31.375 L 59.050781 32.246094 L 59.871094 32.609375 L 60 32.582031 C 61.226563 34.625 63.453125 36 66 36 C 69.855469 36 73 32.855469 73 29 C 73 25.144531 69.855469 22 66 22 Z M 66 24 C 68.773438 24 71 26.226563 71 29 C 71 31.773438 68.773438 34 66 34 C 63.226563 34 61 31.773438 61 29 C 61 26.226563 63.226563 24 66 24 Z M 39.71875 25.351563 L 39.0625 25.964844 L 39 26.3125 L 39 26.410156 L 39.402344 27.214844 L 40.28125 27.371094 L 40.9375 26.757813 L 41 26.410156 L 41 26.3125 L 40.597656 25.511719 Z M 39.71875 29.453125 L 39.078125 30.046875 C 35.957031 30.335938 33.246094 32.066406 31.617188 34.566406 L 31.152344 34.554688 L 30.59375 35.253906 L 30.808594 36.074219 C 30.289063 37.277344 30 38.605469 30 40 C 30 42.964844 31.304688 45.625 33.363281 47.457031 L 33.3125 47.707031 L 33.917969 48.375 L 34.464844 48.316406 C 36.050781 49.378906 37.953125 50 40 50 C 42.785156 50 45.308594 48.851563 47.125 47.003906 L 47.289063 46.890625 L 47.292969 46.816406 C 48.964844 45.03125 50 42.636719 50 40 C 50 38.859375 49.796875 37.765625 49.441406 36.742188 L 49.5625 36.605469 L 49.359375 35.730469 L 48.9375 35.542969 C 47.410156 32.496094 44.375 30.332031 40.8125 30.042969 L 40.597656 29.609375 Z M 23.929688 30.667969 L 23.375 31.371094 L 23.601563 32.234375 L 23.875 32.453125 L 23.964844 32.5 L 24.859375 32.527344 L 25.417969 31.828125 L 25.1875 30.960938 L 24.914063 30.738281 L 24.828125 30.691406 Z M 40 32 C 44.429688 32 48 35.570313 48 40 C 48 44.429688 44.429688 48 40 48 C 35.570313 48 32 44.429688 32 40 C 32 35.570313 35.570313 32 40 32 Z M 56.09375 32.171875 L 55.75 32.25 L 55.660156 32.289063 L 55.078125 32.96875 L 55.277344 33.84375 L 56.09375 34.207031 L 56.4375 34.128906 L 56.53125 34.09375 L 57.109375 33.410156 L 56.914063 32.535156 Z M 27.539063 32.609375 L 26.984375 33.3125 L 27.210938 34.179688 L 27.484375 34.398438 L 27.574219 34.445313 L 28.46875 34.472656 L 29.027344 33.769531 L 28.796875 32.90625 L 28.523438 32.6875 L 28.4375 32.636719 Z M 52.316406 33.769531 L 51.972656 33.847656 L 51.882813 33.886719 L 51.300781 34.566406 L 51.5 35.441406 L 52.316406 35.808594 L 52.660156 35.730469 L 52.753906 35.6875 L 53.335938 35.007813 L 53.140625 34.132813 Z M 40 34 C 39.449219 34 39 34.449219 39 35 C 39 35.550781 39.449219 36 40 36 C 40.550781 36 41 35.550781 41 35 C 41 34.449219 40.550781 34 40 34 Z M 43.546875 35.464844 C 43.277344 35.460938 43.019531 35.566406 42.828125 35.753906 C 42.4375 36.144531 42.4375 36.78125 42.828125 37.171875 C 43.21875 37.558594 43.851563 37.558594 44.242188 37.171875 C 44.632813 36.78125 44.632813 36.144531 44.242188 35.753906 C 44.058594 35.570313 43.808594 35.464844 43.546875 35.464844 Z M 36.480469 35.464844 C 36.207031 35.460938 35.945313 35.566406 35.753906 35.757813 C 35.367188 36.148438 35.367188 36.78125 35.753906 37.171875 C 36.144531 37.5625 36.78125 37.5625 37.171875 37.171875 C 37.558594 36.78125 37.558594 36.148438 37.171875 35.757813 C 36.984375 35.574219 36.738281 35.46875 36.480469 35.464844 Z M 35 39 C 34.449219 39 34 39.449219 34 40 C 34 40.550781 34.449219 41 35 41 C 35.550781 41 36 40.550781 36 40 C 36 39.449219 35.550781 39 35 39 Z M 45 39 C 44.449219 39 44 39.449219 44 40 C 44 40.550781 44.449219 41 45 41 C 45.550781 41 46 40.550781 46 40 C 46 39.449219 45.550781 39 45 39 Z M 36.480469 42.535156 C 36.207031 42.53125 35.949219 42.636719 35.757813 42.828125 C 35.367188 43.21875 35.367188 43.851563 35.757813 44.242188 C 36.148438 44.632813 36.78125 44.632813 37.171875 44.242188 C 37.5625 43.851563 37.5625 43.21875 37.171875 42.828125 C 36.988281 42.644531 36.738281 42.539063 36.480469 42.535156 Z M 43.550781 42.535156 C 43.28125 42.53125 43.019531 42.636719 42.828125 42.828125 C 42.4375 43.21875 42.4375 43.851563 42.828125 44.242188 C 43.21875 44.632813 43.851563 44.632813 44.242188 44.242188 C 44.632813 43.851563 44.632813 43.21875 44.242188 42.828125 C 44.058594 42.644531 43.8125 42.539063 43.550781 42.535156 Z M 40 44 C 39.449219 44 39 44.449219 39 45 C 39 45.550781 39.449219 46 40 46 C 40.550781 46 41 45.550781 41 45 C 41 44.449219 40.550781 44 40 44 Z M 49.09375 48.25 L 48.359375 48.761719 L 48.328125 49.65625 L 48.53125 49.945313 L 48.605469 50.015625 L 49.453125 50.296875 L 50.1875 49.785156 L 50.21875 48.890625 L 50.015625 48.605469 L 49.945313 48.53125 Z M 32.199219 49.675781 L 31.308594 49.765625 L 31.046875 50 L 30.984375 50.078125 L 30.8125 50.957031 L 31.417969 51.621094 L 32.3125 51.535156 L 32.570313 51.296875 L 32.628906 51.21875 L 32.800781 50.339844 Z M 51.996094 51.148438 L 51.261719 51.660156 L 51.230469 52.558594 L 51.433594 52.84375 L 51.5 52.917969 L 52.351563 53.199219 L 53.089844 52.6875 L 53.117188 51.792969 L 52.917969 51.5 L 52.84375 51.433594 Z M 29.699219 52.925781 L 28.808594 53.011719 L 28.546875 53.25 L 28.484375 53.328125 L 28.3125 54.207031 L 28.917969 54.871094 L 29.8125 54.785156 L 30.070313 54.546875 L 30.128906 54.46875 L 30.300781 53.589844 Z M 54.894531 54.046875 L 54.15625 54.5625 L 54.128906 55.453125 L 54.328125 55.746094 L 54.402344 55.8125 L 55.25 56.097656 L 55.984375 55.585938 L 56.015625 54.6875 L 55.8125 54.402344 L 55.746094 54.328125 Z M 27.199219 56.175781 L 26.308594 56.261719 L 26.046875 56.5 L 25.984375 56.578125 L 25.816406 57.457031 L 26.417969 58.121094 L 27.3125 58.035156 L 27.570313 57.796875 L 27.632813 57.71875 L 27.800781 56.839844 Z M 57.792969 56.949219 L 57.058594 57.457031 L 57.027344 58.355469 L 57.230469 58.644531 L 57.300781 58.714844 L 58.152344 58.996094 L 58.886719 58.484375 L 58.917969 57.589844 L 58.714844 57.300781 L 58.644531 57.230469 Z M 20 59 C 16.144531 59 13 62.144531 13 66 C 13 69.855469 16.144531 73 20 73 C 23.855469 73 27 69.855469 27 66 C 27 64.101563 26.234375 62.375 25 61.113281 L 25.070313 61.046875 L 25.132813 60.96875 L 25.300781 60.089844 L 24.699219 59.425781 L 23.808594 59.511719 L 23.546875 59.75 L 23.484375 59.828125 L 23.46875 59.929688 C 22.441406 59.339844 21.261719 59 20 59 Z M 66 59 C 64.414063 59 62.953125 59.539063 61.777344 60.433594 L 61.613281 60.199219 L 61.542969 60.128906 L 60.691406 59.84375 L 59.957031 60.359375 L 59.925781 61.253906 L 60.128906 61.542969 L 60.199219 61.613281 L 60.484375 61.707031 C 59.558594 62.894531 59 64.382813 59 66 C 59 69.855469 62.144531 73 66 73 C 69.855469 73 73 69.855469 73 66 C 73 62.144531 69.855469 59 66 59 Z M 20 61 C 22.773438 61 25 63.226563 25 66 C 25 68.773438 22.773438 71 20 71 C 17.226563 71 15 68.773438 15 66 C 15 63.226563 17.226563 61 20 61 Z M 66 61 C 68.773438 61 71 63.226563 71 66 C 71 68.773438 68.773438 71 66 71 C 63.226563 71 61 68.773438 61 66 C 61 63.226563 63.226563 61 66 61 Z " fill="#003366"/>
</g>
</svg>
