<?xml version="1.0" encoding="UTF-8"?>
<svg xmlns="http://www.w3.org/2000/svg" xmlns:xlink="http://www.w3.org/1999/xlink" viewBox="0 0 80 80" version="1.1" fill="#000033" width="240px" height="240px">
<g id="surface1" fill="#000033">
<path style=" " d="M 39.855469 12 C 35.953125 12 32.488281 13.265625 29.988281 15.546875 C 29.46875 16.023438 29 16.554688 28.570313 17.113281 C 27.554688 16.492188 26.167969 16 24.378906 16 C 21.191406 16 18.339844 17.039063 16.28125 18.925781 C 14.226563 20.816406 13 23.546875 13 26.738281 C 13 28.816406 13.527344 32.578125 13.816406 34.652344 C 13.359375 35.042969 13 35.542969 13 36.199219 C 13 36.746094 13.152344 37.105469 13.265625 37.472656 C 13.324219 37.660156 13.378906 37.824219 13.410156 37.945313 C 13.445313 38.066406 13.441406 38.195313 13.441406 38 C 13.441406 38.972656 14.210938 39.617188 15.097656 39.828125 C 15.328125 42.445313 16.585938 44.75 18.5 46.332031 L 18.5 50.296875 C 17.96875 50.472656 15.144531 51.378906 11.765625 53.050781 C 9.921875 53.960938 8.0625 55.03125 6.609375 56.25 C 5.15625 57.464844 4 58.878906 4 60.597656 L 4 64 L 16 64 L 16 68 L 64 68 L 64 64 L 76 64 L 76 60.597656 C 76 58.878906 74.84375 57.464844 73.390625 56.25 C 71.9375 55.03125 70.078125 53.960938 68.234375 53.050781 C 64.855469 51.378906 62.03125 50.472656 61.5 50.296875 L 61.5 46.332031 C 63.414063 44.75 64.671875 42.445313 64.902344 39.828125 C 65.789063 39.617188 66.558594 38.972656 66.558594 38 C 66.558594 38.195313 66.554688 38.066406 66.589844 37.945313 C 66.621094 37.824219 66.675781 37.660156 66.734375 37.472656 C 66.847656 37.105469 67 36.746094 67 36.199219 C 67 35.542969 66.636719 35.042969 66.179688 34.652344 C 66.472656 32.550781 67 28.726563 67 26.738281 C 67 24.105469 66.257813 22.152344 65.105469 20.863281 C 64.089844 19.738281 62.789063 19.238281 61.53125 19.109375 C 61.355469 18.792969 61.199219 18.394531 60.4375 17.742188 C 59.53125 16.964844 58.125 16.207031 56.183594 16.035156 C 56.121094 16.027344 56.066406 16 56 16 C 55.960938 16 55.925781 16.019531 55.886719 16.023438 C 55.71875 16.015625 55.554688 16 55.378906 16 C 53.589844 16 51.921875 16.34375 50.421875 16.964844 C 49.550781 16.464844 48.601563 16.21875 47.671875 16.125 C 47.433594 15.671875 47.042969 15.019531 46.234375 14.265625 C 44.996094 13.117188 42.925781 12 39.855469 12 Z M 39.855469 14 C 42.453125 14 43.957031 14.882813 44.875 15.734375 C 45.789063 16.582031 46.0625 17.34375 46.0625 17.34375 L 46.300781 18 L 47 18 C 48.1875 18 49.386719 18.390625 50.328125 19.414063 C 51.269531 20.4375 52 22.160156 52 25 C 52 27.238281 51.386719 32.097656 51.125 34.019531 L 51.027344 34.75 L 51.691406 35.0625 C 51.890625 35.152344 52 35.3125 52 35.5 C 52 35.515625 51.90625 36.007813 51.78125 36.4375 C 51.714844 36.65625 51.652344 36.871094 51.59375 37.074219 C 51.539063 37.277344 51.480469 37.414063 51.480469 37.75 C 51.480469 37.875 51.378906 38 51.175781 38 L 49 38 L 49 39.375 C 49 42.320313 47.582031 44.914063 45.398438 46.554688 L 45 46.855469 L 45 52.714844 L 45.675781 52.945313 C 45.675781 52.945313 49.871094 54.382813 54.035156 56.566406 C 56.117188 57.660156 58.1875 58.941406 59.679688 60.265625 C 61.171875 61.59375 62 62.914063 62 64 L 62 66 L 18 66 L 18 64 C 18 62.914063 18.828125 61.59375 20.320313 60.265625 C 21.8125 58.941406 23.882813 57.660156 25.964844 56.566406 C 30.128906 54.382813 34.324219 52.945313 34.324219 52.945313 L 35 52.714844 L 35 46.859375 L 34.601563 46.558594 C 32.417969 44.914063 31 42.320313 31 39.375 L 31 38 L 28.824219 38 C 28.621094 38 28.519531 37.875 28.519531 37.75 C 28.519531 37.414063 28.460938 37.277344 28.40625 37.074219 C 28.347656 36.871094 28.285156 36.65625 28.21875 36.4375 C 28.09375 36.007813 28 35.515625 28 35.5 C 28 35.316406 28.109375 35.152344 28.304688 35.0625 L 28.96875 34.75 L 28.871094 34.019531 C 28.609375 32.125 28 27.386719 28 25 C 28 21.628906 29.25 18.929688 31.339844 17.019531 C 33.425781 15.113281 36.386719 14 39.855469 14 Z M 24.378906 18 C 25.792969 18 26.78125 18.355469 27.496094 18.792969 C 26.917969 19.882813 26.492188 21.074219 26.25 22.359375 C 26.101563 22.53125 26 22.75 26 23 C 26 23.148438 26.035156 23.285156 26.09375 23.410156 C 26.035156 23.929688 26 24.457031 26 25 C 26 25.976563 26.089844 27.1875 26.207031 28.421875 C 26.085938 28.585938 26 28.777344 26 29 C 26 29.292969 26.132813 29.550781 26.332031 29.734375 C 26.503906 31.28125 26.703125 32.78125 26.839844 33.78125 C 26.367188 34.230469 26 34.796875 26 35.5 C 26 36.089844 26.167969 36.546875 26.300781 37 C 26.367188 37.230469 26.433594 37.441406 26.472656 37.597656 C 26.515625 37.753906 26.519531 37.910156 26.519531 37.75 C 26.519531 39.003906 27.585938 40 28.824219 40 L 29.078125 40 C 29.136719 41.070313 29.363281 42.09375 29.707031 43.058594 C 29.300781 43.1875 29 43.550781 29 44 C 29 44.550781 29.449219 45 30 45 C 30.199219 45 30.375 44.925781 30.53125 44.828125 C 30.953125 45.558594 31.453125 46.238281 32.03125 46.851563 C 32.019531 46.902344 32 46.949219 32 47 C 32 47.550781 32.449219 48 33 48 L 33 51.3125 C 32.351563 51.539063 30.398438 52.246094 27.921875 53.386719 C 27.972656 53.265625 28 53.136719 28 53 C 28 52.449219 27.550781 52 27 52 C 26.449219 52 26 52.449219 26 53 C 26 53.464844 26.324219 53.839844 26.753906 53.953125 C 26.1875 54.226563 25.636719 54.484375 25.035156 54.796875 C 24.839844 54.902344 24.644531 55.011719 24.453125 55.121094 C 24.3125 55.046875 24.164063 55 24 55 C 23.472656 55 23.050781 55.414063 23.015625 55.933594 C 21.554688 56.792969 20.15625 57.738281 18.992188 58.769531 C 17.890625 59.75 16.964844 60.820313 16.445313 62 L 13 62 C 13 61.449219 12.550781 61 12 61 C 11.449219 61 11 61.449219 11 62 L 7 62 C 7 61.449219 6.550781 61 6 61 L 6 60.597656 C 6 59.851563 6.644531 58.828125 7.894531 57.78125 C 8.761719 57.054688 9.878906 56.34375 11.0625 55.683594 C 11.03125 55.78125 11 55.886719 11 56 C 11 56.550781 11.449219 57 12 57 C 12.550781 57 13 56.550781 13 56 C 13 55.539063 12.679688 55.164063 12.25 55.050781 C 12.386719 54.984375 12.515625 54.910156 12.652344 54.84375 C 13.332031 54.507813 13.992188 54.214844 14.640625 53.925781 C 14.753906 53.972656 14.875 54 15 54 C 15.417969 54 15.773438 53.746094 15.921875 53.382813 C 17.953125 52.550781 19.523438 52.023438 19.601563 52 L 20.5 52 L 20.5 47.847656 C 20.648438 47.9375 20.8125 48 21 48 C 21.550781 48 22 47.550781 22 47 C 22 46.449219 21.550781 46 21 46 C 20.8125 46 20.648438 46.0625 20.5 46.152344 L 20.5 45.394531 L 20.089844 45.097656 C 19.6875 44.800781 19.320313 44.460938 18.984375 44.09375 C 18.984375 44.058594 19 44.03125 19 44 C 19 43.507813 18.636719 43.121094 18.171875 43.035156 C 17.433594 41.871094 17 40.496094 17 39.011719 L 17 38 L 15.546875 38 C 15.425781 38 15.441406 37.957031 15.441406 38 C 15.441406 37.667969 15.382813 37.5625 15.332031 37.390625 C 15.285156 37.222656 15.230469 37.050781 15.175781 36.878906 C 15.070313 36.539063 15 36.136719 15 36.199219 C 15 36.152344 15.027344 36.082031 15.1875 36.03125 L 15.972656 35.765625 L 15.921875 35.390625 C 15.972656 35.269531 16 35.136719 16 35 C 16 34.777344 15.914063 34.582031 15.789063 34.417969 C 15.625 33.246094 15.414063 31.605469 15.238281 29.953125 C 15.671875 29.839844 16 29.464844 16 29 C 16 28.472656 15.585938 28.050781 15.066406 28.015625 C 15.035156 27.550781 15 27.066406 15 26.738281 C 15 25.710938 15.144531 24.765625 15.417969 23.90625 C 15.757813 23.746094 16 23.402344 16 23 C 16 22.878906 15.972656 22.765625 15.933594 22.65625 C 16.296875 21.9375 16.761719 21.289063 17.316406 20.722656 C 17.496094 20.890625 17.734375 21 18 21 C 18.550781 21 19 20.550781 19 20 C 19 19.808594 18.933594 19.640625 18.839844 19.488281 C 20.351563 18.539063 22.234375 18 24.378906 18 Z M 17 38 C 17 38.550781 17.449219 39 18 39 C 18.550781 39 19 38.550781 19 38 C 19 37.449219 18.550781 37 18 37 C 17.449219 37 17 37.449219 17 38 Z M 55.378906 18 C 57.042969 18 58.101563 18.496094 58.828125 19.035156 C 58.363281 19.117188 58 19.507813 58 20 C 58 20.550781 58.449219 21 59 21 C 59.480469 21 59.867188 20.652344 59.960938 20.199219 C 60.015625 20.289063 60.089844 20.414063 60.089844 20.414063 L 60.355469 21 L 61 21 C 61.875 21 62.84375 21.34375 63.613281 22.203125 C 64.167969 22.816406 64.640625 23.726563 64.859375 25.027344 C 64.378906 25.097656 64 25.496094 64 26 C 64 26.546875 64.441406 26.992188 64.984375 27 C 64.964844 27.957031 64.816406 29.476563 64.632813 31.074219 C 64.261719 31.222656 64 31.578125 64 32 C 64 32.328125 64.167969 32.605469 64.414063 32.789063 C 64.316406 33.542969 64.210938 34.449219 64.140625 34.945313 L 64.027344 35.765625 L 64.8125 36.03125 C 64.972656 36.085938 65 36.152344 65 36.199219 C 65 36.136719 64.929688 36.539063 64.824219 36.878906 C 64.808594 36.933594 64.789063 36.988281 64.773438 37.046875 C 64.332031 37.148438 64 37.527344 64 38 L 63 38 L 63 39.011719 C 63 39.519531 62.9375 40.011719 62.84375 40.492188 C 62.667969 40.203125 62.363281 40 62 40 C 61.449219 40 61 40.449219 61 41 C 61 41.550781 61.449219 42 62 42 C 62.148438 42 62.289063 41.964844 62.417969 41.90625 C 61.882813 43.1875 61.015625 44.289063 59.910156 45.097656 L 59.5 45.394531 L 59.5 49.152344 C 59.351563 49.0625 59.1875 49 59 49 C 58.449219 49 58 49.449219 58 50 C 58 50.550781 58.449219 51 59 51 C 59.1875 51 59.351563 50.9375 59.5 50.847656 L 59.5 52 L 60.398438 52 C 60.421875 52.007813 61.023438 52.226563 61.277344 52.3125 C 61.105469 52.492188 61 52.734375 61 53 C 61 53.550781 61.449219 54 62 54 C 62.550781 54 63 53.550781 63 53 C 63 52.980469 62.988281 52.964844 62.988281 52.941406 C 64.230469 53.425781 65.765625 54.058594 67.347656 54.84375 C 68.285156 55.308594 69.210938 55.8125 70.066406 56.34375 C 70.210938 56.726563 70.570313 57 71 57 C 71.019531 57 71.039063 56.988281 71.0625 56.988281 C 71.4375 57.25 71.785156 57.515625 72.105469 57.78125 C 72.484375 58.097656 72.789063 58.410156 73.058594 58.71875 C 73.03125 58.808594 73 58.898438 73 59 C 73 59.507813 73.382813 59.910156 73.871094 59.972656 C 73.953125 60.199219 74 60.40625 74 60.597656 L 74 62 L 72 62 C 72 61.449219 71.550781 61 71 61 C 70.449219 61 70 61.449219 70 62 L 66 62 C 66 61.449219 65.550781 61 65 61 C 64.449219 61 64 61.449219 64 62 L 63.554688 62 C 63.238281 61.28125 62.773438 60.601563 62.203125 59.957031 C 62.65625 59.863281 63 59.480469 63 59 C 63 58.449219 62.550781 58 62 58 C 61.519531 58 61.132813 58.347656 61.039063 58.800781 C 61.027344 58.792969 61.019531 58.78125 61.007813 58.769531 C 59.3125 57.265625 57.132813 55.933594 54.964844 54.796875 C 53.507813 54.035156 52.179688 53.425781 50.980469 52.90625 C 50.929688 52.398438 50.519531 52 50 52 C 49.765625 52 49.5625 52.09375 49.390625 52.230469 C 48.269531 51.777344 47.382813 51.445313 47 51.3125 L 47 51 C 47.550781 51 48 50.550781 48 50 C 48 49.449219 47.550781 49 47 49 L 47 47.777344 C 48.835938 46.25 50.140625 44.140625 50.671875 41.734375 C 50.871094 41.550781 51 41.292969 51 41 C 51 40.824219 50.945313 40.671875 50.863281 40.527344 C 50.882813 40.351563 50.914063 40.179688 50.921875 40 L 51.175781 40 C 51.964844 40 52.675781 39.59375 53.09375 38.980469 C 53.597656 38.929688 54 38.519531 54 38 C 54 37.691406 53.851563 37.421875 53.628906 37.238281 C 53.652344 37.15625 53.671875 37.09375 53.699219 37 C 53.832031 36.546875 54 36.089844 54 35.5 C 54 34.792969 53.632813 34.226563 53.15625 33.777344 C 53.183594 33.570313 53.226563 33.191406 53.261719 32.949219 C 53.683594 32.832031 54 32.460938 54 32 C 54 31.625 53.785156 31.3125 53.484375 31.140625 C 53.742188 29.035156 54 26.6875 54 25 C 54 23.414063 53.789063 22.054688 53.410156 20.90625 C 53.757813 20.75 54 20.402344 54 20 C 54 19.449219 53.550781 19 53 19 C 52.847656 19 52.703125 19.042969 52.574219 19.105469 C 52.4375 18.878906 52.289063 18.667969 52.136719 18.46875 C 53.132813 18.171875 54.214844 18 55.378906 18 Z M 24 19 C 23.449219 19 23 19.449219 23 20 C 23 20.550781 23.449219 21 24 21 C 24.550781 21 25 20.550781 25 20 C 25 19.449219 24.550781 19 24 19 Z M 21 22 C 20.449219 22 20 22.449219 20 23 C 20 23.550781 20.449219 24 21 24 C 21.550781 24 22 23.550781 22 23 C 22 22.449219 21.550781 22 21 22 Z M 56 22 C 55.449219 22 55 22.449219 55 23 C 55 23.550781 55.449219 24 56 24 C 56.550781 24 57 23.550781 57 23 C 57 22.449219 56.550781 22 56 22 Z M 62 22 C 61.449219 22 61 22.449219 61 23 C 61 23.550781 61.449219 24 62 24 C 62.550781 24 63 23.550781 63 23 C 63 22.449219 62.550781 22 62 22 Z M 18 25 C 17.449219 25 17 25.449219 17 26 C 17 26.550781 17.449219 27 18 27 C 18.550781 27 19 26.550781 19 26 C 19 25.449219 18.550781 25 18 25 Z M 24 25 C 23.449219 25 23 25.449219 23 26 C 23 26.550781 23.449219 27 24 27 C 24.550781 27 25 26.550781 25 26 C 25 25.449219 24.550781 25 24 25 Z M 59 25 C 58.449219 25 58 25.449219 58 26 C 58 26.550781 58.449219 27 59 27 C 59.550781 27 60 26.550781 60 26 C 60 25.449219 59.550781 25 59 25 Z M 21 28 C 20.449219 28 20 28.449219 20 29 C 20 29.550781 20.449219 30 21 30 C 21.550781 30 22 29.550781 22 29 C 22 28.449219 21.550781 28 21 28 Z M 56 28 C 55.449219 28 55 28.449219 55 29 C 55 29.550781 55.449219 30 56 30 C 56.550781 30 57 29.550781 57 29 C 57 28.449219 56.550781 28 56 28 Z M 62 28 C 61.449219 28 61 28.449219 61 29 C 61 29.550781 61.449219 30 62 30 C 62.550781 30 63 29.550781 63 29 C 63 28.449219 62.550781 28 62 28 Z M 18 31 C 17.449219 31 17 31.449219 17 32 C 17 32.550781 17.449219 33 18 33 C 18.550781 33 19 32.550781 19 32 C 19 31.449219 18.550781 31 18 31 Z M 24 31 C 23.449219 31 23 31.449219 23 32 C 23 32.550781 23.449219 33 24 33 C 24.550781 33 25 32.550781 25 32 C 25 31.449219 24.550781 31 24 31 Z M 59 31 C 58.449219 31 58 31.449219 58 32 C 58 32.550781 58.449219 33 59 33 C 59.550781 33 60 32.550781 60 32 C 60 31.449219 59.550781 31 59 31 Z M 21 34 C 20.449219 34 20 34.449219 20 35 C 20 35.550781 20.449219 36 21 36 C 21.550781 36 22 35.550781 22 35 C 22 34.449219 21.550781 34 21 34 Z M 56 34 C 55.449219 34 55 34.449219 55 35 C 55 35.550781 55.449219 36 56 36 C 56.550781 36 57 35.550781 57 35 C 57 34.449219 56.550781 34 56 34 Z M 62 34 C 61.449219 34 61 34.449219 61 35 C 61 35.550781 61.449219 36 62 36 C 62.550781 36 63 35.550781 63 35 C 63 34.449219 62.550781 34 62 34 Z M 24 37 C 23.449219 37 23 37.449219 23 38 C 23 38.550781 23.449219 39 24 39 C 24.550781 39 25 38.550781 25 38 C 25 37.449219 24.550781 37 24 37 Z M 59 37 C 58.449219 37 58 37.449219 58 38 C 58 38.550781 58.449219 39 59 39 C 59.550781 39 60 38.550781 60 38 C 60 37.449219 59.550781 37 59 37 Z M 21 40 C 20.449219 40 20 40.449219 20 41 C 20 41.550781 20.449219 42 21 42 C 21.550781 42 22 41.550781 22 41 C 22 40.449219 21.550781 40 21 40 Z M 27 40 C 26.449219 40 26 40.449219 26 41 C 26 41.550781 26.449219 42 27 42 C 27.550781 42 28 41.550781 28 41 C 28 40.449219 27.550781 40 27 40 Z M 56 40 C 55.449219 40 55 40.449219 55 41 C 55 41.550781 55.449219 42 56 42 C 56.550781 42 57 41.550781 57 41 C 57 40.449219 56.550781 40 56 40 Z M 24 43 C 23.449219 43 23 43.449219 23 44 C 23 44.550781 23.449219 45 24 45 C 24.550781 45 25 44.550781 25 44 C 25 43.449219 24.550781 43 24 43 Z M 53 43 C 52.449219 43 52 43.449219 52 44 C 52 44.550781 52.449219 45 53 45 C 53.550781 45 54 44.550781 54 44 C 54 43.449219 53.550781 43 53 43 Z M 59 43 C 58.449219 43 58 43.449219 58 44 C 58 44.550781 58.449219 45 59 45 C 59.550781 45 60 44.550781 60 44 C 60 43.449219 59.550781 43 59 43 Z M 27 46 C 26.449219 46 26 46.449219 26 47 C 26 47.550781 26.449219 48 27 48 C 27.550781 48 28 47.550781 28 47 C 28 46.449219 27.550781 46 27 46 Z M 50 46 C 49.449219 46 49 46.449219 49 47 C 49 47.550781 49.449219 48 50 48 C 50.550781 48 51 47.550781 51 47 C 51 46.449219 50.550781 46 50 46 Z M 56 46 C 55.449219 46 55 46.449219 55 47 C 55 47.550781 55.449219 48 56 48 C 56.550781 48 57 47.550781 57 47 C 57 46.449219 56.550781 46 56 46 Z M 24 49 C 23.449219 49 23 49.449219 23 50 C 23 50.550781 23.449219 51 24 51 C 24.550781 51 25 50.550781 25 50 C 25 49.449219 24.550781 49 24 49 Z M 30 49 C 29.449219 49 29 49.449219 29 50 C 29 50.550781 29.449219 51 30 51 C 30.550781 51 31 50.550781 31 50 C 31 49.449219 30.550781 49 30 49 Z M 53 49 C 52.449219 49 52 49.449219 52 50 C 52 50.550781 52.449219 51 53 51 C 53.550781 51 54 50.550781 54 50 C 54 49.449219 53.550781 49 53 49 Z M 21 52 C 20.449219 52 20 52.449219 20 53 C 20 53.550781 20.449219 54 21 54 C 21.550781 54 22 53.550781 22 53 C 22 52.449219 21.550781 52 21 52 Z M 56 52 C 55.449219 52 55 52.449219 55 53 C 55 53.550781 55.449219 54 56 54 C 56.550781 54 57 53.550781 57 53 C 57 52.449219 56.550781 52 56 52 Z M 18 55 C 17.449219 55 17 55.449219 17 56 C 17 56.550781 17.449219 57 18 57 C 18.550781 57 19 56.550781 19 56 C 19 55.449219 18.550781 55 18 55 Z M 59 55 C 58.449219 55 58 55.449219 58 56 C 58 56.550781 58.449219 57 59 57 C 59.550781 57 60 56.550781 60 56 C 60 55.449219 59.550781 55 59 55 Z M 65 55 C 64.449219 55 64 55.449219 64 56 C 64 56.550781 64.449219 57 65 57 C 65.550781 57 66 56.550781 66 56 C 66 55.449219 65.550781 55 65 55 Z M 9 58 C 8.449219 58 8 58.449219 8 59 C 8 59.550781 8.449219 60 9 60 C 9.550781 60 10 59.550781 10 59 C 10 58.449219 9.550781 58 9 58 Z M 15 58 C 14.449219 58 14 58.449219 14 59 C 14 59.550781 14.449219 60 15 60 C 15.550781 60 16 59.550781 16 59 C 16 58.449219 15.550781 58 15 58 Z M 68 58 C 67.449219 58 67 58.449219 67 59 C 67 59.550781 67.449219 60 68 60 C 68.550781 60 69 59.550781 69 59 C 69 58.449219 68.550781 58 68 58 Z " fill="#000033"/>
</g>
</svg>
