<?xml version="1.0" encoding="UTF-8"?>
<svg xmlns="http://www.w3.org/2000/svg" xmlns:xlink="http://www.w3.org/1999/xlink" viewBox="0 0 64 64" version="1.1" fill="#33ccff" width="100px" height="100px">
<g id="surface1" fill="#33ccff">
<path style=" " d="M 36 0.257813 C 35.851563 0.257813 35.699219 0.273438 35.550781 0.308594 L 12.324219 5.667969 C 10.957031 5.984375 10 7.1875 10 8.59375 L 10 55.40625 C 10 56.8125 10.957031 58.015625 12.324219 58.332031 L 35.550781 63.691406 C 35.699219 63.726563 35.855469 63.742188 36.003906 63.742188 C 36.449219 63.742188 36.886719 63.59375 37.246094 63.308594 C 37.722656 62.925781 38 62.355469 38 61.742188 L 38 56 L 51 56 C 52.652344 56 54 54.652344 54 53 L 54 11 C 54 9.347656 52.652344 8 51 8 L 38 8 L 38 2.257813 C 38 1.644531 37.722656 1.074219 37.246094 0.691406 C 36.886719 0.40625 36.449219 0.253906 36 0.257813 Z M 36 2.257813 L 36 54.984375 C 36.003906 54.992188 36 54.996094 36 55 C 36 55.003906 36.003906 55.007813 36.003906 55.015625 L 36.003906 61.742188 L 17.8125 57.546875 C 17.921875 57.386719 18 57.207031 18 57 C 18 56.449219 17.554688 56 17 56 L 15 56 C 14.558594 56 14.199219 56.289063 14.0625 56.683594 L 12.773438 56.382813 C 12.316406 56.277344 12 55.875 12 55.40625 L 12 8.59375 C 12 8.125 12.316406 7.722656 12.773438 7.617188 L 14.0625 7.320313 C 14.199219 7.710938 14.5625 8 15 8 L 17 8 C 17.554688 8 18 7.550781 18 7 C 18 6.792969 17.921875 6.613281 17.8125 6.453125 Z M 38 10 L 51 10 C 51.550781 10 52 10.449219 52 11 L 52 53 C 52 53.550781 51.550781 54 51 54 L 38 54 Z M 15 11 C 14.445313 11 14 11.449219 14 12 C 14 12.550781 14.445313 13 15 13 L 17 13 C 17.554688 13 18 12.550781 18 12 C 18 11.449219 17.554688 11 17 11 Z M 15 16 C 14.445313 16 14 16.449219 14 17 C 14 17.550781 14.445313 18 15 18 L 17 18 C 17.554688 18 18 17.550781 18 17 C 18 16.449219 17.554688 16 17 16 Z M 15 21 C 14.445313 21 14 21.449219 14 22 C 14 22.550781 14.445313 23 15 23 L 17 23 C 17.554688 23 18 22.550781 18 22 C 18 21.449219 17.554688 21 17 21 Z M 15 26 C 14.445313 26 14 26.449219 14 27 C 14 27.550781 14.445313 28 15 28 L 17 28 C 17.554688 28 18 27.550781 18 27 C 18 26.449219 17.554688 26 17 26 Z M 31 27 C 29.347656 27 28 28.347656 28 30 L 28 34 C 28 35.652344 29.347656 37 31 37 C 31.554688 37 32 36.550781 32 36 C 32 35.449219 31.554688 35 31 35 C 30.449219 35 30 34.550781 30 34 L 30 30 C 30 29.449219 30.449219 29 31 29 C 31.554688 29 32 28.550781 32 28 C 32 27.449219 31.554688 27 31 27 Z M 15 31 C 14.445313 31 14 31.449219 14 32 C 14 32.550781 14.445313 33 15 33 L 17 33 C 17.554688 33 18 32.550781 18 32 C 18 31.449219 17.554688 31 17 31 Z M 15 36 C 14.445313 36 14 36.449219 14 37 C 14 37.550781 14.445313 38 15 38 L 17 38 C 17.554688 38 18 37.550781 18 37 C 18 36.449219 17.554688 36 17 36 Z M 15 41 C 14.445313 41 14 41.449219 14 42 C 14 42.550781 14.445313 43 15 43 L 17 43 C 17.554688 43 18 42.550781 18 42 C 18 41.449219 17.554688 41 17 41 Z M 15 46 C 14.445313 46 14 46.449219 14 47 C 14 47.550781 14.445313 48 15 48 L 17 48 C 17.554688 48 18 47.550781 18 47 C 18 46.449219 17.554688 46 17 46 Z M 15 51 C 14.445313 51 14 51.449219 14 52 C 14 52.550781 14.445313 53 15 53 L 17 53 C 17.554688 53 18 52.550781 18 52 C 18 51.449219 17.554688 51 17 51 Z " fill="#33ccff"/>
</g>
</svg>
