<?xml version="1.0" encoding="UTF-8"?>
<svg xmlns="http://www.w3.org/2000/svg" xmlns:xlink="http://www.w3.org/1999/xlink" viewBox="0 0 64 64" version="1.1" fill="#33ccff" width="100px" height="100px">
<g id="surface1" fill="#33ccff">
<path style=" " d="M 3 10 C 1.300781 10 0 11.300781 0 13 L 0 41 C 0 42.699219 1.300781 44 3 44 L 4 44 L 4 45 C 4 46.699219 5.300781 48 7 48 L 8 48 L 8 49 C 8 50.699219 9.300781 52 11 52 L 61 52 C 62.699219 52 64 50.699219 64 49 L 64 21 C 64 19.300781 62.699219 18 61 18 L 60 18 L 60 17 C 60 15.300781 58.699219 14 57 14 L 56 14 L 56 13 C 56 11.300781 54.699219 10 53 10 Z M 3 12 L 53 12 C 53.601563 12 54 12.398438 54 13 L 54 41 C 54 41.601563 53.601563 42 53 42 L 3 42 C 2.398438 42 2 41.601563 2 41 L 2 13 C 2 12.398438 2.398438 12 3 12 Z M 15 14 C 14.398438 14 14 14.398438 14 15 L 14 17 C 14 17.601563 14.398438 18 15 18 C 15.601563 18 16 17.601563 16 17 L 16 15 C 16 14.398438 15.601563 14 15 14 Z M 20 14 C 19.398438 14 19 14.398438 19 15 L 19 17 C 19 17.601563 19.398438 18 20 18 C 20.601563 18 21 17.601563 21 17 L 21 15 C 21 14.398438 20.601563 14 20 14 Z M 25 14 C 24.398438 14 24 14.398438 24 15 L 24 17.097656 C 21 18.898438 19 22.601563 19 27 C 19 31.398438 21.101563 35.101563 24 36.902344 L 24 39 C 24 39.601563 24.398438 40 25 40 C 25.601563 40 26 39.601563 26 39 L 26 37.699219 C 26.601563 37.898438 27.300781 38 28 38 C 28.699219 38 29.398438 37.898438 30 37.699219 L 30 39 C 30 39.601563 30.398438 40 31 40 C 31.601563 40 32 39.601563 32 39 L 32 36.902344 C 35 35.101563 37 31.398438 37 27 C 37 22.601563 34.898438 18.898438 32 17.097656 L 32 15 C 32 14.398438 31.601563 14 31 14 C 30.398438 14 30 14.398438 30 15 L 30 16.300781 C 29.398438 16.101563 28.699219 16 28 16 C 27.300781 16 26.601563 16.101563 26 16.300781 L 26 15 C 26 14.398438 25.601563 14 25 14 Z M 36 14 C 35.398438 14 35 14.398438 35 15 L 35 17 C 35 17.601563 35.398438 18 36 18 C 36.601563 18 37 17.601563 37 17 L 37 15 C 37 14.398438 36.601563 14 36 14 Z M 41 14 C 40.398438 14 40 14.398438 40 15 L 40 17 C 40 17.601563 40.398438 18 41 18 C 41.601563 18 42 17.601563 42 17 L 42 15 C 42 14.398438 41.601563 14 41 14 Z M 5 15 C 4.398438 15 4 15.398438 4 16 C 4 16.601563 4.398438 17 5 17 L 10 17 C 10.601563 17 11 16.601563 11 16 C 11 15.398438 10.601563 15 10 15 Z M 46 15 C 45.398438 15 45 15.398438 45 16 C 45 16.601563 45.398438 17 46 17 L 51 17 C 51.601563 17 52 16.601563 52 16 C 52 15.398438 51.601563 15 51 15 Z M 56 16 L 57 16 C 57.601563 16 58 16.398438 58 17 L 58 45 C 58 45.601563 57.601563 46 57 46 L 7 46 C 6.398438 46 6 45.601563 6 45 L 6 44 L 53 44 C 54.699219 44 56 42.699219 56 41 Z M 28 17.800781 C 31.898438 17.800781 35.097656 21.898438 35.097656 27 C 35.097656 32.101563 31.898438 36.199219 28 36.199219 C 24.101563 36.199219 20.902344 32.101563 20.902344 27 C 20.902344 21.898438 24.101563 17.800781 28 17.800781 Z M 60 20 L 61 20 C 61.601563 20 62 20.398438 62 21 L 62 49 C 62 49.601563 61.601563 50 61 50 L 11 50 C 10.398438 50 10 49.601563 10 49 L 10 48 L 57 48 C 58.699219 48 60 46.699219 60 45 Z M 10 24 C 7.800781 24 6 25.800781 6 28 C 6 30.199219 7.800781 32 10 32 C 12.199219 32 14 30.199219 14 28 C 14 25.800781 12.199219 24 10 24 Z M 46 24 C 43.800781 24 42 25.800781 42 28 C 42 30.199219 43.800781 32 46 32 C 48.199219 32 50 30.199219 50 28 C 50 25.800781 48.199219 24 46 24 Z M 10 25.800781 C 11.199219 25.800781 12.199219 26.800781 12.199219 28 C 12.199219 29.199219 11.199219 30.199219 10 30.199219 C 8.800781 30.199219 7.800781 29.199219 7.800781 28 C 7.800781 26.800781 8.800781 25.800781 10 25.800781 Z M 46 25.800781 C 47.199219 25.800781 48.199219 26.800781 48.199219 28 C 48.199219 29.199219 47.199219 30.199219 46 30.199219 C 44.800781 30.199219 43.800781 29.199219 43.800781 28 C 43.800781 26.800781 44.800781 25.800781 46 25.800781 Z M 15 36 C 14.398438 36 14 36.398438 14 37 L 14 39 C 14 39.601563 14.398438 40 15 40 C 15.601563 40 16 39.601563 16 39 L 16 37 C 16 36.398438 15.601563 36 15 36 Z M 20 36 C 19.398438 36 19 36.398438 19 37 L 19 39 C 19 39.601563 19.398438 40 20 40 C 20.601563 40 21 39.601563 21 39 L 21 37 C 21 36.398438 20.601563 36 20 36 Z M 36 36 C 35.398438 36 35 36.398438 35 37 L 35 39 C 35 39.601563 35.398438 40 36 40 C 36.601563 40 37 39.601563 37 39 L 37 37 C 37 36.398438 36.601563 36 36 36 Z M 41 36 C 40.398438 36 40 36.398438 40 37 L 40 39 C 40 39.601563 40.398438 40 41 40 C 41.601563 40 42 39.601563 42 39 L 42 37 C 42 36.398438 41.601563 36 41 36 Z M 5 37 C 4.398438 37 4 37.398438 4 38 C 4 38.601563 4.398438 39 5 39 L 10 39 C 10.601563 39 11 38.601563 11 38 C 11 37.398438 10.601563 37 10 37 Z M 46 37 C 45.398438 37 45 37.398438 45 38 C 45 38.601563 45.398438 39 46 39 L 51 39 C 51.601563 39 52 38.601563 52 38 C 52 37.398438 51.601563 37 51 37 Z " fill="#33ccff"/>
</g>
</svg>
