<?xml version="1.0" encoding="UTF-8" standalone="no"?>
<svg
   xmlns:dc="http://purl.org/dc/elements/1.1/"
   xmlns:cc="http://creativecommons.org/ns#"
   xmlns:rdf="http://www.w3.org/1999/02/22-rdf-syntax-ns#"
   xmlns:svg="http://www.w3.org/2000/svg"
   xmlns="http://www.w3.org/2000/svg"
   xmlns:sodipodi="http://sodipodi.sourceforge.net/DTD/sodipodi-0.dtd"
   xmlns:inkscape="http://www.inkscape.org/namespaces/inkscape"
   viewBox="0 0 64 64"
   version="1.1"
   fill="#33ccff"
   width="100px"
   height="100px"
   id="svg176"
   sodipodi:docname="icons8-mind-map (3).svg"
   inkscape:version="0.92.0 r15299">
  <metadata
     id="metadata182">
    <rdf:RDF>
      <cc:Work
         rdf:about="">
        <dc:format>image/svg+xml</dc:format>
        <dc:type
           rdf:resource="http://purl.org/dc/dcmitype/StillImage" />
        <dc:title></dc:title>
      </cc:Work>
    </rdf:RDF>
  </metadata>
  <defs
     id="defs180" />
  <sodipodi:namedview
     pagecolor="#ffffff"
     bordercolor="#666666"
     borderopacity="1"
     objecttolerance="10"
     gridtolerance="10"
     guidetolerance="10"
     inkscape:pageopacity="0"
     inkscape:pageshadow="2"
     inkscape:window-width="1920"
     inkscape:window-height="1017"
     id="namedview178"
     showgrid="false"
     inkscape:zoom="2.36"
     inkscape:cx="50"
     inkscape:cy="50"
     inkscape:window-x="-8"
     inkscape:window-y="-8"
     inkscape:window-maximized="1"
     inkscape:current-layer="svg176" />
  <g
     id="g164"
     transform="matrix(0.51267452,0,0,0.52563262,3.9489432,6.9385025)">
    <path
       d="m 74.617,72.963 c -6.858,0 -12.453,5.594 -12.453,12.453 0,6.859 5.595,12.454 12.453,12.454 6.859,0 12.454,-5.595 12.454,-12.454 0,-6.859 -5.594,-12.453 -12.454,-12.453 z m 0,21.349 c -4.934,0 -8.895,-3.961 -8.895,-8.895 0,-4.934 3.961,-8.895 8.895,-8.895 4.935,0 8.896,3.961 8.896,8.895 0,4.934 -3.961,8.895 -8.896,8.895 z"
       id="path10"
       inkscape:connector-curvature="0"
       style="fill:#47c8f5" />
    <path
       d="m 74.73,89.052 c -0.976,0 -1.771,0.795 -1.771,1.77 0,0.976 0.795,1.771 1.771,1.771 0.975,0 1.77,-0.795 1.77,-1.771 0,-0.975 -0.795,-1.77 -1.77,-1.77 z"
       id="path12"
       inkscape:connector-curvature="0"
       style="fill:#47c8f5" />
    <path
       d="m 74.73,78.24 c -0.976,0 -1.771,0.795 -1.771,1.77 0,0.976 0.795,1.771 1.771,1.771 0.975,0 1.77,-0.795 1.77,-1.771 0,-0.974 -0.795,-1.77 -1.77,-1.77 z"
       id="path14"
       inkscape:connector-curvature="0"
       style="fill:#47c8f5" />
    <path
       d="m 78.253,85.417 c 0,0.976 0.795,1.771 1.771,1.771 0.975,0 1.771,-0.795 1.771,-1.771 0,-0.975 -0.796,-1.771 -1.771,-1.771 -0.976,0 -1.771,0.795 -1.771,1.771 z"
       id="path16"
       inkscape:connector-curvature="0"
       style="fill:#47c8f5" />
    <path
       d="m 67.441,85.417 c 0,0.976 0.795,1.771 1.771,1.771 0.976,0 1.771,-0.795 1.771,-1.771 0,-0.975 -0.795,-1.771 -1.771,-1.771 -0.976,0 -1.771,0.795 -1.771,1.771 z"
       id="path18"
       inkscape:connector-curvature="0"
       style="fill:#47c8f5" />
    <path
       d="m 95.6,36.46 c -6.859,0 -12.454,5.594 -12.454,12.454 0,6.859 5.595,12.453 12.454,12.453 6.858,0 12.453,-5.594 12.453,-12.453 0,-6.86 -5.595,-12.454 -12.453,-12.454 z m 0,21.349 c -4.935,0 -8.896,-3.961 -8.896,-8.895 0,-4.934 3.961,-8.896 8.896,-8.896 4.934,0 8.895,3.961 8.895,8.896 -0.001,4.933 -3.962,8.895 -8.895,8.895 z"
       id="path20"
       inkscape:connector-curvature="0"
       style="fill:#47c8f5" />
    <path
       d="m 95.712,52.548 c -0.976,0 -1.771,0.795 -1.771,1.771 0,0.976 0.795,1.771 1.771,1.771 0.975,0 1.771,-0.795 1.771,-1.771 -0.001,-0.975 -0.796,-1.771 -1.771,-1.771 z"
       id="path22"
       inkscape:connector-curvature="0"
       style="fill:#47c8f5" />
    <path
       d="m 95.712,41.737 c -0.976,0 -1.771,0.795 -1.771,1.77 0,0.976 0.795,1.771 1.771,1.771 0.975,0 1.771,-0.795 1.771,-1.771 -0.001,-0.975 -0.796,-1.77 -1.771,-1.77 z"
       id="path24"
       inkscape:connector-curvature="0"
       style="fill:#47c8f5" />
    <path
       d="m 99.234,48.914 c 0,0.975 0.795,1.771 1.771,1.771 0.976,0 1.771,-0.795 1.771,-1.771 0,-0.976 -0.795,-1.771 -1.771,-1.771 -0.976,0 -1.771,0.795 -1.771,1.771 z"
       id="path26"
       inkscape:connector-curvature="0"
       style="fill:#47c8f5" />
    <path
       d="m 88.423,48.914 c 0,0.975 0.796,1.771 1.771,1.771 0.976,0 1.771,-0.795 1.771,-1.771 0,-0.976 -0.795,-1.771 -1.771,-1.771 -0.975,0 -1.771,0.795 -1.771,1.771 z"
       id="path28"
       inkscape:connector-curvature="0"
       style="fill:#47c8f5" />
    <path
       d="M 12.453,36.46 C 5.594,36.46 0,42.054 0,48.914 c 0,6.859 5.594,12.453 12.453,12.453 6.859,0 12.453,-5.594 12.453,-12.453 0,-6.86 -5.594,-12.454 -12.453,-12.454 z m 0,21.349 c -4.934,0 -8.896,-3.961 -8.896,-8.895 0,-4.934 3.962,-8.896 8.896,-8.896 4.935,0 8.896,3.961 8.896,8.896 0,4.933 -3.961,8.895 -8.896,8.895 z"
       id="path30"
       inkscape:connector-curvature="0"
       style="fill:#47c8f5" />
    <path
       d="m 12.565,52.548 c -0.975,0 -1.771,0.795 -1.771,1.771 0,0.976 0.796,1.771 1.771,1.771 0.976,0 1.771,-0.795 1.771,-1.771 0,-0.975 -0.795,-1.771 -1.771,-1.771 z"
       id="path32"
       inkscape:connector-curvature="0"
       style="fill:#47c8f5" />
    <path
       d="m 12.565,41.737 c -0.975,0 -1.771,0.795 -1.771,1.77 0,0.976 0.796,1.771 1.771,1.771 0.976,0 1.771,-0.795 1.771,-1.771 0,-0.975 -0.795,-1.77 -1.771,-1.77 z"
       id="path34"
       inkscape:connector-curvature="0"
       style="fill:#47c8f5" />
    <path
       d="m 16.089,48.914 c 0,0.975 0.795,1.771 1.77,1.771 0.976,0 1.771,-0.795 1.771,-1.771 0,-0.976 -0.796,-1.771 -1.771,-1.771 -0.975,0 -1.77,0.795 -1.77,1.771 z"
       id="path36"
       inkscape:connector-curvature="0"
       style="fill:#47c8f5" />
    <path
       d="m 5.277,48.914 c 0,0.975 0.795,1.771 1.77,1.771 0.976,0 1.771,-0.795 1.771,-1.771 0,-0.976 -0.796,-1.771 -1.771,-1.771 -0.975,0 -1.77,0.795 -1.77,1.771 z"
       id="path38"
       inkscape:connector-curvature="0"
       style="fill:#47c8f5" />
    <path
       d="m 33.158,72.963 c -6.858,0 -12.453,5.594 -12.453,12.453 0,6.859 5.595,12.454 12.453,12.454 6.859,0 12.454,-5.595 12.454,-12.454 0,-6.859 -5.594,-12.453 -12.454,-12.453 z m 0,21.349 c -4.934,0 -8.895,-3.961 -8.895,-8.895 0,-4.934 3.961,-8.895 8.895,-8.895 4.935,0 8.896,3.961 8.896,8.895 0,4.934 -3.961,8.895 -8.896,8.895 z"
       id="path40"
       inkscape:connector-curvature="0"
       style="fill:#47c8f5" />
    <path
       d="m 33.271,89.052 c -0.976,0 -1.771,0.795 -1.771,1.77 0,0.976 0.795,1.771 1.771,1.771 0.975,0 1.771,-0.795 1.771,-1.771 0,-0.975 -0.796,-1.77 -1.771,-1.77 z"
       id="path42"
       inkscape:connector-curvature="0"
       style="fill:#47c8f5" />
    <path
       d="m 33.271,78.24 c -0.976,0 -1.771,0.795 -1.771,1.77 0,0.976 0.795,1.771 1.771,1.771 0.975,0 1.771,-0.795 1.771,-1.771 0,-0.974 -0.796,-1.77 -1.771,-1.77 z"
       id="path44"
       inkscape:connector-curvature="0"
       style="fill:#47c8f5" />
    <path
       d="m 36.794,85.417 c 0,0.976 0.795,1.771 1.771,1.771 0.976,0 1.771,-0.795 1.771,-1.771 0,-0.975 -0.795,-1.771 -1.771,-1.771 -0.976,0 -1.771,0.795 -1.771,1.771 z"
       id="path46"
       inkscape:connector-curvature="0"
       style="fill:#47c8f5" />
    <path
       d="m 25.982,85.417 c 0,0.976 0.795,1.771 1.771,1.771 0.976,0 1.771,-0.795 1.771,-1.771 0,-0.975 -0.795,-1.771 -1.771,-1.771 -0.976,0 -1.771,0.795 -1.771,1.771 z"
       id="path48"
       inkscape:connector-curvature="0"
       style="fill:#47c8f5" />
    <path
       d="m 33.824,0 c -6.859,0 -12.453,5.594 -12.453,12.453 0,6.859 5.594,12.454 12.453,12.454 6.859,0 12.453,-5.595 12.453,-12.454 C 46.277,5.594 40.684,0 33.824,0 Z m 0,21.349 c -4.935,0 -8.896,-3.961 -8.896,-8.896 0,-4.935 3.961,-8.895 8.896,-8.895 4.934,0 8.896,3.961 8.896,8.895 0,4.934 -3.962,8.896 -8.896,8.896 z"
       id="path50"
       inkscape:connector-curvature="0"
       style="fill:#47c8f5" />
    <path
       d="m 33.937,16.088 c -0.976,0 -1.771,0.795 -1.771,1.771 0,0.976 0.795,1.771 1.771,1.771 0.976,0 1.771,-0.795 1.771,-1.771 0,-0.976 -0.796,-1.771 -1.771,-1.771 z"
       id="path52"
       inkscape:connector-curvature="0"
       style="fill:#47c8f5" />
    <path
       d="m 33.937,5.277 c -0.976,0 -1.771,0.795 -1.771,1.771 0,0.976 0.795,1.771 1.771,1.771 0.976,0 1.771,-0.795 1.771,-1.771 C 35.707,6.072 34.912,5.277 33.937,5.277 Z"
       id="path54"
       inkscape:connector-curvature="0"
       style="fill:#47c8f5" />
    <path
       d="m 37.459,12.453 c 0,0.976 0.796,1.771 1.771,1.771 0.976,0 1.771,-0.795 1.771,-1.771 0,-0.975 -0.795,-1.771 -1.771,-1.771 -0.975,10e-4 -1.771,0.796 -1.771,1.771 z"
       id="path56"
       inkscape:connector-curvature="0"
       style="fill:#47c8f5" />
    <path
       d="m 26.647,12.453 c 0,0.976 0.796,1.771 1.771,1.771 0.976,0 1.771,-0.795 1.771,-1.771 0,-0.975 -0.795,-1.771 -1.771,-1.771 -0.975,10e-4 -1.771,0.796 -1.771,1.771 z"
       id="path58"
       inkscape:connector-curvature="0"
       style="fill:#47c8f5" />
    <path
       d="m 74.617,0 c -6.858,0 -12.453,5.594 -12.453,12.453 0,6.859 5.595,12.454 12.453,12.454 6.859,0 12.454,-5.595 12.454,-12.454 C 87.071,5.594 81.477,0 74.617,0 Z m 0,21.349 c -4.934,0 -8.895,-3.961 -8.895,-8.896 0,-4.935 3.961,-8.895 8.895,-8.895 4.935,0 8.896,3.961 8.896,8.895 0,4.934 -3.961,8.896 -8.896,8.896 z"
       id="path60"
       inkscape:connector-curvature="0"
       style="fill:#47c8f5" />
    <path
       d="m 74.73,16.088 c -0.976,0 -1.771,0.795 -1.771,1.771 0,0.976 0.795,1.771 1.771,1.771 0.975,0 1.77,-0.795 1.77,-1.771 0,-0.976 -0.795,-1.771 -1.77,-1.771 z"
       id="path62"
       inkscape:connector-curvature="0"
       style="fill:#47c8f5" />
    <path
       d="m 74.73,5.277 c -0.976,0 -1.771,0.795 -1.771,1.771 0,0.976 0.795,1.771 1.771,1.771 0.975,0 1.77,-0.795 1.77,-1.771 0,-0.976 -0.795,-1.771 -1.77,-1.771 z"
       id="path64"
       inkscape:connector-curvature="0"
       style="fill:#47c8f5" />
    <path
       d="m 78.253,12.453 c 0,0.976 0.795,1.771 1.771,1.771 0.975,0 1.771,-0.795 1.771,-1.771 0,-0.975 -0.796,-1.771 -1.771,-1.771 -0.976,10e-4 -1.771,0.796 -1.771,1.771 z"
       id="path66"
       inkscape:connector-curvature="0"
       style="fill:#47c8f5" />
    <path
       d="m 67.441,12.453 c 0,0.976 0.795,1.771 1.771,1.771 0.976,0 1.771,-0.795 1.771,-1.771 0,-0.975 -0.795,-1.771 -1.771,-1.771 -0.976,0 -1.771,0.796 -1.771,1.771 z"
       id="path68"
       inkscape:connector-curvature="0"
       style="fill:#47c8f5" />
    <polygon
       points="16.427,61.109 16.955,59.184 18.888,58.679 20.29,60.1 19.762,62.026 17.829,62.53 "
       id="polygon70"
       style="fill:#47c8f5" />
    <polygon
       points="19.645,66.166 20.174,64.24 22.106,63.735 23.509,65.156 22.98,67.082 21.048,67.587 "
       id="polygon72"
       style="fill:#47c8f5" />
    <polygon
       points="22.619,70.875 23.148,68.949 25.081,68.444 26.484,69.866 25.955,71.792 24.022,72.296 "
       id="polygon74"
       style="fill:#47c8f5" />
    <polygon
       points="25.877,75.18 26.406,73.254 28.338,72.75 29.741,74.17 29.212,76.096 27.28,76.601 "
       id="polygon76"
       style="fill:#47c8f5" />
    <polygon
       points="78.253,23.353 78.781,21.427 80.714,20.922 82.117,22.343 81.589,24.269 79.655,24.773 "
       id="polygon78"
       style="fill:#47c8f5" />
    <polygon
       points="81.472,28.409 82,26.483 83.933,25.979 85.336,27.399 84.807,29.325 82.874,29.83 "
       id="polygon80"
       style="fill:#47c8f5" />
    <polygon
       points="84.446,33.118 84.976,31.192 86.908,30.688 88.311,32.109 87.781,34.035 85.85,34.539 "
       id="polygon82"
       style="fill:#47c8f5" />
    <polygon
       points="87.704,37.423 88.232,35.497 90.165,34.993 91.567,36.414 91.039,38.339 89.106,38.844 "
       id="polygon84"
       style="fill:#47c8f5" />
    <polygon
       points="81.25,75.876 79.278,76.19 78.02,74.639 78.734,72.773 80.707,72.46 81.965,74.011 "
       id="polygon86"
       style="fill:#47c8f5" />
    <polygon
       points="84.524,70.855 82.553,71.169 81.294,69.618 82.008,67.753 83.98,67.439 85.238,68.99 "
       id="polygon88"
       style="fill:#47c8f5" />
    <polygon
       points="87.584,66.2 85.611,66.514 84.354,64.963 85.067,63.098 87.04,62.784 88.298,64.335 "
       id="polygon90"
       style="fill:#47c8f5" />
    <polygon
       points="45.563,22.473 43.591,22.787 42.333,21.236 43.048,19.371 45.02,19.057 46.277,20.608 "
       id="polygon92"
       style="fill:#47c8f5" />
    <polygon
       points="49.86,25.106 47.888,25.421 46.63,23.87 47.345,22.005 49.316,21.691 50.574,23.242 "
       id="polygon94"
       style="fill:#47c8f5" />
    <polygon
       points="55.152,27.856 53.18,28.171 51.922,26.62 52.636,24.755 54.608,24.441 55.866,25.992 "
       id="polygon96"
       style="fill:#47c8f5" />
    <polygon
       points="59.698,30.851 57.727,31.165 56.468,29.613 57.183,27.749 59.154,27.435 60.413,28.986 "
       id="polygon98"
       style="fill:#47c8f5" />
    <polygon
       points="69.679,36.876 67.706,37.19 66.448,35.639 67.162,33.774 69.134,33.46 70.393,35.011 "
       id="polygon100"
       style="fill:#47c8f5" />
    <polygon
       points="64.729,33.832 62.757,34.146 61.499,32.594 62.214,30.73 64.186,30.416 65.443,31.967 "
       id="polygon102"
       style="fill:#47c8f5" />
    <polygon
       points="74.668,39.759 72.695,40.073 71.438,38.522 72.152,36.658 74.124,36.343 75.383,37.895 "
       id="polygon104"
       style="fill:#47c8f5" />
    <polygon
       points="79.73,42.26 77.759,42.574 76.5,41.022 77.215,39.158 79.188,38.844 80.445,40.395 "
       id="polygon106"
       style="fill:#47c8f5" />
    <polygon
       points="84.404,45.391 82.432,45.705 81.174,44.154 81.888,42.29 83.86,41.975 85.118,43.526 "
       id="polygon108"
       style="fill:#47c8f5" />
    <polygon
       points="67.205,24.079 66.891,22.106 68.442,20.849 70.307,21.563 70.62,23.535 69.069,24.793 "
       id="polygon110"
       style="fill:#47c8f5" />
    <polygon
       points="64.571,28.376 64.257,26.404 65.808,25.146 67.673,25.86 67.987,27.832 66.437,29.09 "
       id="polygon112"
       style="fill:#47c8f5" />
    <polygon
       points="58.827,38.547 58.513,36.574 60.064,35.316 61.929,36.03 62.243,38.002 60.692,39.261 "
       id="polygon114"
       style="fill:#47c8f5" />
    <polygon
       points="34.662,27.397 32.808,26.657 32.521,24.68 34.09,23.444 35.944,24.185 36.23,26.161 "
       id="polygon116"
       style="fill:#47c8f5" />
    <polygon
       points="34.662,32.664 32.808,31.923 32.521,29.947 34.09,28.711 35.944,29.452 36.23,31.428 "
       id="polygon118"
       style="fill:#47c8f5" />
    <polygon
       points="34.662,38.32 32.808,37.579 32.521,35.603 34.09,34.367 35.944,35.107 36.23,37.084 "
       id="polygon120"
       style="fill:#47c8f5" />
    <polygon
       points="34.662,43.952 32.808,43.211 32.521,41.234 34.09,39.999 35.944,40.739 36.23,42.716 "
       id="polygon122"
       style="fill:#47c8f5" />
    <polygon
       points="34.662,49.658 32.808,48.917 32.521,46.941 34.09,45.705 35.944,46.446 36.23,48.422 "
       id="polygon124"
       style="fill:#47c8f5" />
    <polygon
       points="34.662,55.349 32.808,54.608 32.521,52.631 34.09,51.396 35.944,52.136 36.23,54.112 "
       id="polygon126"
       style="fill:#47c8f5" />
    <polygon
       points="34.662,61.27 32.808,60.529 32.521,58.552 34.09,57.317 35.944,58.057 36.23,60.033 "
       id="polygon128"
       style="fill:#47c8f5" />
    <polygon
       points="34.662,66.625 32.808,65.885 32.521,63.908 34.09,62.673 35.944,63.413 36.23,65.39 "
       id="polygon130"
       style="fill:#47c8f5" />
    <polygon
       points="34.662,72.347 32.808,71.606 32.521,69.629 34.09,68.394 35.944,69.134 36.23,71.11 "
       id="polygon132"
       style="fill:#47c8f5" />
    <polygon
       points="26.495,54.684 24.911,55.9 23.066,55.136 22.805,53.157 24.389,51.94 26.234,52.704 "
       id="polygon134"
       style="fill:#47c8f5" />
    <polygon
       points="31.023,57.373 29.439,58.59 27.594,57.826 27.333,55.847 28.917,54.63 30.762,55.394 "
       id="polygon136"
       style="fill:#47c8f5" />
    <polygon
       points="40.729,63.138 39.144,64.354 37.299,63.591 37.037,61.611 38.621,60.395 40.467,61.158 "
       id="polygon138"
       style="fill:#47c8f5" />
    <polygon
       points="50.526,68.959 48.942,70.175 47.098,69.411 46.835,67.432 48.42,66.215 50.265,66.979 "
       id="polygon140"
       style="fill:#47c8f5" />
    <polygon
       points="55.617,71.983 54.032,73.199 52.188,72.435 51.926,70.456 53.51,69.239 55.355,70.003 "
       id="polygon142"
       style="fill:#47c8f5" />
    <polygon
       points="60.223,74.718 58.638,75.935 56.792,75.171 56.531,73.191 58.115,71.975 59.961,72.738 "
       id="polygon144"
       style="fill:#47c8f5" />
    <polygon
       points="65.141,77.64 63.556,78.857 61.711,78.093 61.449,76.113 63.033,74.897 64.879,75.66 "
       id="polygon146"
       style="fill:#47c8f5" />
    <polygon
       points="53.135,48.526 52.82,46.554 54.371,45.296 56.236,46.01 56.55,47.982 54.999,49.241 "
       id="polygon148"
       style="fill:#47c8f5" />
    <polygon
       points="56.179,43.578 55.864,41.605 57.416,40.347 59.281,41.062 59.595,43.034 58.044,44.292 "
       id="polygon150"
       style="fill:#47c8f5" />
    <polygon
       points="50.251,53.516 49.938,51.544 51.488,50.286 53.353,51 53.667,52.972 52.116,54.23 "
       id="polygon152"
       style="fill:#47c8f5" />
    <polygon
       points="47.751,58.579 47.437,56.606 48.988,55.349 50.853,56.063 51.166,58.035 49.615,59.293 "
       id="polygon154"
       style="fill:#47c8f5" />
    <polygon
       points="44.619,63.252 44.306,61.28 45.856,60.022 47.721,60.736 48.035,62.708 46.484,63.967 "
       id="polygon156"
       style="fill:#47c8f5" />
    <polygon
       points="41.985,67.856 41.672,65.884 43.223,64.626 45.088,65.34 45.401,67.312 43.851,68.571 "
       id="polygon158"
       style="fill:#47c8f5" />
    <polygon
       points="39.152,73.252 38.838,71.279 40.39,70.021 42.254,70.736 42.568,72.708 41.018,73.966 "
       id="polygon160"
       style="fill:#47c8f5" />
    <polygon
       points="90.157,61.455 88.185,61.769 86.927,60.218 87.642,58.354 89.613,58.039 90.872,59.59 "
       id="polygon162"
       style="fill:#47c8f5" />
  </g>
</svg>
