<?xml version="1.0" encoding="UTF-8"?>
<svg xmlns="http://www.w3.org/2000/svg" xmlns:xlink="http://www.w3.org/1999/xlink" viewBox="0 0 64 64" version="1.1" fill="#33ccff" width="100px" height="100px">
<g id="surface1" fill="#33ccff">
<path style=" " d="M 32 1.996094 C 31.339844 1.996094 30.679688 2.214844 30.125 2.65625 L 28.726563 3.777344 C 24.078125 7.496094 18.480469 9.671875 12.539063 10.066406 L 8.921875 10.308594 C 7.277344 10.417969 6.023438 11.84375 6.125 13.484375 L 6.8125 25.039063 C 7.597656 35.925781 12.570313 45.867188 20.804688 53.03125 L 30.03125 61.050781 C 30.59375 61.539063 31.296875 61.78125 32 61.78125 C 32.703125 61.78125 33.40625 61.539063 33.96875 61.050781 L 43.195313 53.03125 C 51.429688 45.867188 56.398438 35.925781 57.1875 25.027344 L 57.875 13.488281 C 57.976563 11.84375 56.722656 10.417969 55.078125 10.308594 L 51.460938 10.066406 C 45.519531 9.671875 39.921875 7.496094 35.273438 3.777344 L 33.875 2.65625 C 33.320313 2.214844 32.660156 1.996094 32 1.996094 Z M 32 4 C 32.21875 4 32.4375 4.074219 32.625 4.21875 L 34.023438 5.339844 C 38.992188 9.316406 44.976563 11.640625 51.328125 12.0625 L 54.945313 12.304688 C 55.492188 12.339844 55.914063 12.816406 55.878906 13.367188 L 55.1875 24.894531 C 54.664063 32.183594 52.160156 39.019531 48 44.808594 L 48 44.4375 C 48 43.886719 47.554688 43.4375 47 43.4375 C 46.445313 43.4375 46 43.886719 46 44.4375 L 46 46.4375 C 46 46.683594 46.097656 46.894531 46.242188 47.070313 C 44.917969 48.648438 43.46875 50.140625 41.882813 51.519531 L 32.65625 59.542969 C 32.285156 59.867188 31.714844 59.867188 31.34375 59.542969 L 22.117188 51.519531 C 20.53125 50.144531 19.082031 48.648438 17.757813 47.070313 C 17.902344 46.894531 18 46.679688 18 46.4375 L 18 44.4375 C 18 43.882813 17.554688 43.4375 17 43.4375 C 16.445313 43.4375 16 43.882813 16 44.4375 L 16 44.804688 C 11.839844 39.019531 9.335938 32.183594 8.8125 24.90625 L 8.121094 13.363281 C 8.085938 12.816406 8.507813 12.339844 9.054688 12.304688 L 12.671875 12.0625 C 19.023438 11.636719 25.007813 9.3125 29.976563 5.335938 L 31.375 4.21875 C 31.5625 4.074219 31.777344 4 32 4 Z M 32 6.859375 C 31.601563 6.859375 31.195313 6.980469 30.855469 7.21875 L 28.28125 9.019531 C 23.945313 12.054688 18.859375 13.84375 13.578125 14.199219 L 12.933594 14.242188 C 12.378906 14.28125 11.964844 14.757813 12 15.308594 C 12.039063 15.835938 12.476563 16.238281 13 16.238281 C 13.019531 16.238281 13.042969 16.238281 13.066406 16.238281 L 13.714844 16.191406 C 19.359375 15.816406 24.792969 13.902344 29.429688 10.65625 L 32 8.859375 L 34.570313 10.65625 C 37.34375 12.601563 40.398438 14.066406 43.648438 15.015625 C 44.179688 15.171875 44.734375 14.867188 44.890625 14.335938 C 45.042969 13.804688 44.738281 13.253906 44.207031 13.097656 C 41.171875 12.210938 38.3125 10.835938 35.71875 9.019531 L 33.148438 7.222656 C 32.804688 6.980469 32.402344 6.859375 32 6.859375 Z M 48.136719 13.953125 C 47.582031 13.867188 47.082031 14.253906 47 14.800781 C 46.921875 15.347656 47.296875 15.855469 47.84375 15.933594 C 48.652344 16.050781 49.472656 16.136719 50.28125 16.191406 L 50.875 16.234375 C 50.894531 16.234375 50.917969 16.234375 50.941406 16.234375 C 51.460938 16.234375 51.902344 15.832031 51.9375 15.300781 C 51.976563 14.75 51.5625 14.273438 51.011719 14.234375 L 50.417969 14.199219 C 49.65625 14.144531 48.890625 14.066406 48.136719 13.953125 Z M 32.070313 18 C 31.621094 17.996094 31.167969 18.039063 30.71875 18.136719 C 28.445313 18.609375 26.601563 20.457031 26.128906 22.734375 C 25.667969 24.964844 26.472656 27.234375 28.207031 28.628906 L 26.371094 35.484375 C 26.210938 36.085938 26.335938 36.722656 26.71875 37.21875 C 27.097656 37.714844 27.675781 38 28.300781 38 L 35.699219 38 C 36.324219 38 36.902344 37.714844 37.28125 37.21875 C 37.664063 36.722656 37.792969 36.085938 37.628906 35.484375 L 35.777344 28.648438 C 37.1875 27.503906 38 25.808594 38 24 C 38 22.183594 37.191406 20.488281 35.78125 19.34375 C 34.722656 18.484375 33.417969 18.019531 32.070313 18 Z M 32.011719 20 C 32.925781 20 33.796875 20.304688 34.519531 20.894531 C 35.460938 21.65625 36 22.789063 36 24 C 36 25.203125 35.460938 26.328125 34.515625 27.09375 C 33.914063 27.582031 33.660156 28.386719 33.859375 29.144531 L 35.699219 36 L 28.300781 36 L 30.140625 29.144531 C 30.34375 28.386719 30.085938 27.582031 29.484375 27.097656 C 28.296875 26.136719 27.777344 24.65625 28.089844 23.140625 C 28.402344 21.632813 29.621094 20.40625 31.125 20.09375 C 31.421875 20.03125 31.71875 20 32.011719 20 Z M 22 43.4375 C 21.445313 43.4375 21 43.882813 21 44.4375 L 21 46.4375 C 21 46.992188 21.445313 47.4375 22 47.4375 C 22.554688 47.4375 23 46.992188 23 46.4375 L 23 44.4375 C 23 43.886719 22.554688 43.4375 22 43.4375 Z M 27 43.4375 C 26.445313 43.4375 26 43.882813 26 44.4375 L 26 46.4375 C 26 46.992188 26.445313 47.4375 27 47.4375 C 27.554688 47.4375 28 46.992188 28 46.4375 L 28 44.4375 C 28 43.886719 27.554688 43.4375 27 43.4375 Z M 32 43.4375 C 31.445313 43.4375 31 43.882813 31 44.4375 L 31 46.4375 C 31 46.992188 31.445313 47.4375 32 47.4375 C 32.554688 47.4375 33 46.992188 33 46.4375 L 33 44.4375 C 33 43.886719 32.554688 43.4375 32 43.4375 Z M 37 43.4375 C 36.445313 43.4375 36 43.882813 36 44.4375 L 36 46.4375 C 36 46.992188 36.445313 47.4375 37 47.4375 C 37.554688 47.4375 38 46.992188 38 46.4375 L 38 44.4375 C 38 43.886719 37.554688 43.4375 37 43.4375 Z M 42 43.4375 C 41.445313 43.4375 41 43.882813 41 44.4375 L 41 46.4375 C 41 46.992188 41.445313 47.4375 42 47.4375 C 42.554688 47.4375 43 46.992188 43 46.4375 L 43 44.4375 C 43 43.886719 42.554688 43.4375 42 43.4375 Z " fill="#33ccff"/>
</g>
</svg>
