<?xml version="1.0" encoding="UTF-8"?>
<svg xmlns="http://www.w3.org/2000/svg" xmlns:xlink="http://www.w3.org/1999/xlink" viewBox="0 0 80 80" version="1.1" fill="#33ccff" width="100px" height="100px">
<g id="surface1" fill="#33ccff">
<path style=" " d="M 57 10.597656 L 57 17 L 9 17 L 9 19 L 57 19 L 57 25.402344 L 58.503906 24.519531 L 69.636719 18 Z M 59 14.089844 L 65.679688 18 L 59 21.910156 Z M 9 31.75 L 9 71 L 5 71 L 5 73 L 75 73 L 75 71 L 71 71 L 71 31.75 L 61 31.75 L 61 71 L 58 71 L 58 31.75 L 48 31.75 L 48 71 L 45 71 L 45 31.75 L 35 31.75 L 35 71 L 32 71 L 32 31.75 L 22 31.75 L 22 71 L 19 71 L 19 31.75 Z M 11 33.75 L 17 33.75 L 17 35 C 16.449219 35 16 35.449219 16 36 C 16 36.550781 16.449219 37 17 37 L 17 41 C 16.449219 41 16 41.449219 16 42 C 16 42.550781 16.449219 43 17 43 L 17 47 C 16.449219 47 16 47.449219 16 48 C 16 48.550781 16.449219 49 17 49 L 17 53 C 16.449219 53 16 53.449219 16 54 C 16 54.550781 16.449219 55 17 55 L 17 59 C 16.449219 59 16 59.449219 16 60 C 16 60.550781 16.449219 61 17 61 L 17 65 C 16.449219 65 16 65.449219 16 66 C 16 66.550781 16.449219 67 17 67 L 17 71 L 11 71 L 11 67 C 11.550781 67 12 66.550781 12 66 C 12 65.449219 11.550781 65 11 65 L 11 61 C 11.550781 61 12 60.550781 12 60 C 12 59.449219 11.550781 59 11 59 L 11 55 C 11.550781 55 12 54.550781 12 54 C 12 53.449219 11.550781 53 11 53 L 11 49 C 11.550781 49 12 48.550781 12 48 C 12 47.449219 11.550781 47 11 47 L 11 43 C 11.550781 43 12 42.550781 12 42 C 12 41.449219 11.550781 41 11 41 L 11 37 C 11.550781 37 12 36.550781 12 36 C 12 35.449219 11.550781 35 11 35 Z M 24 33.75 L 30 33.75 L 30 71 L 24 71 Z M 37 33.75 L 43 33.75 L 43 35 C 42.449219 35 42 35.449219 42 36 C 42 36.550781 42.449219 37 43 37 L 43 41 C 42.449219 41 42 41.449219 42 42 C 42 42.550781 42.449219 43 43 43 L 43 47 C 42.449219 47 42 47.449219 42 48 C 42 48.550781 42.449219 49 43 49 L 43 53 C 42.449219 53 42 53.449219 42 54 C 42 54.550781 42.449219 55 43 55 L 43 59 C 42.449219 59 42 59.449219 42 60 C 42 60.550781 42.449219 61 43 61 L 43 65 C 42.449219 65 42 65.449219 42 66 C 42 66.550781 42.449219 67 43 67 L 43 71 L 37 71 L 37 67 C 37.550781 67 38 66.550781 38 66 C 38 65.449219 37.550781 65 37 65 L 37 61 C 37.550781 61 38 60.550781 38 60 C 38 59.449219 37.550781 59 37 59 L 37 55 C 37.550781 55 38 54.550781 38 54 C 38 53.449219 37.550781 53 37 53 L 37 49 C 37.550781 49 38 48.550781 38 48 C 38 47.449219 37.550781 47 37 47 L 37 43 C 37.550781 43 38 42.550781 38 42 C 38 41.449219 37.550781 41 37 41 L 37 37 C 37.550781 37 38 36.550781 38 36 C 38 35.449219 37.550781 35 37 35 Z M 50 33.75 L 56 33.75 L 56 71 L 50 71 Z M 63 33.75 L 69 33.75 L 69 35 C 68.449219 35 68 35.449219 68 36 C 68 36.550781 68.449219 37 69 37 L 69 41 C 68.449219 41 68 41.449219 68 42 C 68 42.550781 68.449219 43 69 43 L 69 47 C 68.449219 47 68 47.449219 68 48 C 68 48.550781 68.449219 49 69 49 L 69 53 C 68.449219 53 68 53.449219 68 54 C 68 54.550781 68.449219 55 69 55 L 69 59 C 68.449219 59 68 59.449219 68 60 C 68 60.550781 68.449219 61 69 61 L 69 65 C 68.449219 65 68 65.449219 68 66 C 68 66.550781 68.449219 67 69 67 L 69 71 L 63 71 L 63 67 C 63.550781 67 64 66.550781 64 66 C 64 65.449219 63.550781 65 63 65 L 63 61 C 63.550781 61 64 60.550781 64 60 C 64 59.449219 63.550781 59 63 59 L 63 55 C 63.550781 55 64 54.550781 64 54 C 64 53.449219 63.550781 53 63 53 L 63 49 C 63.550781 49 64 48.550781 64 48 C 64 47.449219 63.550781 47 63 47 L 63 43 C 63.550781 43 64 42.550781 64 42 C 64 41.449219 63.550781 41 63 41 L 63 37 C 63.550781 37 64 36.550781 64 36 C 64 35.449219 63.550781 35 63 35 Z M 14 38 C 13.449219 38 13 38.449219 13 39 C 13 39.550781 13.449219 40 14 40 C 14.550781 40 15 39.550781 15 39 C 15 38.449219 14.550781 38 14 38 Z M 40 38 C 39.449219 38 39 38.449219 39 39 C 39 39.550781 39.449219 40 40 40 C 40.550781 40 41 39.550781 41 39 C 41 38.449219 40.550781 38 40 38 Z M 66 38 C 65.449219 38 65 38.449219 65 39 C 65 39.550781 65.449219 40 66 40 C 66.550781 40 67 39.550781 67 39 C 67 38.449219 66.550781 38 66 38 Z M 14 44 C 13.449219 44 13 44.449219 13 45 C 13 45.550781 13.449219 46 14 46 C 14.550781 46 15 45.550781 15 45 C 15 44.449219 14.550781 44 14 44 Z M 40 44 C 39.449219 44 39 44.449219 39 45 C 39 45.550781 39.449219 46 40 46 C 40.550781 46 41 45.550781 41 45 C 41 44.449219 40.550781 44 40 44 Z M 66 44 C 65.449219 44 65 44.449219 65 45 C 65 45.550781 65.449219 46 66 46 C 66.550781 46 67 45.550781 67 45 C 67 44.449219 66.550781 44 66 44 Z M 14 50 C 13.449219 50 13 50.449219 13 51 C 13 51.550781 13.449219 52 14 52 C 14.550781 52 15 51.550781 15 51 C 15 50.449219 14.550781 50 14 50 Z M 40 50 C 39.449219 50 39 50.449219 39 51 C 39 51.550781 39.449219 52 40 52 C 40.550781 52 41 51.550781 41 51 C 41 50.449219 40.550781 50 40 50 Z M 66 50 C 65.449219 50 65 50.449219 65 51 C 65 51.550781 65.449219 52 66 52 C 66.550781 52 67 51.550781 67 51 C 67 50.449219 66.550781 50 66 50 Z M 14 56 C 13.449219 56 13 56.449219 13 57 C 13 57.550781 13.449219 58 14 58 C 14.550781 58 15 57.550781 15 57 C 15 56.449219 14.550781 56 14 56 Z M 40 56 C 39.449219 56 39 56.449219 39 57 C 39 57.550781 39.449219 58 40 58 C 40.550781 58 41 57.550781 41 57 C 41 56.449219 40.550781 56 40 56 Z M 66 56 C 65.449219 56 65 56.449219 65 57 C 65 57.550781 65.449219 58 66 58 C 66.550781 58 67 57.550781 67 57 C 67 56.449219 66.550781 56 66 56 Z M 14 62 C 13.449219 62 13 62.449219 13 63 C 13 63.550781 13.449219 64 14 64 C 14.550781 64 15 63.550781 15 63 C 15 62.449219 14.550781 62 14 62 Z M 40 62 C 39.449219 62 39 62.449219 39 63 C 39 63.550781 39.449219 64 40 64 C 40.550781 64 41 63.550781 41 63 C 41 62.449219 40.550781 62 40 62 Z M 66 62 C 65.449219 62 65 62.449219 65 63 C 65 63.550781 65.449219 64 66 64 C 66.550781 64 67 63.550781 67 63 C 67 62.449219 66.550781 62 66 62 Z M 14 68 C 13.449219 68 13 68.449219 13 69 C 13 69.550781 13.449219 70 14 70 C 14.550781 70 15 69.550781 15 69 C 15 68.449219 14.550781 68 14 68 Z M 40 68 C 39.449219 68 39 68.449219 39 69 C 39 69.550781 39.449219 70 40 70 C 40.550781 70 41 69.550781 41 69 C 41 68.449219 40.550781 68 40 68 Z M 66 68 C 65.449219 68 65 68.449219 65 69 C 65 69.550781 65.449219 70 66 70 C 66.550781 70 67 69.550781 67 69 C 67 68.449219 66.550781 68 66 68 Z " fill="#33ccff"/>
</g>
</svg>
