<?xml version="1.0" encoding="UTF-8" standalone="no"?>
<!-- Generator: Adobe Illustrator 16.0.0, SVG Export Plug-In . SVG Version: 6.00 Build 0)  -->

<svg
   xmlns:dc="http://purl.org/dc/elements/1.1/"
   xmlns:cc="http://creativecommons.org/ns#"
   xmlns:rdf="http://www.w3.org/1999/02/22-rdf-syntax-ns#"
   xmlns:svg="http://www.w3.org/2000/svg"
   xmlns="http://www.w3.org/2000/svg"
   xmlns:sodipodi="http://sodipodi.sourceforge.net/DTD/sodipodi-0.dtd"
   xmlns:inkscape="http://www.inkscape.org/namespaces/inkscape"
   version="1.1"
   id="Layer_1"
   x="0px"
   y="0px"
   width="168.996px"
   height="171.431px"
   viewBox="244.951 745.925 168.996 171.431"
   enable-background="new 244.951 745.925 168.996 171.431"
   xml:space="preserve"
   inkscape:version="0.91 r13725"
   sodipodi:docname="Diagram 2-Mobile without Text.svg"><metadata
     id="metadata107"><rdf:RDF><cc:Work
         rdf:about=""><dc:format>image/svg+xml</dc:format><dc:type
           rdf:resource="http://purl.org/dc/dcmitype/StillImage" /><dc:title></dc:title></cc:Work></rdf:RDF></metadata><defs
     id="defs105" /><sodipodi:namedview
     pagecolor="#3347b2"
     bordercolor="#666666"
     borderopacity="1"
     objecttolerance="10"
     gridtolerance="10"
     guidetolerance="10"
     inkscape:pageopacity="0"
     inkscape:pageshadow="2"
     inkscape:window-width="922"
     inkscape:window-height="480"
     id="namedview103"
     showgrid="false"
     inkscape:zoom="1.3766472"
     inkscape:cx="84.498001"
     inkscape:cy="85.7155"
     inkscape:window-x="0"
     inkscape:window-y="33"
     inkscape:window-maximized="0"
     inkscape:current-layer="Layer_1" /><rect
     x="352.895"
     y="747"
     fill="none"
     width="56.631"
     height="19.445"
     id="rect3" /><g
     transform="matrix(1 0 0 1 356.4258 754.2998)"
     style=""
     id="text5"><path
       d="m 2.8613281,0 -2.7832031,-7.2900391 1.0302734,0 2.3095704,6.1376954 2.3144531,-6.1376954 1.0253906,0 L 3.9794922,0 2.8613281,0 Z"
       style="font-size:10px;font-family:Raleway-Bold;fill:#ffffff"
       id="path4271" /><path
       d="m 11.674805,-2.9589844 0,0.4394531 -4.1308597,0 q 0.058594,0.9277344 0.5566406,1.4160157 0.5029297,0.48339841 1.3964844,0.48339841 0.5175777,0 1.0009767,-0.12695312 0.488281,-0.12695313 0.966797,-0.38085939 l 0,0.84960939 q -0.483399,0.20507812 -0.991211,0.3125 -0.5078127,0.10742187 -1.0302736,0.10742187 -1.3085938,0 -2.0751953,-0.76171875 -0.7617188,-0.76171871 -0.7617188,-2.06054691 0,-1.3427734 0.7226563,-2.1289062 0.727539,-0.7910156 1.9580078,-0.7910156 1.1035156,0 1.7431636,0.7128906 0.644532,0.7080078 0.644532,1.9287109 z m -0.898438,-0.2636719 q -0.0098,-0.7373046 -0.415039,-1.1767578 -0.4003905,-0.4394531 -1.064453,-0.4394531 -0.7519531,0 -1.2060547,0.4248047 -0.4492187,0.4248047 -0.5175781,1.1962891 l 3.2031248,-0.00488 z"
       style="font-size:10px;font-family:Raleway-Bold;fill:#ffffff"
       id="path4273" /><path
       d="m 16.318359,-4.6289062 q -0.151367,-0.087891 -0.332031,-0.1269532 -0.175781,-0.043945 -0.390625,-0.043945 -0.761719,0 -1.171875,0.4980469 -0.405273,0.493164 -0.405273,1.4208984 l 0,2.8808594 -0.903321,0 0,-5.46875 0.903321,0 0,0.8496094 q 0.283203,-0.4980469 0.737304,-0.7373047 0.454102,-0.2441406 1.103516,-0.2441406 0.09277,0 0.205078,0.014648 0.112305,0.00977 0.249024,0.03418 l 0.0049,0.9228516 z"
       style="font-size:10px;font-family:Raleway-Bold;fill:#ffffff"
       id="path4275" /><path
       d="m 21.733398,-2.9589844 0,0.4394531 -4.130859,0 q 0.05859,0.9277344 0.556641,1.4160157 0.502929,0.48339841 1.396484,0.48339841 0.517578,0 1.000977,-0.12695312 0.488281,-0.12695313 0.966796,-0.38085939 l 0,0.84960939 q -0.483398,0.20507812 -0.99121,0.3125 -0.507813,0.10742187 -1.030274,0.10742187 -1.308594,0 -2.075195,-0.76171875 -0.761719,-0.76171871 -0.761719,-2.06054691 0,-1.3427734 0.722656,-2.1289062 0.727539,-0.7910156 1.958008,-0.7910156 1.103516,0 1.743164,0.7128906 0.644531,0.7080078 0.644531,1.9287109 z m -0.898437,-0.2636719 q -0.0098,-0.7373046 -0.415039,-1.1767578 -0.400391,-0.4394531 -1.064453,-0.4394531 -0.751953,0 -1.206055,0.4248047 -0.449219,0.4248047 -0.517578,1.1962891 l 3.203125,-0.00488 z"
       style="font-size:10px;font-family:Raleway-Bold;fill:#ffffff"
       id="path4277" /><path
       d="m 26.694336,-5.3076172 0,0.8496094 q -0.380859,-0.1953125 -0.791016,-0.2929688 -0.410156,-0.097656 -0.849609,-0.097656 -0.668945,0 -1.005859,0.2050781 -0.332032,0.2050781 -0.332032,0.6152344 0,0.3125 0.239258,0.493164 0.239258,0.1757813 0.961914,0.3369141 l 0.307617,0.068359 q 0.957032,0.2050781 1.357422,0.5810547 0.405274,0.3710937 0.405274,1.040039 0,0.76171879 -0.605469,1.20605472 -0.600586,0.44433594 -1.655274,0.44433594 -0.439453,0 -0.917968,-0.08789062 -0.473633,-0.08300782 -1.000977,-0.25390625 l 0,-0.92773439 q 0.498047,0.25878907 0.981445,0.39062501 0.483399,0.12695313 0.957032,0.12695313 0.634765,0 0.976562,-0.21484375 0.341797,-0.21972659 0.341797,-0.61523439 0,-0.3662109 -0.249023,-0.5615234 -0.244141,-0.1953125 -1.079102,-0.3759766 l -0.3125,-0.073242 q -0.834961,-0.1757812 -1.206055,-0.5371094 -0.371093,-0.3662109 -0.371093,-1.0009765 0,-0.7714844 0.546875,-1.1914063 0.546875,-0.4199218 1.552734,-0.4199218 0.498047,0 0.9375,0.073242 0.439453,0.073242 0.810547,0.2197265 z"
       style="font-size:10px;font-family:Raleway-Bold;fill:#ffffff"
       id="path4279" /><path
       d="m 34.604492,-6.6210937 q -1.074219,0 -1.708984,0.8007812 -0.629883,0.8007813 -0.629883,2.1826172 0,1.3769531 0.629883,2.1777344 0.634765,0.80078121 1.708984,0.80078121 1.074219,0 1.699219,-0.80078121 0.629883,-0.8007813 0.629883,-2.1777344 0,-1.3818359 -0.629883,-2.1826172 -0.625,-0.8007812 -1.699219,-0.8007812 z m 0,-0.8007813 q 1.533203,0 2.451172,1.0302734 0.917969,1.0253907 0.917969,2.7539063 0,1.7236328 -0.917969,2.75390624 -0.917969,1.02539062 -2.451172,1.02539062 -1.538086,0 -2.460937,-1.02539062 -0.917969,-1.02539064 -0.917969,-2.75390624 0,-1.7285156 0.917969,-2.7539063 0.922851,-1.0302734 2.460937,-1.0302734 z"
       style="font-size:10px;font-family:Raleway-Bold;fill:#ffffff"
       id="path4281" /><path
       d="M 44.023437,-3.3007813 44.023437,0 43.125,0 l 0,-3.2714844 q 0,-0.7763672 -0.302734,-1.1621093 -0.302735,-0.3857422 -0.908204,-0.3857422 -0.727539,0 -1.14746,0.4638672 -0.419922,0.4638671 -0.419922,1.2646484 l 0,3.0908203 -0.903321,0 0,-5.46875 0.903321,0 0,0.8496094 q 0.322265,-0.4931641 0.756836,-0.7373047 0.439453,-0.2441406 1.010742,-0.2441406 0.942383,0 1.425781,0.5859375 0.483398,0.5810547 0.483398,1.7138671 z"
       style="font-size:10px;font-family:Raleway-Bold;fill:#ffffff"
       id="path4283" /><path
       d="m 50.50293,-2.9589844 0,0.4394531 -4.13086,0 q 0.05859,0.9277344 0.556641,1.4160157 0.50293,0.48339841 1.396484,0.48339841 0.517578,0 1.000977,-0.12695312 0.488281,-0.12695313 0.966797,-0.38085939 l 0,0.84960939 q -0.483399,0.20507812 -0.991211,0.3125 -0.507813,0.10742187 -1.030274,0.10742187 -1.308593,0 -2.075195,-0.76171875 -0.761719,-0.76171871 -0.761719,-2.06054691 0,-1.3427734 0.722657,-2.1289062 0.727539,-0.7910156 1.958007,-0.7910156 1.103516,0 1.743164,0.7128906 0.644532,0.7080078 0.644532,1.9287109 z m -0.898438,-0.2636719 q -0.0098,-0.7373046 -0.415039,-1.1767578 -0.400391,-0.4394531 -1.064453,-0.4394531 -0.751953,0 -1.206055,0.4248047 -0.449218,0.4248047 -0.517578,1.1962891 l 3.203125,-0.00488 z"
       style="font-size:10px;font-family:Raleway-Bold;fill:#ffffff"
       id="path4285" /><path
       d="m 0.12177348,6.5185547 0,2.6708984 1.58203122,0 q 0.7958985,0 1.1767578,-0.3271484 0.3857422,-0.3320313 0.3857422,-1.0107422 0,-0.6835938 -0.3857422,-1.0058594 Q 2.4997032,6.5185547 1.7038047,6.5185547 l -1.58203122,0 z m 0,-2.9980469 0,2.1972656 1.45996092,0 q 0.7226563,0 1.0742188,-0.2685547 0.3564453,-0.2734375 0.3564453,-0.8300781 0,-0.5517578 -0.3564453,-0.8251953 Q 2.3043907,3.5205078 1.5817344,3.5205078 l -1.45996092,0 z m -0.98632812,-0.8105469 2.51953124,0 q 1.1279297,0 1.7382813,0.46875 0.6103515,0.46875 0.6103515,1.3330078 0,0.6689454 -0.3125,1.0644532 -0.3125,0.3955078 -0.9179687,0.493164 0.727539,0.15625 1.1279297,0.6542969 0.4052734,0.4931641 0.4052734,1.2353516 0,0.9765625 -0.6640625,1.508789 Q 2.9782188,10 1.7526329,10 l -2.61718754,0 0,-7.2900391 z"
       style="font-size:10px;font-family:Raleway-Bold;fill:#ffffff"
       id="path4287" /><path
       d="m 5.9518516,2.4023438 0.8984375,0 0,7.5976562 -0.8984375,0 0,-7.5976562 z"
       style="font-size:10px;font-family:Raleway-Bold;fill:#ffffff"
       id="path4289" /><path
       d="m 10.84443,5.1611328 q -0.722657,0 -1.1425784,0.5664063 -0.4199219,0.5615234 -0.4199219,1.5429687 0,0.9814453 0.4150391,1.5478516 0.4199222,0.5615234 1.1474612,0.5615234 0.717773,0 1.137695,-0.5664062 0.419922,-0.5664063 0.419922,-1.5429688 0,-0.9716797 -0.419922,-1.5380859 Q 11.562203,5.1611328 10.84443,5.1611328 Z m 0,-0.7617187 q 1.171875,0 1.84082,0.7617187 0.668945,0.7617188 0.668945,2.109375 0,1.3427735 -0.668945,2.109375 -0.668945,0.7617192 -1.84082,0.7617192 -1.1767581,0 -1.8457034,-0.7617192 -0.6640625,-0.7666015 -0.6640625,-2.109375 0,-1.3476562 0.6640625,-2.109375 Q 9.6676719,4.3994141 10.84443,4.3994141 Z"
       style="font-size:10px;font-family:Raleway-Bold;fill:#ffffff"
       id="path4291" /><path
       d="m 18.774117,4.7412109 0,0.8398438 q -0.380859,-0.209961 -0.766601,-0.3125 -0.38086,-0.1074219 -0.771485,-0.1074219 -0.874023,0 -1.357422,0.5566406 -0.483398,0.5517578 -0.483398,1.5527344 0,1.0009766 0.483398,1.5576172 0.483399,0.5517578 1.357422,0.5517578 0.390625,0 0.771485,-0.102539 0.385742,-0.1074219 0.766601,-0.3173829 l 0,0.8300782 q -0.375976,0.1757812 -0.78125,0.2636719 -0.40039,0.08789 -0.854492,0.08789 -1.235352,0 -1.962891,-0.7763676 -0.727539,-0.7763672 -0.727539,-2.0947266 0,-1.3378906 0.732422,-2.1044922 0.737305,-0.7666015 2.016602,-0.7666015 0.415039,0 0.810547,0.087891 0.395507,0.083008 0.766601,0.2539062 z"
       style="font-size:10px;font-family:Raleway-Bold;fill:#ffffff"
       id="path4293" /><path
       d="m 20.312203,2.4023438 0.90332,0 0,4.4873046 2.680665,-2.3583984 1.14746,0 -2.90039,2.5585937 L 25.165719,10 l -1.171875,0 -2.778321,-2.6708984 0,2.6708984 -0.90332,0 0,-7.5976562 z"
       style="font-size:10px;font-family:Raleway-Bold;fill:#ffffff"
       id="path4295" /><path
       d="m 30.082711,4.7412109 0,0.8398438 q -0.380859,-0.209961 -0.766602,-0.3125 -0.380859,-0.1074219 -0.771484,-0.1074219 -0.874023,0 -1.357422,0.5566406 -0.483398,0.5517578 -0.483398,1.5527344 0,1.0009766 0.483398,1.5576172 0.483399,0.5517578 1.357422,0.5517578 0.390625,0 0.771484,-0.102539 0.385743,-0.1074219 0.766602,-0.3173829 l 0,0.8300782 q -0.375977,0.1757812 -0.78125,0.2636719 -0.400391,0.08789 -0.854492,0.08789 -1.235352,0 -1.962891,-0.7763676 -0.727539,-0.7763672 -0.727539,-2.0947266 0,-1.3378906 0.732422,-2.1044922 0.737305,-0.7666015 2.016602,-0.7666015 0.415039,0 0.810546,0.087891 0.395508,0.083008 0.766602,0.2539062 z"
       style="font-size:10px;font-family:Raleway-Bold;fill:#ffffff"
       id="path4297" /><path
       d="m 36.200875,6.6992187 0,3.3007813 -0.898437,0 0,-3.2714844 q 0,-0.7763672 -0.302735,-1.1621094 -0.302734,-0.3857421 -0.908203,-0.3857421 -0.727539,0 -1.147461,0.4638671 -0.419922,0.4638672 -0.419922,1.2646485 l 0,3.0908203 -0.90332,0 0,-7.5976562 0.90332,0 0,2.9785156 q 0.322266,-0.4931641 0.756836,-0.7373047 0.439453,-0.2441406 1.010742,-0.2441406 0.942383,0 1.425782,0.5859375 0.483398,0.5810546 0.483398,1.7138671 z"
       style="font-size:10px;font-family:Raleway-Bold;fill:#ffffff"
       id="path4299" /><path
       d="m 40.487984,7.2509766 q -1.088867,0 -1.508789,0.2490234 -0.419922,0.2490234 -0.419922,0.8496094 0,0.4785156 0.3125,0.7617187 0.317383,0.2783203 0.859375,0.2783203 0.747071,0 1.19629,-0.5273437 0.454101,-0.5322266 0.454101,-1.4111328 l 0,-0.2001953 -0.893555,0 z m 1.791993,-0.3710938 0,3.1201172 -0.898438,0 0,-0.8300781 q -0.307617,0.4980469 -0.766601,0.7373047 -0.458985,0.2343754 -1.123047,0.2343754 -0.839844,0 -1.337891,-0.4687504 -0.493164,-0.4736328 -0.493164,-1.2646485 0,-0.9228515 0.615234,-1.3916015 0.620118,-0.46875 1.845703,-0.46875 l 1.259766,0 0,-0.087891 q 0,-0.6201172 -0.410156,-0.9570312 -0.405274,-0.3417969 -1.142578,-0.3417969 -0.46875,0 -0.913086,0.1123047 -0.444336,0.1123047 -0.854492,0.3369141 l 0,-0.8300782 q 0.493164,-0.1904297 0.957031,-0.2832031 0.463867,-0.097656 0.90332,-0.097656 1.186524,0 1.772461,0.6152343 0.585938,0.6152344 0.585938,1.8652344 z"
       style="font-size:10px;font-family:Raleway-Bold;fill:#ffffff"
       id="path4301" /><path
       d="m 44.135445,4.53125 0.898438,0 0,5.46875 -0.898438,0 0,-5.46875 z m 0,-2.1289062 0.898438,0 0,1.1376953 -0.898438,0 0,-1.1376953 z"
       style="font-size:10px;font-family:Raleway-Bold;fill:#ffffff"
       id="path4303" /><path
       d="m 51.454781,6.6992187 0,3.3007813 -0.898437,0 0,-3.2714844 q 0,-0.7763672 -0.302735,-1.1621094 -0.302734,-0.3857421 -0.908203,-0.3857421 -0.727539,0 -1.147461,0.4638671 -0.419922,0.4638672 -0.419922,1.2646485 l 0,3.0908203 -0.90332,0 0,-5.46875 0.90332,0 0,0.8496094 q 0.322266,-0.4931641 0.756836,-0.7373047 0.439454,-0.2441406 1.010743,-0.2441406 0.942382,0 1.425781,0.5859375 0.483398,0.5810546 0.483398,1.7138671 z"
       style="font-size:10px;font-family:Raleway-Bold;fill:#ffffff"
       id="path4305" /></g><rect
     x="254.815"
     y="752.633"
     fill="none"
     width="45.498"
     height="7.812"
     id="rect11" /><g
     transform="matrix(1 0 0 1 256.8594 759.9326)"
     style="font-size:10px;font-family:Raleway-Bold;fill:#f12545"
     id="text13"><path
       d="m 0.98144531,-7.2900391 0.98632809,0 0,7.2900391 -0.98632809,0 0,-7.2900391 z"
       style="font-size:10px;font-family:Raleway-Bold;fill:#f12545"
       id="path4342" /><path
       d="m 8.3007813,-7.0507812 0,0.961914 Q 7.7392578,-6.3574219 7.2412109,-6.4892578 6.7431641,-6.6210937 6.2792969,-6.6210937 q -0.8056641,0 -1.2451172,0.3125 -0.4345703,0.3125 -0.4345703,0.8886718 0,0.4833985 0.2880859,0.7324219 0.2929688,0.2441406 1.1035156,0.3955078 l 0.5957032,0.1220703 q 1.1035156,0.209961 1.6259765,0.7421875 0.5273438,0.5273438 0.5273438,1.4160156 0,1.05957036 -0.7128906,1.60644536 -0.7080079,0.546875 -2.0800782,0.546875 -0.5175781,0 -1.1035156,-0.1171875 -0.5810547,-0.1171875 -1.2060547,-0.34667969 l 0,-1.01562497 q 0.6005859,0.336914 1.1767578,0.50781247 0.5761719,0.17089844 1.1328125,0.17089844 0.8447266,0 1.303711,-0.33203125 0.4589843,-0.33203126 0.4589843,-0.94726566 0,-0.5371093 -0.3320312,-0.8398437 Q 7.0507812,-3.0810547 6.2988281,-3.2324219 L 5.6982422,-3.3496094 q -1.1035156,-0.2197265 -1.5966797,-0.6884765 -0.4931641,-0.46875 -0.4931641,-1.303711 0,-0.9667968 0.678711,-1.5234375 0.6835937,-0.5566406 1.8798828,-0.5566406 0.5126953,0 1.0449219,0.092773 0.5322265,0.092774 1.0888672,0.2783204 z"
       style="font-size:10px;font-family:Raleway-Bold;fill:#f12545"
       id="path4344" /><path
       d="m 14.648438,-7.0507812 0,0.961914 q -0.561524,-0.2685547 -1.059571,-0.4003906 -0.498047,-0.1318359 -0.961914,-0.1318359 -0.805664,0 -1.245117,0.3125 -0.43457,0.3125 -0.43457,0.8886718 0,0.4833985 0.288086,0.7324219 0.292968,0.2441406 1.103515,0.3955078 l 0.595703,0.1220703 q 1.103516,0.209961 1.625977,0.7421875 0.527344,0.5273438 0.527344,1.4160156 0,1.05957036 -0.712891,1.60644536 -0.708008,0.546875 -2.080078,0.546875 -0.517578,0 -1.103516,-0.1171875 -0.581054,-0.1171875 -1.2060544,-0.34667969 l 0,-1.01562497 q 0.6005864,0.336914 1.1767574,0.50781247 0.576172,0.17089844 1.132813,0.17089844 0.844726,0 1.303711,-0.33203125 0.458984,-0.33203126 0.458984,-0.94726566 0,-0.5371093 -0.332031,-0.8398437 -0.327148,-0.3027344 -1.079102,-0.4541016 l -0.600586,-0.1171875 q -1.103515,-0.2197265 -1.596679,-0.6884765 -0.4931643,-0.46875 -0.4931643,-1.303711 0,-0.9667968 0.6787113,-1.5234375 0.683593,-0.5566406 1.879882,-0.5566406 0.512696,0 1.044922,0.092773 0.532227,0.092774 1.088868,0.2783204 z"
       style="font-size:10px;font-family:Raleway-Bold;fill:#f12545"
       id="path4346" /><path
       d="m 16.513672,-7.2900391 0.991211,0 0,4.428711 q 0,1.171875 0.424804,1.6894531 0.424805,0.51269531 1.376954,0.51269531 0.947265,0 1.37207,-0.51269531 0.424805,-0.5175781 0.424805,-1.6894531 l 0,-4.428711 0.991211,0 0,4.5507813 q 0,1.4257812 -0.708008,2.1533203 -0.703125,0.72753906 -2.080078,0.72753906 -1.381836,0 -2.089844,-0.72753906 -0.703125,-0.7275391 -0.703125,-2.1533203 l 0,-4.5507813 z"
       style="font-size:10px;font-family:Raleway-Bold;fill:#f12545"
       id="path4348" /><path
       d="m 23.950195,-7.2900391 4.609375,0 0,0.8300782 -3.623047,0 0,2.1582031 3.47168,0 0,0.8300781 -3.47168,0 0,2.64160157 3.710938,0 0,0.83007813 -4.697266,0 0,-7.2900391 z"
       style="font-size:10px;font-family:Raleway-Bold;fill:#f12545"
       id="path4350" /><path
       d="m 33.735352,-3.4179688 q 0.317382,0.1074219 0.615234,0.4589844 0.302734,0.3515625 0.605469,0.9667969 L 35.957031,0 34.897461,0 33.964844,-1.8701172 q -0.361328,-0.7324219 -0.703125,-0.9716797 -0.336914,-0.2392578 -0.922852,-0.2392578 l -1.074219,0 0,3.0810547 -0.986328,0 0,-7.2900391 2.226563,0 q 1.25,0 1.865234,0.522461 0.615235,0.5224609 0.615235,1.5771484 0,0.6884766 -0.322266,1.1425781 -0.317383,0.4541016 -0.927734,0.6298828 z m -2.470704,-3.0615234 0,2.5878906 1.240235,0 q 0.71289,0 1.074219,-0.3271484 0.36621,-0.3320312 0.36621,-0.9716797 0,-0.6396484 -0.36621,-0.961914 -0.361329,-0.3271485 -1.074219,-0.3271485 l -1.240235,0 z"
       style="font-size:10px;font-family:Raleway-Bold;fill:#f12545"
       id="path4352" /><path
       d="m 41.601562,-7.0507812 0,0.961914 q -0.561523,-0.2685547 -1.05957,-0.4003906 -0.498047,-0.1318359 -0.961914,-0.1318359 -0.805664,0 -1.245117,0.3125 -0.43457,0.3125 -0.43457,0.8886718 0,0.4833985 0.288086,0.7324219 0.292968,0.2441406 1.103515,0.3955078 l 0.595703,0.1220703 q 1.103516,0.209961 1.625977,0.7421875 0.527344,0.5273438 0.527344,1.4160156 0,1.05957036 -0.712891,1.60644536 -0.708008,0.546875 -2.080078,0.546875 -0.517578,0 -1.103516,-0.1171875 -0.581054,-0.1171875 -1.206054,-0.34667969 l 0,-1.01562497 q 0.600585,0.336914 1.176757,0.50781247 0.576172,0.17089844 1.132813,0.17089844 0.844726,0 1.303711,-0.33203125 0.458984,-0.33203126 0.458984,-0.94726566 0,-0.5371093 -0.332031,-0.8398437 -0.327149,-0.3027344 -1.079102,-0.4541016 l -0.600586,-0.1171875 q -1.103515,-0.2197265 -1.596679,-0.6884765 -0.493164,-0.46875 -0.493164,-1.303711 0,-0.9667968 0.678711,-1.5234375 0.683593,-0.5566406 1.879882,-0.5566406 0.512696,0 1.044922,0.092773 0.532227,0.092774 1.088867,0.2783204 z"
       style="font-size:10px;font-family:Raleway-Bold;fill:#f12545"
       id="path4354" /></g><rect
     x="244.951"
     y="804.553"
     fill="none"
     width="65.226"
     height="10.809"
     id="rect15" /><g
     transform="matrix(1 0 0 1 253.9346 811.8525)"
     style="font-size:10px;font-family:Raleway-Bold;fill:#33ccff"
     id="text17"><path
       d="m 0.33203125,-7.2900391 0.99609375,0 1.5332031,6.1621094 1.5283203,-6.1621094 1.1083985,0 1.5332031,6.1621094 1.5283203,-6.1621094 1.0009766,0 L 7.7294922,0 6.4892578,0 4.9511719,-6.328125 3.3984375,0 2.1582031,0 0.33203125,-7.2900391 Z"
       style="font-size:10px;font-family:Raleway-Bold;fill:#33ccff"
       id="path4327" /><path
       d="m 12.753906,-6.3183594 -1.33789,3.6279297 2.680664,0 -1.342774,-3.6279297 z m -0.55664,-0.9716797 1.118164,0 L 16.09375,0 l -1.025391,0 -0.664062,-1.8701172 -3.286133,0 L 10.454102,0 9.4140625,0 12.197266,-7.2900391 Z"
       style="font-size:10px;font-family:Raleway-Bold;fill:#33ccff"
       id="path4329" /><path
       d="m 17.15332,-7.2900391 0.986328,0 0,6.45996097 3.549805,0 0,0.83007813 -4.536133,0 0,-7.2900391 z"
       style="font-size:10px;font-family:Raleway-Bold;fill:#33ccff"
       id="path4331" /><path
       d="m 22.719727,-7.2900391 0.986328,0 0,6.45996097 3.549804,0 0,0.83007813 -4.536132,0 0,-7.2900391 z"
       style="font-size:10px;font-family:Raleway-Bold;fill:#33ccff"
       id="path4333" /><path
       d="m 28.286133,-7.2900391 4.609375,0 0,0.8300782 -3.623047,0 0,2.1582031 3.47168,0 0,0.8300781 -3.47168,0 0,2.64160157 3.710937,0 0,0.83007813 -4.697265,0 0,-7.2900391 z"
       style="font-size:10px;font-family:Raleway-Bold;fill:#33ccff"
       id="path4335" /><path
       d="m 33.603516,-7.2900391 6.166992,0 0,0.8300782 -2.587891,0 0,6.4599609 -0.991211,0 0,-6.4599609 -2.58789,0 0,-0.8300782 z"
       style="font-size:10px;font-family:Raleway-Bold;fill:#33ccff"
       id="path4337" /><path
       d="m 45.097656,-7.0507812 0,0.961914 q -0.561523,-0.2685547 -1.05957,-0.4003906 -0.498047,-0.1318359 -0.961914,-0.1318359 -0.805664,0 -1.245117,0.3125 -0.434571,0.3125 -0.434571,0.8886718 0,0.4833985 0.288086,0.7324219 0.292969,0.2441406 1.103516,0.3955078 l 0.595703,0.1220703 q 1.103516,0.209961 1.625977,0.7421875 0.527343,0.5273438 0.527343,1.4160156 0,1.05957036 -0.71289,1.60644536 -0.708008,0.546875 -2.080078,0.546875 -0.517579,0 -1.103516,-0.1171875 -0.581055,-0.1171875 -1.206055,-0.34667969 l 0,-1.01562497 q 0.600586,0.336914 1.176758,0.50781247 0.576172,0.17089844 1.132813,0.17089844 0.844726,0 1.303711,-0.33203125 0.458984,-0.33203126 0.458984,-0.94726566 0,-0.5371093 -0.332031,-0.8398437 -0.327149,-0.3027344 -1.079102,-0.4541016 l -0.600586,-0.1171875 q -1.103515,-0.2197265 -1.59668,-0.6884765 -0.493164,-0.46875 -0.493164,-1.303711 0,-0.9667968 0.678711,-1.5234375 0.683594,-0.5566406 1.879883,-0.5566406 0.512695,0 1.044922,0.092773 0.532227,0.092774 1.088867,0.2783204 z"
       style="font-size:10px;font-family:Raleway-Bold;fill:#33ccff"
       id="path4339" /></g><rect
     x="250.386"
     y="867.4"
     fill="none"
     width="54.356"
     height="9.008"
     id="rect19" /><g
     transform="matrix(1 0 0 1 252.7295 874.7002)"
     style="font-size:10px;font-family:Raleway-Bold;fill:#ffffff"
     id="text21"><path
       d="m 2.8613281,0 -2.7832031,-7.2900391 1.0302734,0 2.3095704,6.1376954 2.3144531,-6.1376954 1.0253906,0 L 3.9794922,0 2.8613281,0 Z"
       style="font-size:10px;font-family:Raleway-Bold;fill:#ffffff"
       id="path4308" /><path
       d="m 7.8173828,-7.2900391 4.6093752,0 0,0.8300782 -3.6230471,0 0,2.1582031 3.4716801,0 0,0.8300781 -3.4716801,0 0,2.64160157 3.7109371,0 0,0.83007813 -4.6972652,0 0,-7.2900391 z"
       style="font-size:10px;font-family:Raleway-Bold;fill:#ffffff"
       id="path4310" /><path
       d="m 17.602539,-3.4179688 q 0.317383,0.1074219 0.615234,0.4589844 0.302735,0.3515625 0.605469,0.9667969 L 19.824219,0 18.764648,0 17.832031,-1.8701172 q -0.361328,-0.7324219 -0.703125,-0.9716797 -0.336914,-0.2392578 -0.922851,-0.2392578 l -1.074219,0 0,3.0810547 -0.986328,0 0,-7.2900391 2.226562,0 q 1.25,0 1.865235,0.522461 0.615234,0.5224609 0.615234,1.5771484 0,0.6884766 -0.322266,1.1425781 -0.317382,0.4541016 -0.927734,0.6298828 z m -2.470703,-3.0615234 0,2.5878906 1.240234,0 q 0.712891,0 1.074219,-0.3271484 0.366211,-0.3320312 0.366211,-0.9716797 0,-0.6396484 -0.366211,-0.961914 -0.361328,-0.3271485 -1.074219,-0.3271485 l -1.240234,0 z"
       style="font-size:10px;font-family:Raleway-Bold;fill:#ffffff"
       id="path4312" /><path
       d="m 21.098633,-7.2900391 0.986328,0 0,7.2900391 -0.986328,0 0,-7.2900391 z"
       style="font-size:10px;font-family:Raleway-Bold;fill:#ffffff"
       id="path4314" /><path
       d="m 24.047852,-7.2900391 4.189453,0 0,0.8300782 -3.203125,0 0,2.1484375 2.890625,0 0,0.8300781 -2.890625,0 0,3.4814453 -0.986328,0 0,-7.2900391 z"
       style="font-size:10px;font-family:Raleway-Bold;fill:#ffffff"
       id="path4316" /><path
       d="m 29.80957,-7.2900391 0.986328,0 0,7.2900391 -0.986328,0 0,-7.2900391 z"
       style="font-size:10px;font-family:Raleway-Bold;fill:#ffffff"
       id="path4318" /><path
       d="m 32.758789,-7.2900391 4.609375,0 0,0.8300782 -3.623047,0 0,2.1582031 3.47168,0 0,0.8300781 -3.47168,0 0,2.64160157 3.710938,0 0,0.83007813 -4.697266,0 0,-7.2900391 z"
       style="font-size:10px;font-family:Raleway-Bold;fill:#ffffff"
       id="path4320" /><path
       d="m 42.543945,-3.4179688 q 0.317383,0.1074219 0.615235,0.4589844 0.302734,0.3515625 0.605468,0.9667969 L 44.765625,0 43.706055,0 42.773437,-1.8701172 q -0.361328,-0.7324219 -0.703125,-0.9716797 -0.336914,-0.2392578 -0.922851,-0.2392578 l -1.074219,0 0,3.0810547 -0.986328,0 0,-7.2900391 2.226563,0 q 1.25,0 1.865234,0.522461 0.615234,0.5224609 0.615234,1.5771484 0,0.6884766 -0.322265,1.1425781 -0.317383,0.4541016 -0.927735,0.6298828 z m -2.470703,-3.0615234 0,2.5878906 1.240235,0 q 0.71289,0 1.074218,-0.3271484 0.366211,-0.3320312 0.366211,-0.9716797 0,-0.6396484 -0.366211,-0.961914 -0.361328,-0.3271485 -1.074218,-0.3271485 l -1.240235,0 z"
       style="font-size:10px;font-family:Raleway-Bold;fill:#ffffff"
       id="path4322" /><path
       d="m 50.410156,-7.0507812 0,0.961914 q -0.561523,-0.2685547 -1.05957,-0.4003906 -0.498047,-0.1318359 -0.961914,-0.1318359 -0.805664,0 -1.245117,0.3125 -0.434571,0.3125 -0.434571,0.8886718 0,0.4833985 0.288086,0.7324219 0.292969,0.2441406 1.103516,0.3955078 l 0.595703,0.1220703 q 1.103516,0.209961 1.625977,0.7421875 0.527343,0.5273438 0.527343,1.4160156 0,1.05957036 -0.71289,1.60644536 -0.708008,0.546875 -2.080078,0.546875 -0.517579,0 -1.103516,-0.1171875 -0.581055,-0.1171875 -1.206055,-0.34667969 l 0,-1.01562497 q 0.600586,0.336914 1.176758,0.50781247 0.576172,0.17089844 1.132813,0.17089844 0.844726,0 1.303711,-0.33203125 0.458984,-0.33203126 0.458984,-0.94726566 0,-0.5371093 -0.332031,-0.8398437 -0.327149,-0.3027344 -1.079102,-0.4541016 l -0.600586,-0.1171875 q -1.103515,-0.2197265 -1.59668,-0.6884765 -0.493164,-0.46875 -0.493164,-1.303711 0,-0.9667968 0.678711,-1.5234375 0.683594,-0.5566406 1.879883,-0.5566406 0.512695,0 1.044922,0.092773 0.532227,0.092774 1.088867,0.2783204 z"
       style="font-size:10px;font-family:Raleway-Bold;fill:#ffffff"
       id="path4324" /></g><path
     fill="none"
     stroke="#33CCFF"
     stroke-width="2"
     stroke-linejoin="round"
     stroke-miterlimit="10"
     d="M277.564,787.355v13.098"
     id="path23" /><path
     fill="none"
     stroke="#33CCFF"
     stroke-width="2"
     stroke-linejoin="round"
     stroke-miterlimit="10"
     d="M277.564,849.479v13.098"
     id="path25" /><polygon
     fill="#FFFFFF"
     points="307.444,885.084 312.504,884.924 309.338,883.113 307.283,880.025 "
     id="polygon27" /><polygon
     fill="#FFFFFF"
     points="307.444,769.656 312.504,769.816 309.338,771.625 307.283,774.713 "
     id="polygon29" /><path
     fill="none"
     stroke="#33CCFF"
     stroke-width="2"
     stroke-linejoin="round"
     stroke-miterlimit="10"
     d="M392.872,874.262  L392.872,874.262c0.764,0,1.382,0.619,1.382,1.383v5.529l0,0c0,0.365-0.146,0.717-0.404,0.977c-0.26,0.26-0.611,0.404-0.978,0.404  H368.73c-0.763,0-1.382-0.619-1.382-1.381v-5.529c0-0.764,0.619-1.383,1.382-1.383H392.872z"
     id="path31" /><path
     fill="none"
     stroke="#33CCFF"
     stroke-width="2"
     stroke-linejoin="round"
     stroke-miterlimit="10"
     d="M392.882,890.73  L392.882,890.73c0.763,0,1.382,0.619,1.382,1.383v5.527l0,0c0,0.367-0.146,0.719-0.405,0.979c-0.259,0.258-0.61,0.404-0.977,0.404  H368.74c-0.764,0-1.382-0.619-1.382-1.383v-5.527c0-0.764,0.618-1.383,1.382-1.383H392.882z"
     id="path33" /><path
     fill="none"
     stroke="#33CCFF"
     stroke-width="2"
     stroke-linejoin="round"
     stroke-miterlimit="10"
     d="M392.929,908.064  L392.929,908.064c0.763,0,1.382,0.617,1.382,1.381v5.529l0,0c0,0.365-0.146,0.717-0.405,0.977c-0.259,0.26-0.61,0.404-0.977,0.404  h-24.142c-0.764,0-1.382-0.619-1.382-1.381v-5.529c0-0.764,0.618-1.381,1.382-1.381H392.929z"
     id="path35" /><line
     fill="none"
     stroke="#33CCFF"
     stroke-width="2"
     stroke-linejoin="round"
     stroke-miterlimit="10"
     x1="380.886"
     y1="899.367"
     x2="380.877"
     y2="908.064"
     id="line37" /><line
     fill="none"
     stroke="#33CCFF"
     stroke-width="2"
     stroke-linejoin="round"
     stroke-miterlimit="10"
     x1="380.903"
     y1="882.555"
     x2="380.895"
     y2="890.73"
     id="line39" /><line
     fill="none"
     stroke="#33CCFF"
     stroke-width="2"
     stroke-linejoin="round"
     stroke-miterlimit="10"
     x1="380.924"
     y1="864.027"
     x2="380.913"
     y2="874.262"
     id="line41" /><path
     fill="#33CCFF"
     d="M392.79,785.396h-24.142c-1.313,0-2.382,1.068-2.382,2.383v5.527c0,1.314,1.068,2.383,2.382,2.383h0.56  c0.592-0.506,1.378-0.834,2.374-0.844c0.353-0.42,0.796-0.77,1.358-0.986c0.027-0.057,0.049-0.115,0.078-0.17h-4.37  c-0.211,0-0.382-0.172-0.382-0.383v-5.527c0-0.211,0.171-0.383,0.382-0.383h24.142c0.211,0,0.382,0.172,0.382,0.383v5.527  c0,0.104-0.04,0.199-0.11,0.27c-0.073,0.074-0.169,0.113-0.271,0.113h-4.865c0.21,0.201,0.38,0.432,0.533,0.674  c0.474,0.021,0.9,0.111,1.278,0.264c0.038,0.002,0.07,0.014,0.107,0.018c0.174-0.021,0.342-0.053,0.531-0.053  c1.16,0,2.039,0.43,2.657,1.074c0.544-0.055,1.05-0.283,1.443-0.674c0.449-0.451,0.696-1.049,0.696-1.686v-5.527  C395.172,786.465,394.104,785.396,392.79,785.396z"
     id="path43" /><path
     fill="#33CCFF"
     d="M393.438,854.771c-0.462,0.973-1.315,1.738-2.573,1.957h2.149c0.211,0,0.382,0.172,0.382,0.383v5.527  c0,0.102-0.04,0.199-0.112,0.271c-0.071,0.07-0.169,0.111-0.27,0.111h-24.142c-0.211,0-0.382-0.172-0.382-0.383v-5.527  c0-0.211,0.171-0.383,0.382-0.383h1.889c-1.231-0.213-2.077-0.951-2.546-1.896c-0.992,0.289-1.725,1.195-1.725,2.279v5.527  c0,1.314,1.068,2.383,2.382,2.383h24.142c0.627,0,1.24-0.254,1.684-0.697c0.45-0.451,0.698-1.049,0.698-1.686v-5.527  C395.396,855.943,394.549,854.973,393.438,854.771z"
     id="path45" /><path
     fill="none"
     stroke="#33CCFF"
     stroke-width="2"
     stroke-linejoin="round"
     stroke-miterlimit="10"
     d="M348.555,825.553  L348.555,825.553c0-17.781,14.415-32.197,32.196-32.197l0,0c8.539,0,16.729,3.393,22.767,9.432c6.038,6.037,9.43,14.227,9.43,22.766  l0,0c0,17.781-14.415,32.195-32.196,32.195l0,0C362.97,857.748,348.555,843.334,348.555,825.553z"
     id="path47" /><path
     fill="none"
     stroke="#33CCFF"
     stroke-width="0.75"
     stroke-linejoin="round"
     stroke-miterlimit="10"
     d="M353.862,818.242  L353.862,818.242c0-1.994,1.617-3.611,3.611-3.611h46.79c0.957,0,1.876,0.381,2.553,1.059c0.678,0.678,1.058,1.596,1.058,2.553  v14.443c0,1.994-1.616,3.611-3.61,3.611h-46.79l0,0c-1.994,0-3.611-1.617-3.611-3.611V818.242z"
     id="path49" /><rect
     x="355.762"
     y="819.031"
     fill="none"
     width="34.229"
     height="12.346"
     id="rect51" /><g
     transform="matrix(1 0 0 1 357.7129 824.1416)"
     style=""
     id="text53"><path
       d="m 0.68701172,-5.1030273 0.69042968,0 0,5.1030273 -0.69042968,0 0,-5.1030273 z"
       style="font-size:7px;font-family:Raleway-Medium;fill:#33ccff"
       id="path4236" /><path
       d="m 5.2431641,-3.2470703 0,-2.0712891 0.6289062,0 0,5.3183594 -0.6289062,0 0,-0.57421875 q -0.1982422,0.34179687 -0.5024414,0.50927734 -0.3007813,0.1640625 -0.7246094,0.1640625 -0.6938477,0 -1.1313477,-0.55371093 -0.434082,-0.55371096 -0.434082,-1.45605466 0,-0.9023438 0.434082,-1.4560547 0.4375,-0.553711 1.1313477,-0.553711 0.4238281,0 0.7246094,0.1674805 0.3041992,0.1640625 0.5024414,0.5058594 z m -2.1430664,1.3364258 q 0,0.6938476 0.2836914,1.090332 0.2871093,0.39306641 0.7861328,0.39306641 0.4990234,0 0.7861328,-0.39306641 0.2871094,-0.3964844 0.2871094,-1.090332 0,-0.6938477 -0.2871094,-1.0869141 -0.2871094,-0.3964844 -0.7861328,-0.3964844 -0.4990235,0 -0.7861328,0.3964844 -0.2836914,0.3930664 -0.2836914,1.0869141 z"
       style="font-size:7px;font-family:Raleway-Medium;fill:#33ccff"
       id="path4238" /><path
       d="m 10.441895,-2.0712891 0,0.3076172 -2.891602,0 q 0.041016,0.6494141 0.3896484,0.99121096 0.3520508,0.33837891 0.9775391,0.33837891 0.3623047,0 0.7006836,-0.0888672 0.3417968,-0.0888672 0.6767579,-0.26660156 l 0,0.59472656 q -0.338379,0.14355469 -0.6938478,0.21875 -0.3554687,0.07519531 -0.7211914,0.07519531 -0.9160156,0 -1.4526367,-0.53320312 Q 6.894043,-0.96728516 6.894043,-1.8764648 q 0,-0.9399415 0.5058593,-1.4902344 0.5092774,-0.553711 1.3706055,-0.553711 0.772461,0 1.2202149,0.4990235 0.4511723,0.4956054 0.4511723,1.3500976 z M 9.8129883,-2.2558594 Q 9.8061523,-2.7719727 9.5224609,-3.0795898 9.2421875,-3.387207 8.7773438,-3.387207 q -0.5263672,0 -0.8442383,0.2973632 -0.3144532,0.2973633 -0.3623047,0.8374024 l 2.2421875,-0.00342 z"
       style="font-size:7px;font-family:Raleway-Medium;fill:#33ccff"
       id="path4240" /><path
       d="m 14.65625,-2.3105469 0,2.3105469 -0.628906,0 0,-2.2900391 q 0,-0.543457 -0.211914,-0.8134765 -0.211914,-0.2700196 -0.635742,-0.2700196 -0.509278,0 -0.803223,0.3247071 -0.293945,0.324707 -0.293945,0.8852539 l 0,2.1635742 -0.632325,0 0,-3.828125 0.632325,0 0,0.5947266 q 0.225585,-0.3452149 0.529785,-0.5161133 0.307617,-0.1708985 0.707519,-0.1708985 0.659668,0 0.998047,0.4101563 0.338379,0.4067383 0.338379,1.199707 z"
       style="font-size:7px;font-family:Raleway-Medium;fill:#33ccff"
       id="path4242" /><path
       d="m 16.539551,-4.9150391 0,1.0869141 1.29541,0 0,0.4887695 -1.29541,0 0,2.078125 q 0,0.46826175 0.126465,0.60156253 0.129882,0.13330078 0.522949,0.13330078 l 0.645996,0 0,0.52636719 -0.645996,0 q -0.728028,0 -1.004883,-0.27001953 -0.276855,-0.2734375 -0.276855,-0.99121097 l 0,-2.078125 -0.461426,0 0,-0.4887695 0.461426,0 0,-1.0869141 0.632324,0 z"
       style="font-size:7px;font-family:Raleway-Medium;fill:#33ccff"
       id="path4244" /><path
       d="m 18.665527,-3.828125 0.628907,0 0,3.828125 -0.628907,0 0,-3.828125 z m 0,-1.4902344 0.628907,0 0,0.7963867 -0.628907,0 0,-0.7963867 z"
       style="font-size:7px;font-family:Raleway-Medium;fill:#33ccff"
       id="path4246" /><path
       d="m 23.700195,-3.828125 0,3.828125 -0.632324,0 0,-3.3393555 -1.726074,0 0,3.3393555 -0.632324,0 0,-3.3393555 -0.601563,0 0,-0.4887695 0.601563,0 0,-0.2666016 q 0,-0.6254882 0.293945,-0.9228515 0.297363,-0.3007813 0.90918,-0.3007813 l 0.632324,0 0,0.5229492 -0.601563,0 q -0.338379,0 -0.471679,0.1367188 -0.129883,0.1367187 -0.129883,0.4921875 l 0,0.3383789 2.358398,0 z m -0.632324,-1.4833984 0.632324,0 0,0.7963867 -0.632324,0 0,-0.7963867 z"
       style="font-size:7px;font-family:Raleway-Medium;fill:#33ccff"
       id="path4248" /><path
       d="m 28.297363,-2.0712891 0,0.3076172 -2.891601,0 q 0.04102,0.6494141 0.389648,0.99121096 0.352051,0.33837891 0.977539,0.33837891 0.362305,0 0.700684,-0.0888672 0.341797,-0.0888672 0.676758,-0.26660156 l 0,0.59472656 q -0.338379,0.14355469 -0.693848,0.21875 -0.355469,0.07519531 -0.721191,0.07519531 -0.916016,0 -1.452637,-0.53320312 -0.533203,-0.53320313 -0.533203,-1.44238277 0,-0.9399415 0.505859,-1.4902344 0.509277,-0.553711 1.370606,-0.553711 0.77246,0 1.220214,0.4990235 0.451172,0.4956054 0.451172,1.3500976 z m -0.628906,-0.1845703 q -0.0068,-0.5161133 -0.290527,-0.8237304 -0.280274,-0.3076172 -0.745118,-0.3076172 -0.526367,0 -0.844238,0.2973632 -0.314453,0.2973633 -0.362304,0.8374024 l 2.242187,-0.00342 z"
       style="font-size:7px;font-family:Raleway-Medium;fill:#33ccff"
       id="path4250" /><path
       d="m 31.547852,-3.2402344 q -0.105957,-0.061523 -0.232422,-0.088867 -0.123047,-0.030762 -0.273438,-0.030762 -0.533203,0 -0.820312,0.3486328 -0.283692,0.3452149 -0.283692,0.9946289 l 0,2.0166016 -0.632324,0 0,-3.828125 0.632324,0 0,0.5947266 q 0.198242,-0.3486329 0.516114,-0.5161133 0.317871,-0.1708985 0.77246,-0.1708985 0.06494,0 0.143555,0.010254 0.07861,0.00684 0.174317,0.023926 l 0.0034,0.6459961 z"
       style="font-size:7px;font-family:Raleway-Medium;fill:#33ccff"
       id="path4252" /><path
       d="m 32.251953,-0.86816406 0.721192,0 0,0.86816406 -0.721192,0 0,-0.86816406 z m 0,-2.75146484 0.721192,0 0,0.8681641 -0.721192,0 0,-0.8681641 z"
       style="font-size:7px;font-family:Raleway-Medium;fill:#33ccff"
       id="path4254" /><path
       d="m 6.6201639,6.4189453 1.1279297,0 0,-3.8930664 -1.2270508,0.2460938 0,-0.6289063 1.2202149,-0.2460937 0.6904297,0 0,4.5219726 1.1279296,0 0,0.5810547 -2.9394531,0 0,-0.5810547 z"
       style="font-size:7px;font-family:Raleway-Medium;fill:#33ccff"
       id="path4256" /><path
       d="m 11.552293,6.4189453 2.409668,0 0,0.5810547 -3.240235,0 0,-0.5810547 q 0.393067,-0.4067383 1.069825,-1.090332 0.680175,-0.6870117 0.854492,-0.8852539 0.331543,-0.3725586 0.461426,-0.6289063 0.1333,-0.2597656 0.1333,-0.5092773 0,-0.4067383 -0.287109,-0.663086 -0.283691,-0.2563476 -0.741699,-0.2563476 -0.324707,0 -0.687012,0.112793 -0.358887,0.1127929 -0.769043,0.3417968 l 0,-0.6972656 q 0.416992,-0.1674805 0.779297,-0.2529297 0.362305,-0.085449 0.663086,-0.085449 0.792969,0 1.264648,0.3964844 0.47168,0.3964844 0.47168,1.0595703 0,0.3144531 -0.119629,0.5981445 -0.116211,0.2802735 -0.427246,0.663086 -0.08545,0.099121 -0.543457,0.5742187 -0.458008,0.4716797 -1.291992,1.3227539 z"
       style="font-size:7px;font-family:Raleway-Medium;fill:#33ccff"
       id="path4258" /><path
       d="m 17.506394,4.2485352 q 0.495606,0.105957 0.772461,0.4409179 0.280274,0.334961 0.280274,0.8271485 0,0.7553711 -0.519531,1.1689453 -0.519532,0.4135742 -1.476563,0.4135742 -0.321289,0 -0.663086,-0.064941 -0.338379,-0.061523 -0.700684,-0.1879883 l 0,-0.6665039 q 0.28711,0.1674805 0.628907,0.2529297 0.341797,0.085449 0.714355,0.085449 0.649414,0 0.987793,-0.2563477 0.341797,-0.2563476 0.341797,-0.7451171 0,-0.4511719 -0.317871,-0.7041016 -0.314453,-0.2563477 -0.878418,-0.2563477 l -0.594727,0 0,-0.5673828 0.622071,0 q 0.509277,0 0.779297,-0.2016601 0.270019,-0.2050781 0.270019,-0.5878906 0,-0.3930665 -0.280273,-0.6015625 -0.276856,-0.2119141 -0.796387,-0.2119141 -0.283691,0 -0.608398,0.061523 -0.324707,0.061523 -0.714356,0.1914063 l 0,-0.6152344 q 0.393066,-0.109375 0.734863,-0.1640625 0.345215,-0.054687 0.649414,-0.054687 0.786133,0 1.244141,0.3588867 0.458008,0.3554688 0.458008,0.9638672 0,0.4238281 -0.242676,0.7177734 -0.242676,0.2905274 -0.69043,0.4033204 z"
       style="font-size:7px;font-family:Raleway-Medium;fill:#33ccff"
       id="path4260" /><path
       d="m 21.768601,2.4985352 -1.743164,2.724121 1.743164,0 0,-2.724121 z m -0.181152,-0.6015625 0.868164,0 0,3.3256835 0.728027,0 0,0.5742188 -0.728027,0 0,1.203125 -0.687012,0 0,-1.203125 -2.303711,0 0,-0.6665039 2.122559,-3.2333984 z"
       style="font-size:7px;font-family:Raleway-Medium;fill:#33ccff"
       id="path4262" /><path
       d="m 24.32866,6.1318359 0.721191,0 0,0.8681641 -0.721191,0 0,-0.8681641 z"
       style="font-size:7px;font-family:Raleway-Medium;fill:#33ccff"
       id="path4264" /><path
       d="m 26.557176,6.1318359 0.721191,0 0,0.8681641 -0.721191,0 0,-0.8681641 z"
       style="font-size:7px;font-family:Raleway-Medium;fill:#33ccff"
       id="path4266" /><path
       d="m 28.785691,6.1318359 0.721192,0 0,0.8681641 -0.721192,0 0,-0.8681641 z"
       style="font-size:7px;font-family:Raleway-Medium;fill:#33ccff"
       id="path4268" /></g><line
     fill="none"
     stroke="#33CCFF"
     stroke-width="2"
     stroke-linejoin="round"
     stroke-miterlimit="10"
     x1="380.705"
     y1="836.531"
     x2="380.683"
     y2="857.748"
     id="line59" /><line
     fill="none"
     stroke="#33CCFF"
     stroke-width="2"
     stroke-linejoin="round"
     stroke-miterlimit="10"
     x1="380.751"
     y1="793.355"
     x2="380.729"
     y2="814.697"
     id="line61" /><g
     id="g63"><path
       fill="#33CCFF"
       d="M398.039,818.113c-3.909,0-7.09,3.18-7.09,7.088c0,3.91,3.181,7.09,7.09,7.09s7.09-3.18,7.09-7.09   C405.129,821.293,401.948,818.113,398.039,818.113L398.039,818.113z M398.039,818.602c3.64,0,6.601,2.961,6.601,6.6   c0,3.641-2.961,6.602-6.601,6.602s-6.601-2.961-6.601-6.602C391.438,821.562,394.399,818.602,398.039,818.602L398.039,818.602z    M397.933,819.582c-1.442,0.027-2.835,0.611-3.869,1.643c-1.062,1.064-1.646,2.475-1.646,3.977c0,1.504,0.584,2.914,1.646,3.977   c0.048,0.047,0.109,0.072,0.172,0.072c0.063,0,0.127-0.025,0.175-0.072c0.094-0.096,0.094-0.25,0-0.346   c-0.113-0.113-0.217-0.229-0.317-0.35c0.003-0.004,0.009-0.008,0.011-0.014c0.549-1.127,1.518-1.904,2.632-2.158   c0.365,0.363,0.813,0.602,1.304,0.602s0.939-0.238,1.304-0.602c1.115,0.252,2.085,1.031,2.633,2.158   c0.002,0.006,0.006,0.01,0.01,0.016c-0.101,0.119-0.204,0.236-0.316,0.348c-0.094,0.096-0.094,0.25,0,0.346   c0.047,0.047,0.111,0.072,0.174,0.072s0.125-0.025,0.173-0.072c1.062-1.062,1.646-2.473,1.646-3.977   c0-1.502-0.584-2.912-1.646-3.977c-0.162-0.16-0.333-0.312-0.513-0.453c-0.106-0.082-0.26-0.062-0.343,0.043   s-0.064,0.26,0.042,0.342c0.162,0.129,0.321,0.268,0.467,0.416c0.971,0.969,1.504,2.26,1.504,3.629   c0,1.031-0.301,2.016-0.862,2.852c-0.589-1.078-1.53-1.844-2.621-2.158c0.342-0.5,0.55-1.111,0.55-1.67v-0.49   c0-1.213-0.987-2.199-2.2-2.199c-1.211,0-2.199,0.986-2.199,2.199v0.49c0,0.559,0.207,1.17,0.549,1.67   c-1.09,0.314-2.033,1.08-2.62,2.158c-0.562-0.836-0.862-1.82-0.862-2.852c0-1.369,0.533-2.66,1.504-3.629   c1.16-1.16,2.82-1.699,4.446-1.439c0.134,0.021,0.258-0.07,0.28-0.203c0.021-0.133-0.07-0.26-0.204-0.279   C398.599,819.596,398.264,819.572,397.933,819.582L397.933,819.582z M399.912,819.918c-0.095,0.004-0.185,0.064-0.219,0.158   c-0.048,0.127,0.017,0.268,0.144,0.316c0.174,0.064,0.346,0.139,0.513,0.223c0.035,0.018,0.073,0.027,0.11,0.027   c0.089,0,0.175-0.049,0.218-0.137c0.061-0.119,0.013-0.266-0.107-0.326c-0.183-0.092-0.371-0.174-0.562-0.246   C399.977,819.922,399.943,819.918,399.912,819.918L399.912,819.918z M398.039,822.025c0.942,0,1.711,0.768,1.711,1.709v0.49   c0,0.971-0.806,2.199-1.711,2.199c-0.904,0-1.71-1.229-1.71-2.199v-0.49C396.329,822.793,397.097,822.025,398.039,822.025   L398.039,822.025z M395.687,829.209c-0.096-0.01-0.192,0.033-0.241,0.121l-0.245,0.424c-0.067,0.117-0.027,0.266,0.089,0.334   c0.038,0.021,0.081,0.033,0.122,0.033c0.083,0,0.166-0.045,0.212-0.121l0.244-0.426c0.067-0.115,0.028-0.266-0.09-0.334   C395.748,829.225,395.718,829.213,395.687,829.209L395.687,829.209z M400.393,829.209c-0.032,0.004-0.062,0.016-0.092,0.031   c-0.118,0.068-0.155,0.219-0.089,0.336l0.244,0.424c0.045,0.076,0.128,0.121,0.212,0.121c0.041,0,0.084-0.01,0.122-0.033   c0.117-0.066,0.156-0.217,0.088-0.334l-0.244-0.424C400.584,829.244,400.486,829.199,400.393,829.209L400.393,829.209z    M396.771,829.688c-0.094,0.012-0.176,0.08-0.202,0.178l-0.125,0.473c-0.036,0.131,0.042,0.264,0.172,0.301   c0.022,0.004,0.044,0.008,0.063,0.008c0.107,0,0.208-0.072,0.236-0.182l0.126-0.473c0.036-0.131-0.043-0.266-0.172-0.299   C396.836,829.684,396.804,829.682,396.771,829.688L396.771,829.688z M399.308,829.688c-0.032-0.006-0.064-0.004-0.099,0.006   c-0.129,0.033-0.207,0.168-0.174,0.299l0.129,0.473c0.027,0.109,0.128,0.182,0.235,0.182c0.021,0,0.041-0.004,0.063-0.008   c0.13-0.037,0.207-0.17,0.174-0.301l-0.127-0.473C399.483,829.768,399.401,829.699,399.308,829.688L399.308,829.688z    M398.039,829.846c-0.135,0-0.244,0.111-0.244,0.246v0.488c0,0.135,0.109,0.244,0.244,0.244c0.136,0,0.246-0.109,0.246-0.244   v-0.488C398.285,829.957,398.175,829.846,398.039,829.846L398.039,829.846z"
       id="path65" /></g><path
     fill="none"
     stroke="#33CCFF"
     stroke-width="2"
     stroke-linejoin="round"
     stroke-miterlimit="10"
     d="M368.957,777.619  L368.957,777.619c-0.764,0-1.383-0.617-1.383-1.381v-5.529l0,0c0-0.365,0.146-0.717,0.405-0.977c0.259-0.26,0.61-0.404,0.978-0.404  h24.141c0.764,0,1.383,0.619,1.383,1.381v5.529c0,0.764-0.619,1.381-1.383,1.381H368.957z"
     id="path67" /><line
     fill="none"
     stroke="#33CCFF"
     stroke-width="2"
     stroke-linejoin="round"
     stroke-miterlimit="10"
     x1="381.188"
     y1="786.66"
     x2="381.197"
     y2="777.619"
     id="line69" /><g
     id="g71"><g
       id="g73"><path
         fill="#33CCFF"
         d="M281.868,820.039c-1.168,0-2.118,0.947-2.118,2.117v21.18c0,1.17,0.95,2.117,2.118,2.117h11.014    c1.169,0,2.118-0.947,2.118-2.117v-21.18c0-1.17-0.949-2.117-2.118-2.117H281.868z M281.868,820.885h11.014    c0.7,0,1.271,0.57,1.271,1.271v0.424h-4.66c-0.234,0-0.424,0.189-0.424,0.424c0,0.232,0.189,0.422,0.424,0.422h4.66v16.945    h-13.556v-16.945h4.659c0.235,0,0.424-0.189,0.424-0.422c0-0.234-0.188-0.424-0.424-0.424h-4.659v-0.424    C280.598,821.455,281.168,820.885,281.868,820.885L281.868,820.885z M286.951,822.58c-0.234,0-0.423,0.189-0.423,0.424    c0,0.232,0.188,0.422,0.423,0.422h0.848c0.235,0,0.424-0.189,0.424-0.422c0-0.234-0.188-0.424-0.424-0.424H286.951z     M281.868,836.982c-0.234,0-0.424,0.189-0.424,0.424v0.846c0,0.234,0.189,0.424,0.424,0.424c0.235,0,0.424-0.189,0.424-0.424    v-0.846C282.292,837.172,282.104,836.982,281.868,836.982L281.868,836.982z M283.986,836.982c-0.235,0-0.424,0.189-0.424,0.424    v0.846c0,0.234,0.188,0.424,0.424,0.424s0.424-0.189,0.424-0.424v-0.846C284.41,837.172,284.222,836.982,283.986,836.982    L283.986,836.982z M286.104,836.982c-0.235,0-0.424,0.189-0.424,0.424v0.846c0,0.234,0.188,0.424,0.424,0.424    s0.424-0.189,0.424-0.424v-0.846C286.528,837.172,286.34,836.982,286.104,836.982L286.104,836.982z M288.646,836.982    c-0.235,0-0.424,0.189-0.424,0.424v0.846c0,0.234,0.188,0.424,0.424,0.424c0.234,0,0.423-0.189,0.423-0.424v-0.846    C289.069,837.172,288.881,836.982,288.646,836.982L288.646,836.982z M290.765,836.982c-0.235,0-0.425,0.189-0.425,0.424v0.846    c0,0.234,0.189,0.424,0.425,0.424c0.234,0,0.423-0.189,0.423-0.424v-0.846C291.188,837.172,290.999,836.982,290.765,836.982    L290.765,836.982z M292.882,836.982c-0.234,0-0.424,0.189-0.424,0.424v0.846c0,0.234,0.189,0.424,0.424,0.424    c0.235,0,0.424-0.189,0.424-0.424v-0.846C293.306,837.172,293.117,836.982,292.882,836.982L292.882,836.982z M280.598,841.219    h13.556v2.117c0,0.701-0.571,1.271-1.271,1.271h-11.014c-0.7,0-1.271-0.57-1.271-1.271V841.219z M286.104,842.066    c-0.235,0-0.424,0.189-0.424,0.422c0,0.234,0.188,0.424,0.424,0.424h2.542c0.234,0,0.423-0.189,0.423-0.424    c0-0.232-0.188-0.422-0.423-0.422H286.104z"
         id="path75" /></g><g
       id="g77"><path
         fill="#33CCFF"
         d="M275.285,840.32v1.037c0,0.285,0.232,0.518,0.518,0.518s0.519-0.232,0.519-0.518v-1.037    c0-0.283-0.233-0.518-0.519-0.518S275.285,840.037,275.285,840.32z"
         id="path79" /><path
         fill="#33CCFF"
         d="M278.393,839.803c-0.285,0-0.518,0.234-0.518,0.518v1.037c0,0.285,0.232,0.518,0.518,0.518    s0.518-0.232,0.518-0.518v-1.037C278.91,840.037,278.678,839.803,278.393,839.803z"
         id="path81" /><path
         fill="#33CCFF"
         d="M279.75,843.336v-0.426h-17.931c-0.284,0-0.518-0.232-0.518-0.518v-3.986c0-1.785,1.04-3.436,2.65-4.205    l7.023-3.359c1.255,1.6,2.922,2.748,4.827,2.748c1.49,0,2.832-0.707,3.947-1.779v-1.518c-1.094,1.34-2.483,2.26-3.947,2.26    c-3.289,0-6.215-4.633-6.215-8.287v-1.035c0-3.426,2.788-6.215,6.215-6.215c2.309,0,4.323,1.268,5.395,3.143    c0.213-0.072,0.436-0.119,0.671-0.119h0.435c-1.184-2.4-3.648-4.059-6.5-4.059c-3.997,0-7.25,3.252-7.25,7.25v1.035    c0,1.76,0.67,3.922,1.814,5.721l-6.862,3.281c-1.969,0.939-3.239,2.957-3.239,5.139v3.986c0,0.855,0.698,1.555,1.554,1.555h18.031    C279.791,843.752,279.75,843.551,279.75,843.336z"
         id="path83" /><path
         fill="#33CCFF"
         d="M278.393,836.695h-5.18c-0.284,0-0.518,0.232-0.518,0.52c0,0.285,0.233,0.518,0.518,0.518h5.18    c0.285,0,0.518-0.232,0.518-0.518C278.91,836.928,278.678,836.695,278.393,836.695z"
         id="path85" /><path
         fill="#33CCFF"
         d="M270.106,840.32v1.037c0,0.285,0.232,0.518,0.518,0.518s0.518-0.232,0.518-0.518v-1.037    c0-0.283-0.232-0.518-0.518-0.518S270.106,840.037,270.106,840.32z"
         id="path87" /><path
         fill="#33CCFF"
         d="M262.338,840.32v1.037c0,0.285,0.232,0.518,0.518,0.518s0.518-0.232,0.518-0.518v-1.037    c0-0.283-0.232-0.518-0.518-0.518S262.338,840.037,262.338,840.32z"
         id="path89" /><path
         fill="#33CCFF"
         d="M264.927,840.32v1.037c0,0.285,0.233,0.518,0.519,0.518s0.518-0.232,0.518-0.518v-1.037    c0-0.283-0.232-0.518-0.518-0.518S264.927,840.037,264.927,840.32z"
         id="path91" /><path
         fill="#33CCFF"
         d="M272.695,840.32v1.037c0,0.285,0.233,0.518,0.518,0.518c0.285,0,0.519-0.232,0.519-0.518v-1.037    c0-0.283-0.233-0.518-0.519-0.518C272.929,839.803,272.695,840.037,272.695,840.32z"
         id="path93" /><path
         fill="#33CCFF"
         d="M267.517,840.32v1.037c0,0.285,0.232,0.518,0.519,0.518c0.284,0,0.518-0.232,0.518-0.518v-1.037    c0-0.283-0.233-0.518-0.518-0.518C267.749,839.803,267.517,840.037,267.517,840.32z"
         id="path95" /></g></g><path
     fill="#F12545"
     d="M264.205,764.363c-0.776,0-1.41,0.635-1.41,1.412v16.938c0,0.777,0.634,1.412,1.41,1.412h27.289  c0.777,0,1.411-0.635,1.411-1.412v-16.938c0-0.777-0.634-1.412-1.411-1.412H264.205z M264.205,765.305h27.289  c0.26,0,0.471,0.211,0.471,0.471v13.645c-0.26,0-0.471,0.211-0.471,0.471v0.939c0,0.26,0.211,0.471,0.471,0.471v1.412  c0,0.26-0.211,0.471-0.471,0.471h-27.289c-0.258,0-0.47-0.211-0.47-0.471v-1.412c0.259,0,0.47-0.211,0.47-0.471v-0.939  c0-0.26-0.211-0.471-0.47-0.471v-13.645C263.735,765.516,263.947,765.305,264.205,765.305L264.205,765.305z M283.51,768.127  c-1.549,0-2.808,1.191-2.808,2.66v0.621c0,0.484,0.136,0.996,0.384,1.461c-1.909,0.73-3.236,2.297-3.236,4.109  c0,0.297,0.241,0.539,0.543,0.539c0.295,0,0.534-0.242,0.534-0.539c0-1.445,1.167-2.684,2.829-3.205  c0.479,0.455,1.086,0.758,1.754,0.758s1.274-0.303,1.756-0.764c1.665,0.525,2.836,1.766,2.836,3.211c0,0.297,0.244,0.539,0.54,0.539  c0.298,0,0.536-0.242,0.536-0.539c0-1.818-1.33-3.383-3.245-4.113c0.25-0.465,0.386-0.973,0.386-1.457v-0.621  C286.318,769.318,285.058,768.127,283.51,768.127L283.51,768.127z M283.51,769.068c1.03,0,1.868,0.771,1.868,1.719v0.621  c0,0.389-0.136,0.818-0.362,1.184c-0.263,0.428-0.648,0.787-1.092,0.928c-0.132,0.049-0.273,0.07-0.414,0.07  s-0.277-0.021-0.409-0.066c-0.442-0.141-0.832-0.498-1.092-0.932c-0.229-0.365-0.365-0.795-0.365-1.184v-0.621  C281.644,769.84,282.479,769.068,283.51,769.068L283.51,769.068z M270.322,770.951c-0.519,0-0.94,0.422-0.94,0.941v2.822  c0,0.518,0.422,0.941,0.94,0.941h3.764c0.519,0,0.941-0.424,0.941-0.941v-2.822c0-0.52-0.423-0.941-0.941-0.941H270.322z   M267.97,771.422c-0.12,0-0.241,0.045-0.333,0.137l-1.411,1.412c-0.184,0.184-0.184,0.48,0,0.664l1.411,1.412  c0.092,0.092,0.212,0.139,0.333,0.139s0.241-0.047,0.333-0.139c0.184-0.184,0.184-0.482,0-0.666l-1.079-1.078l1.079-1.078  c0.184-0.184,0.184-0.482,0-0.666C268.211,771.467,268.089,771.422,267.97,771.422L267.97,771.422z M270.322,771.893h3.764v2.822  h-3.764V771.893z M266.088,779.42c-0.26,0-0.471,0.211-0.471,0.471v0.939c0,0.26,0.211,0.471,0.471,0.471  c0.259,0,0.47-0.211,0.47-0.471v-0.939C266.558,779.631,266.347,779.42,266.088,779.42L266.088,779.42z M268.44,779.42  c-0.26,0-0.471,0.211-0.471,0.471v0.939c0,0.26,0.211,0.471,0.471,0.471c0.259,0,0.47-0.211,0.47-0.471v-0.939  C268.91,779.631,268.699,779.42,268.44,779.42L268.44,779.42z M270.792,779.42c-0.258,0-0.47,0.211-0.47,0.471v0.939  c0,0.26,0.212,0.471,0.47,0.471c0.26,0,0.471-0.211,0.471-0.471v-0.939C271.263,779.631,271.052,779.42,270.792,779.42  L270.792,779.42z M273.145,779.42c-0.259,0-0.47,0.211-0.47,0.471v0.939c0,0.26,0.211,0.471,0.47,0.471  c0.26,0,0.471-0.211,0.471-0.471v-0.939C273.615,779.631,273.404,779.42,273.145,779.42L273.145,779.42z M275.497,779.42  c-0.259,0-0.47,0.211-0.47,0.471v0.939c0,0.26,0.211,0.471,0.47,0.471c0.26,0,0.471-0.211,0.471-0.471v-0.939  C275.968,779.631,275.757,779.42,275.497,779.42L275.497,779.42z M277.85,779.42c-0.259,0-0.471,0.211-0.471,0.471v0.939  c0,0.26,0.212,0.471,0.471,0.471c0.26,0,0.471-0.211,0.471-0.471v-0.939C278.32,779.631,278.109,779.42,277.85,779.42L277.85,779.42  z M280.202,779.42c-0.259,0-0.471,0.211-0.471,0.471v0.939c0,0.26,0.212,0.471,0.471,0.471c0.26,0,0.471-0.211,0.471-0.471v-0.939  C280.673,779.631,280.462,779.42,280.202,779.42L280.202,779.42z M282.555,779.42c-0.259,0-0.471,0.211-0.471,0.471v0.939  c0,0.26,0.212,0.471,0.471,0.471c0.26,0,0.471-0.211,0.471-0.471v-0.939C283.025,779.631,282.814,779.42,282.555,779.42  L282.555,779.42z M284.907,779.42c-0.259,0-0.471,0.211-0.471,0.471v0.939c0,0.26,0.212,0.471,0.471,0.471  c0.26,0,0.471-0.211,0.471-0.471v-0.939C285.378,779.631,285.167,779.42,284.907,779.42L284.907,779.42z M287.26,779.42  c-0.26,0-0.471,0.211-0.471,0.471v0.939c0,0.26,0.211,0.471,0.471,0.471c0.259,0,0.471-0.211,0.471-0.471v-0.939  C287.73,779.631,287.519,779.42,287.26,779.42L287.26,779.42z M289.612,779.42c-0.26,0-0.471,0.211-0.471,0.471v0.939  c0,0.26,0.211,0.471,0.471,0.471c0.259,0,0.471-0.211,0.471-0.471v-0.939C290.083,779.631,289.871,779.42,289.612,779.42  L289.612,779.42z"
     id="path97" /><path
     fill="#FFFFFF"
     d="M274.972,879.453c-5.356,0-9.714,4.357-9.714,9.713s4.357,9.715,9.714,9.715  c2.144,0,4.124-0.699,5.731-1.877c0,0,1.078,1.055,1.131,1.074c0,0.008-0.002,0.016-0.002,0.025c0,0.52,0.201,1.008,0.568,1.373  l4.02,4.02c0.379,0.379,0.876,0.568,1.373,0.568c0.498,0,0.996-0.189,1.375-0.568l0.133-0.135c0.367-0.365,0.569-0.854,0.569-1.373  s-0.202-1.008-0.569-1.373l-4.02-4.02c-0.385-0.385-0.893-0.572-1.397-0.564c-0.02-0.053-1.076-1.135-1.076-1.135  c1.18-1.607,1.878-3.586,1.878-5.73C284.686,883.811,280.328,879.453,274.972,879.453L274.972,879.453z M274.972,880.229  c4.929,0,8.937,4.01,8.937,8.938c0,4.93-4.008,8.938-8.937,8.938s-8.937-4.008-8.937-8.938  C266.035,884.238,270.043,880.229,274.972,880.229L274.972,880.229z M274.972,881.783c-1.972,0-3.826,0.768-5.222,2.162  c-2.877,2.879-2.877,7.562,0,10.441c1.396,1.395,3.25,2.162,5.222,2.162s3.826-0.768,5.221-2.162c2.878-2.879,2.878-7.562,0-10.441  C278.798,882.551,276.943,881.783,274.972,881.783L274.972,881.783z M274.972,882.561c1.764,0,3.423,0.688,4.67,1.936  c2.575,2.574,2.575,6.766,0,9.34c-1.247,1.248-2.906,1.936-4.67,1.936s-3.423-0.688-4.67-1.936c-2.576-2.574-2.576-6.764,0-9.34  C271.549,883.248,273.208,882.561,274.972,882.561L274.972,882.561z M274.897,883.727c-1.413,0.018-2.762,0.582-3.773,1.592  c-0.152,0.154-0.152,0.398,0,0.551c0.076,0.074,0.176,0.115,0.276,0.115c0.099,0,0.198-0.041,0.274-0.115  c0.99-0.99,2.357-1.48,3.755-1.344c0.214,0.02,0.404-0.135,0.425-0.348c0.021-0.215-0.135-0.404-0.349-0.426  C275.303,883.732,275.099,883.723,274.897,883.727L274.897,883.727z M277.637,884.455c-0.148-0.021-0.305,0.047-0.389,0.186  c-0.11,0.184-0.052,0.422,0.134,0.531c0.318,0.195,0.618,0.43,0.887,0.697c0.076,0.076,0.175,0.115,0.274,0.115  c0.101,0,0.199-0.039,0.276-0.115c0.149-0.15,0.149-0.396,0-0.549c-0.314-0.312-0.663-0.586-1.037-0.812  C277.737,884.48,277.687,884.463,277.637,884.455L277.637,884.455z M269.531,888.777c-0.214,0-0.388,0.174-0.388,0.389  c0,0.217,0.174,0.389,0.388,0.389h0.777c0.214,0,0.389-0.172,0.389-0.389c0-0.215-0.175-0.389-0.389-0.389H269.531z   M279.634,888.777c-0.214,0-0.389,0.174-0.389,0.389c0,0.217,0.175,0.389,0.389,0.389h0.777c0.214,0,0.389-0.172,0.389-0.389  c0-0.215-0.175-0.389-0.389-0.389H279.634z M270.655,890.525c-0.05-0.002-0.104,0.008-0.152,0.027l-0.721,0.291  c-0.199,0.08-0.294,0.307-0.214,0.506c0.061,0.15,0.206,0.244,0.359,0.244c0.049,0,0.099-0.01,0.146-0.029l0.722-0.291  c0.198-0.08,0.294-0.307,0.214-0.506C270.948,890.619,270.807,890.527,270.655,890.525L270.655,890.525z M279.264,890.6  c-0.152,0-0.296,0.09-0.358,0.236c-0.083,0.199,0.008,0.426,0.206,0.51l0.716,0.305c0.048,0.02,0.1,0.029,0.151,0.029  c0.152,0,0.295-0.088,0.358-0.236c0.083-0.197-0.009-0.426-0.206-0.508l-0.715-0.305C279.365,890.609,279.313,890.6,279.264,890.6  L279.264,890.6z M271.675,892.074c-0.101,0-0.199,0.039-0.274,0.113l-0.55,0.551c-0.151,0.15-0.151,0.396,0,0.549  c0.076,0.076,0.175,0.113,0.275,0.113c0.1,0,0.198-0.037,0.274-0.113l0.549-0.549c0.152-0.152,0.152-0.398,0-0.551  C271.874,892.113,271.773,892.074,271.675,892.074L271.675,892.074z M278.269,892.074c-0.099,0-0.199,0.039-0.274,0.113  c-0.152,0.152-0.152,0.398,0,0.551l0.549,0.549c0.076,0.076,0.175,0.113,0.274,0.113c0.101,0,0.198-0.037,0.274-0.113  c0.152-0.152,0.152-0.398,0-0.549l-0.549-0.551C278.467,892.113,278.367,892.074,278.269,892.074L278.269,892.074z M273.15,893.07  c-0.152,0-0.296,0.088-0.358,0.236l-0.304,0.715c-0.083,0.197,0.01,0.426,0.206,0.51c0.051,0.021,0.101,0.031,0.152,0.031  c0.15,0,0.294-0.09,0.358-0.236l0.304-0.715c0.083-0.197-0.01-0.428-0.207-0.51C273.252,893.08,273.2,893.07,273.15,893.07  L273.15,893.07z M276.725,893.102c-0.05,0-0.103,0.008-0.151,0.027c-0.2,0.082-0.296,0.307-0.216,0.506l0.291,0.721  c0.061,0.152,0.207,0.244,0.361,0.244c0.049,0,0.098-0.01,0.146-0.029c0.198-0.08,0.294-0.307,0.214-0.506l-0.292-0.721  C277.018,893.195,276.877,893.104,276.725,893.102L276.725,893.102z M274.972,893.441c-0.214,0-0.389,0.172-0.389,0.387v0.777  c0,0.217,0.175,0.389,0.389,0.389s0.389-0.172,0.389-0.389v-0.777C275.36,893.613,275.186,893.441,274.972,893.441L274.972,893.441z   M282.318,895.51l0.729,0.729c-0.184,0.092-0.36,0.207-0.513,0.359l-0.135,0.131c-0.151,0.152-0.266,0.328-0.357,0.512l-0.729-0.727  C281.674,896.205,282.01,895.869,282.318,895.51L282.318,895.51z M283.908,896.805c0.299,0,0.598,0.113,0.826,0.342l4.019,4.018  c0.22,0.221,0.341,0.514,0.341,0.824s-0.122,0.605-0.342,0.824l-0.135,0.135c-0.455,0.453-1.192,0.453-1.647,0l-4.019-4.02  c-0.221-0.221-0.342-0.514-0.342-0.824s0.121-0.604,0.342-0.824l0.133-0.133C283.312,896.918,283.611,896.805,283.908,896.805  L283.908,896.805z"
     id="path99" /><polygon
     fill="#FFFFFF"
     points="341.184,802.471 309,769.656 307.938,771.453 309,772.463 338.285,802.424 311.053,827.268   338.114,852.107 309,882.195 307.938,883.328 309,885.002 340.952,852.121 313.938,827.328 "
     id="polygon101" /></svg>