<?xml version="1.0" encoding="utf-8"?>
<!-- Generator: Adobe Illustrator 16.0.0, SVG Export Plug-In . SVG Version: 6.00 Build 0)  -->
<!DOCTYPE svg PUBLIC "-//W3C//DTD SVG 1.1//EN" "http://www.w3.org/Graphics/SVG/1.1/DTD/svg11.dtd">
<svg version="1.1" id="Layer_1" xmlns="http://www.w3.org/2000/svg" xmlns:xlink="http://www.w3.org/1999/xlink" x="0px" y="0px"
	 width="367.596px" height="671.302px" viewBox="0 0 367.596 671.302" enable-background="new 0 0 367.596 671.302"
	 xml:space="preserve">
<path fill="#47C8F5" d="M315.683,161.804c0,1.439-1.166,2.606-2.605,2.606H55.896c-1.439,0-2.606-1.167-2.606-2.606l0,0
	c0-1.44,1.167-2.607,2.606-2.607h257.181C314.517,159.197,315.683,160.364,315.683,161.804L315.683,161.804z"/>
<g>
	<path fill="#47C8F5" d="M318.605,46.152c0,14.136-21.196,14.136-21.196,0C297.409,32.023,318.605,32.023,318.605,46.152"/>
	<path fill="#47C8F5" d="M286.626,54.623c-3.556,0-7.154-2.456-7.154-7.154c0-4.688,3.599-7.147,7.154-7.147
		c3.552,0,7.147,2.459,7.147,7.147C293.773,52.167,290.178,54.623,286.626,54.623z M286.625,44.352
		c-1.554,0-3.123,0.963-3.123,3.119c0,2.159,1.569,3.122,3.123,3.122s3.12-0.963,3.12-3.122
		C289.745,45.315,288.179,44.352,286.625,44.352z"/>
	<path fill="#47C8F5" d="M262.975,46.154c0,2.505-2.029,4.534-4.533,4.534H56.676c-2.503,0-4.534-2.029-4.534-4.534l0,0
		c0-2.505,2.031-4.534,4.534-4.534h201.766C260.945,41.62,262.975,43.649,262.975,46.154L262.975,46.154z"/>
</g>
<path fill="#47C8F5" d="M219.603,631.967c0,2.504-2.029,4.533-4.533,4.533h-61.192c-2.503,0-4.534-2.029-4.534-4.533l0,0
	c0-2.506,2.031-4.535,4.534-4.535h61.192C217.573,627.432,219.603,629.461,219.603,631.967L219.603,631.967z"/>
<path fill="#47C8F5" d="M314.786,6.036H54.188C27.351,6.036,5.52,30.245,5.52,60.003v552.323c0,29.762,21.831,53.975,48.668,53.975
	h260.599c26.833,0,48.667-24.213,48.667-53.975V60.003C363.453,30.245,341.619,6.036,314.786,6.036z M353.4,612.326
	c0,24.219-17.324,43.918-38.614,43.918H54.188c-21.29,0-38.615-19.699-38.615-43.918v-8.627H353.4V612.326z M353.4,594.631H15.572
	V81.71H353.4V594.631z M353.4,72.642H15.572V60.003c0-24.215,17.325-43.914,38.615-43.914h260.599
	c21.29,0,38.614,19.699,38.614,43.914V72.642z"/>
<path fill="#47C8F5" d="M214.406,541.921h13.694c1.896,0,3.415-1.532,3.415-3.415c0-1.881-1.52-3.423-3.415-3.423h-13.694
	c-1.896,0-3.417,1.542-3.417,3.423C210.989,540.389,212.511,541.921,214.406,541.921z"/>
<path fill="#47C8F5" d="M50.247,551.711h5.527c1.514,0,2.764-1.232,2.764-2.764c0-1.529-1.25-2.764-2.764-2.764h-5.527
	c-1.525,0-2.762,1.234-2.762,2.764C47.485,550.479,48.722,551.711,50.247,551.711z"/>
<path fill="#47C8F5" d="M50.247,537.9h5.527c1.514,0,2.764-1.232,2.764-2.762c0-1.533-1.25-2.766-2.764-2.766h-5.527
	c-1.525,0-2.762,1.232-2.762,2.766C47.485,536.668,48.722,537.9,50.247,537.9z"/>
<path fill="#47C8F5" d="M50.247,496.471h5.527c1.514,0,2.764-1.232,2.764-2.764s-1.25-2.762-2.764-2.762h-5.527
	c-1.525,0-2.762,1.23-2.762,2.762S48.722,496.471,50.247,496.471z"/>
<path fill="#47C8F5" d="M50.247,524.09h5.527c1.514,0,2.764-1.23,2.764-2.764c0-1.535-1.25-2.762-2.764-2.762h-5.527
	c-1.525,0-2.762,1.227-2.762,2.762C47.485,522.859,48.722,524.09,50.247,524.09z"/>
<path fill="#47C8F5" d="M50.247,482.66h5.527c1.514,0,2.764-1.232,2.764-2.764c0-1.529-1.25-2.762-2.764-2.762h-5.527
	c-1.525,0-2.762,1.232-2.762,2.762C47.485,481.428,48.722,482.66,50.247,482.66z"/>
<path fill="#47C8F5" d="M50.247,468.85h5.527c1.514,0,2.764-1.232,2.764-2.762c0-1.531-1.25-2.758-2.764-2.758h-5.527
	c-1.525,0-2.762,1.227-2.762,2.758C47.485,467.617,48.722,468.85,50.247,468.85z"/>
<path fill="#47C8F5" d="M50.247,510.281h5.527c1.514,0,2.764-1.232,2.764-2.764c0-1.537-1.25-2.764-2.764-2.764h-5.527
	c-1.525,0-2.762,1.227-2.762,2.764C47.485,509.049,48.722,510.281,50.247,510.281z"/>
<path fill="#47C8F5" d="M67.892,460.323c-1.771,0-2.947,1.175-2.947,2.946V563.58c0,1.772,1.176,2.942,2.947,2.942
	c1.779,0,2.95-1.17,2.95-2.942V463.27C70.842,461.498,69.671,460.323,67.892,460.323L67.892,460.323z"/>
<g>
	<path fill="#47C8F5" d="M324.382,187.67H205.902c-5.755,0-10.416,4.66-10.416,10.416v75.689v9.1v7.232
		c0,5.754,4.664,10.416,10.414,10.416H324.38c5.755,0,10.415-4.662,10.415-10.416v-12.803v-1.553v-77.666
		C334.795,192.33,330.132,187.67,324.382,187.67z M324.38,293.578H205.9c-1.916,0-3.47-1.553-3.47-3.471v-15.148h-0.001v-76.873
		c0-1.92,1.554-3.473,3.473-3.473h118.479c1.915,0,3.47,1.553,3.47,3.473v79.305l0,0v12.717
		C327.852,292.025,326.298,293.578,324.38,293.578z"/>
	<path fill="#47C8F5" d="M163.736,187.67H45.257c-5.755,0-10.416,4.66-10.416,10.416v75.689v9.1v7.232
		c0,5.754,4.664,10.416,10.414,10.416h118.479c5.755,0,10.415-4.662,10.415-10.416v-12.803v-1.553v-77.666
		C174.149,192.33,169.486,187.67,163.736,187.67z M163.734,293.578H45.255c-1.916,0-3.47-1.553-3.47-3.471v-15.148h-0.001v-76.873
		c0-1.92,1.554-3.473,3.473-3.473h118.479c1.915,0,3.47,1.553,3.47,3.473v79.305l0,0v12.717
		C167.206,292.025,165.652,293.578,163.734,293.578z"/>
	<path fill="#47C8F5" d="M324.382,455.998H205.902c-5.755,0-10.416,4.66-10.416,10.416v75.689v9.1v7.232
		c0,5.754,4.664,10.416,10.414,10.416H324.38c5.755,0,10.415-4.662,10.415-10.416v-12.803v-1.553v-77.666
		C334.795,460.658,330.132,455.998,324.382,455.998z M324.38,561.906H205.9c-1.916,0-3.47-1.553-3.47-3.471v-15.148h-0.001v-76.873
		c0-1.92,1.554-3.473,3.473-3.473h118.479c1.915,0,3.47,1.553,3.47,3.473v79.305l0,0v12.717
		C327.852,560.354,326.298,561.906,324.38,561.906z"/>
	<path fill="#47C8F5" d="M163.736,455.998H45.257c-5.755,0-10.416,4.66-10.416,10.416v75.689v9.1v7.232
		c0,5.754,4.664,10.416,10.414,10.416h118.479c5.755,0,10.415-4.662,10.415-10.416v-12.803v-1.553v-77.666
		C174.149,460.658,169.486,455.998,163.736,455.998z M163.734,561.906H45.255c-1.916,0-3.47-1.553-3.47-3.471v-15.148h-0.001
		v-76.873c0-1.92,1.554-3.473,3.473-3.473h118.479c1.915,0,3.47,1.553,3.47,3.473v79.305l0,0v12.717
		C167.206,560.354,165.652,561.906,163.734,561.906z"/>
	<polygon fill="#47C8F5" points="331.585,492.141 198.585,492.141 198.585,497.781 331.084,497.781 	"/>
	<path fill="#47C8F5" d="M288.275,543.586c3.22,0,6.297-1.102,8.741-3.066c2.445,1.965,5.517,3.066,8.737,3.066
		c7.714,0,13.981-6.26,13.981-13.979c0-7.707-6.268-13.981-13.981-13.981c-3.221,0-6.292,1.111-8.737,3.076
		c-2.444-1.965-5.521-3.076-8.741-3.076c-7.714,0-13.983,6.274-13.983,13.981C274.292,537.326,280.562,543.586,288.275,543.586z
		 M288.275,522.618c2.343,0,4.534,1.176,5.832,3.137c1.285,1.96,4.536,1.96,5.813,0c1.299-1.961,3.482-3.137,5.833-3.137
		c3.854,0,6.995,3.137,6.995,6.988c0,3.853-3.142,6.996-6.995,6.996c-2.351,0-4.534-1.177-5.833-3.144
		c-0.646-0.966-1.736-1.561-2.904-1.561c-1.174,0-2.27,0.595-2.909,1.561c-1.298,1.967-3.489,3.144-5.832,3.144
		c-3.854,0-6.988-3.144-6.988-6.996C281.287,525.755,284.421,522.618,288.275,522.618z"/>
	<path fill="#47C8F5" d="M213.492,519.549h47.896c1.904,0,3.424-1.532,3.424-3.415c0-1.881-1.52-3.423-3.424-3.423h-47.896
		c-1.897,0-3.424,1.542-3.424,3.423C210.068,518.017,211.595,519.549,213.492,519.549z"/>
	<path fill="#47C8F5" d="M213.492,533.024h36.981c1.904,0,3.424-1.532,3.424-3.415c0-1.881-1.52-3.423-3.424-3.423h-36.981
		c-1.897,0-3.424,1.542-3.424,3.423C210.068,531.492,211.595,533.024,213.492,533.024z"/>
	<g>
		<path fill="#47C8F5" d="M325.635,482.381c1.53,0,2.756-1.249,2.756-2.763v-5.527c0-1.525-1.226-2.763-2.756-2.763
			c-1.536,0-2.765,1.237-2.765,2.763v5.527C322.87,481.132,324.099,482.381,325.635,482.381z"/>
		<path fill="#47C8F5" d="M226.2,474.091v5.527c0,1.514,1.232,2.763,2.764,2.763c1.529,0,2.763-1.249,2.763-2.763v-5.527
			c0-1.525-1.233-2.763-2.763-2.763C227.433,471.328,226.2,472.565,226.2,474.091z"/>
		<path fill="#47C8F5" d="M240.01,474.091v5.527c0,1.514,1.233,2.763,2.763,2.763c1.532,0,2.766-1.249,2.766-2.763v-5.527
			c0-1.525-1.233-2.763-2.766-2.763C241.243,471.328,240.01,472.565,240.01,474.091z"/>
		<path fill="#47C8F5" d="M212.396,474.091v5.527c0,1.514,1.226,2.763,2.763,2.763c1.531,0,2.758-1.249,2.758-2.763v-5.527
			c0-1.525-1.227-2.763-2.758-2.763C213.622,471.328,212.396,472.565,212.396,474.091z"/>
		<path fill="#47C8F5" d="M198.585,474.091v5.527c0,1.514,1.233,2.763,2.763,2.763c1.532,0,2.758-1.249,2.758-2.763v-5.527
			c0-1.525-1.226-2.763-2.758-2.763C199.818,471.328,198.585,472.565,198.585,474.091z"/>
		<path fill="#47C8F5" d="M281.44,474.091v5.527c0,1.514,1.232,2.763,2.763,2.763c1.531,0,2.763-1.249,2.763-2.763v-5.527
			c0-1.525-1.231-2.763-2.763-2.763C282.673,471.328,281.44,472.565,281.44,474.091z"/>
		<path fill="#47C8F5" d="M253.82,474.091v5.527c0,1.514,1.231,2.763,2.765,2.763c1.535,0,2.762-1.249,2.762-2.763v-5.527
			c0-1.525-1.227-2.763-2.762-2.763C255.052,471.328,253.82,472.565,253.82,474.091z"/>
		<path fill="#47C8F5" d="M295.25,474.091v5.527c0,1.514,1.233,2.763,2.765,2.763c1.529,0,2.762-1.249,2.762-2.763v-5.527
			c0-1.525-1.232-2.763-2.762-2.763C296.483,471.328,295.25,472.565,295.25,474.091z"/>
		<path fill="#47C8F5" d="M309.062,474.091v5.527c0,1.514,1.232,2.763,2.762,2.763c1.531,0,2.758-1.249,2.758-2.763v-5.527
			c0-1.525-1.227-2.763-2.758-2.763C310.294,471.328,309.062,472.565,309.062,474.091z"/>
		<path fill="#47C8F5" d="M267.63,474.091v5.527c0,1.514,1.232,2.763,2.764,2.763c1.537,0,2.763-1.249,2.763-2.763v-5.527
			c0-1.525-1.226-2.763-2.763-2.763C268.862,471.328,267.63,472.565,267.63,474.091z"/>
	</g>
	<g>
		<path fill="#47C8F5" d="M163.828,321.296H45.349c-5.755,0-10.416,4.661-10.416,10.417v75.689v9.1v7.232
			c0,5.754,4.664,10.416,10.414,10.416h118.479c5.755,0,10.415-4.662,10.415-10.416v-12.803v-1.553v-77.666
			C174.241,325.957,169.578,321.296,163.828,321.296z M167.298,411.018v12.717c0,1.918-1.554,3.471-3.472,3.471H45.347
			c-1.916,0-3.47-1.553-3.47-3.471v-15.148h-0.001v-76.873c0-1.92,1.554-3.473,3.473-3.473h118.479c1.915,0,3.47,1.553,3.47,3.473
			V411.018z"/>
		<path fill="#47C8F5" d="M53.335,339.06c-2.795,0-5.068,2.271-5.068,5.077c0,1.345,0.536,2.626,1.486,3.588
			c0.95,0.944,2.244,1.484,3.582,1.484c1.343,0,2.636-0.54,3.591-1.484c0.95-0.962,1.487-2.243,1.487-3.588
			c0-1.348-0.537-2.635-1.487-3.585C55.971,339.601,54.678,339.06,53.335,339.06L53.335,339.06z"/>
		<path fill="#47C8F5" d="M68.553,339.06c-2.804,0-5.074,2.271-5.074,5.077c0,1.345,0.536,2.626,1.492,3.588
			c0.944,0.944,2.236,1.484,3.582,1.484c1.337,0,2.629-0.54,3.58-1.484c0.955-0.962,1.492-2.243,1.492-3.588
			c0-1.348-0.537-2.635-1.492-3.585C71.182,339.601,69.89,339.06,68.553,339.06L68.553,339.06z"/>
		<path fill="#47C8F5" d="M83.758,339.06c-2.791,0-5.062,2.271-5.062,5.077c0,1.345,0.53,2.626,1.486,3.588
			c0.945,0.944,2.232,1.484,3.576,1.484c1.348,0,2.641-0.54,3.591-1.484c0.951-0.962,1.486-2.243,1.486-3.588
			c0-1.348-0.535-2.635-1.486-3.585C86.398,339.601,85.105,339.06,83.758,339.06L83.758,339.06z"/>
		<path fill="#47C8F5" d="M158.083,336.532h-55.358c-2.789,0-5.065,2.271-5.065,5.072v5.066c0,2.794,2.276,5.066,5.065,5.066h55.358
			c2.79,0,5.073-2.272,5.073-5.066v-5.066C163.156,338.803,160.873,336.532,158.083,336.532z M158.083,346.671h-55.358v-5.066
			h55.358V346.671z"/>
		<rect x="41.582" y="361.482" fill="#47C8F5" width="127.104" height="4.542"/>
		<path fill="#47C8F5" d="M57.469,381.582c-1.254,0-2.268,1.024-2.268,2.277c0,1.244,1.014,2.269,2.268,2.269h9.077
			c1.255,0,2.274-1.024,2.274-2.269c0-1.253-1.02-2.277-2.274-2.277H57.469z"/>
		<path fill="#47C8F5" d="M75.629,381.582c-1.259,0-2.269,1.024-2.269,2.277c0,1.244,1.01,2.269,2.269,2.269h31.773
			c1.254,0,2.273-1.024,2.273-2.269c0-1.253-1.02-2.277-2.273-2.277H75.629z"/>
		<path fill="#47C8F5" d="M121.021,381.582c-1.254,0-2.263,1.024-2.263,2.277c0,1.244,1.009,2.269,2.263,2.269h4.547
			c1.248,0,2.263-1.024,2.263-2.269c0-1.253-1.015-2.277-2.263-2.277H121.021z"/>
		<path fill="#47C8F5" d="M134.641,381.582c-1.255,0-2.263,1.024-2.263,2.277c0,1.244,1.008,2.269,2.263,2.269h4.546
			c1.248,0,2.262-1.024,2.262-2.269c0-1.253-1.014-2.277-2.262-2.277H134.641z"/>
		<path fill="#47C8F5" d="M148.264,381.582c-1.253,0-2.268,1.024-2.268,2.277c0,1.244,1.015,2.269,2.268,2.269h4.537
			c1.253,0,2.272-1.024,2.272-2.269c0-1.253-1.02-2.277-2.272-2.277H148.264z"/>
		<path fill="#47C8F5" d="M57.469,395.205c-1.254,0-2.268,1.02-2.268,2.269c0,1.254,1.014,2.273,2.268,2.273h9.077
			c1.255,0,2.274-1.02,2.274-2.273c0-1.249-1.02-2.269-2.274-2.269H57.469z"/>
		<path fill="#47C8F5" d="M75.629,395.205c-1.259,0-2.269,1.02-2.269,2.269c0,1.254,1.01,2.273,2.269,2.273h31.773
			c1.254,0,2.273-1.02,2.273-2.273c0-1.249-1.02-2.269-2.273-2.269H75.629z"/>
		<path fill="#47C8F5" d="M134.641,395.205c-1.255,0-2.263,1.02-2.263,2.269c0,1.254,1.008,2.273,2.263,2.273h4.546
			c1.248,0,2.262-1.02,2.262-2.273c0-1.249-1.014-2.269-2.262-2.269H134.641z"/>
		<path fill="#47C8F5" d="M148.264,395.205c-1.253,0-2.268,1.02-2.268,2.269c0,1.254,1.015,2.273,2.268,2.273h4.537
			c1.253,0,2.272-1.02,2.272-2.273c0-1.249-1.02-2.269-2.272-2.269H148.264z"/>
		<path fill="#47C8F5" d="M57.469,408.824c-1.254,0-2.268,1.014-2.268,2.268c0,1.255,1.014,2.269,2.268,2.269h9.077
			c1.255,0,2.274-1.014,2.274-2.269c0-1.254-1.02-2.268-2.274-2.268H57.469z"/>
		<path fill="#47C8F5" d="M75.629,408.824c-1.259,0-2.269,1.014-2.269,2.268c0,1.255,1.01,2.269,2.269,2.269h31.773
			c1.254,0,2.273-1.014,2.273-2.269c0-1.254-1.02-2.268-2.273-2.268H75.629z"/>
		<path fill="#47C8F5" d="M121.021,408.824c-1.254,0-2.263,1.014-2.263,2.268c0,1.255,1.009,2.269,2.263,2.269h4.547
			c1.248,0,2.263-1.014,2.263-2.269c0-1.254-1.015-2.268-2.263-2.268H121.021z"/>
		<path fill="#47C8F5" d="M134.641,408.824c-1.255,0-2.263,1.014-2.263,2.268c0,1.255,1.008,2.269,2.263,2.269h4.546
			c1.248,0,2.262-1.014,2.262-2.269c0-1.254-1.014-2.268-2.262-2.268H134.641z"/>
		<path fill="#47C8F5" d="M148.264,408.824c-1.253,0-2.268,1.014-2.268,2.268c0,1.255,1.015,2.269,2.268,2.269h4.537
			c1.253,0,2.272-1.014,2.272-2.269c0-1.254-1.02-2.268-2.272-2.268H148.264z"/>
	</g>
	<g>
		<path fill="#47C8F5" d="M135.287,476.846c-1.113-0.135-2.202,0.464-2.624,1.529l-34.336,65.808
			c-0.857,1.432-0.294,3.15,1.136,3.726c0.303,0.561,0.584,0.561,1.162,0.561c1.136,0,1.999-0.561,2.577-1.419l34.336-65.813
			c0.576-1.43,0.279-3.155-1.156-4.014C136.032,477.007,135.656,476.885,135.287,476.846L135.287,476.846z"/>
		<path fill="#47C8F5" d="M103.478,479.807h-2.853c-4.875,0-8.594,3.726-8.594,8.58v8.579c0,4.874,3.719,8.596,8.594,8.596h2.853
			c4.869,0,8.587-3.722,8.587-8.596v-8.579C112.064,483.532,108.347,479.807,103.478,479.807z M106.345,496.966
			c0,1.732-1.148,2.874-2.867,2.874h-2.853c-1.731,0-2.874-1.142-2.874-2.874v-8.579c0-1.719,1.143-2.86,2.874-2.86h2.853
			c1.719,0,2.867,1.142,2.867,2.86V496.966z"/>
		<path fill="#47C8F5" d="M134.958,516.999h-2.867c-4.859,0-8.585,3.729-8.585,8.602v8.573c0,4.858,3.726,8.573,8.585,8.573h2.867
			c4.861,0,8.582-3.715,8.582-8.573v-8.573C143.54,520.728,139.819,516.999,134.958,516.999z M137.817,534.174
			c0,1.726-1.134,2.865-2.859,2.865h-2.867c-1.717,0-2.853-1.14-2.853-2.865v-8.573c0-1.731,1.136-2.88,2.853-2.88h2.867
			c1.726,0,2.859,1.148,2.859,2.88V534.174z"/>
	</g>
	<g>
		<path fill="#47C8F5" d="M323.941,321.296H205.462c-5.755,0-10.416,4.661-10.416,10.417v75.689v9.1v7.232
			c0,5.754,4.664,10.416,10.414,10.416h118.479c5.755,0,10.415-4.662,10.415-10.416v-12.803v-1.553v-77.666
			C334.354,325.957,329.691,321.296,323.941,321.296z M323.939,427.205H205.46c-1.916,0-3.47-1.553-3.47-3.471v-15.148h-0.001
			v-76.873c0-1.92,1.554-3.473,3.473-3.473h118.479c1.915,0,3.47,1.553,3.47,3.473v79.305l0,0v12.717
			C327.411,425.652,325.857,427.205,323.939,427.205z"/>
		<path fill="#47C8F5" d="M273.439,367.288c4.066-2.75,6.762-7.415,6.762-12.68c0-8.436-6.88-15.311-15.315-15.311
			c-8.437,0-15.315,6.875-15.315,15.311c0,5.265,2.695,9.93,6.761,12.68c-7.815,3.341-13.326,11.11-13.326,20.141h4.383
			c0-9.695,7.81-17.505,17.498-17.505s17.498,7.81,17.498,17.505h4.376C286.76,378.398,281.256,370.629,273.439,367.288z
			 M264.886,365.547c-6.069,0-10.941-4.869-10.941-10.938c0-6.071,4.872-10.941,10.941-10.941c6.063,0,10.94,4.87,10.94,10.941
			C275.826,360.678,270.949,365.547,264.886,365.547z"/>
		<rect x="234.562" y="412.104" fill="#47C8F5" width="55.243" height="4.376"/>
		<rect x="234.562" y="401.169" fill="#47C8F5" width="61.382" height="4.37"/>
	</g>
	<g>
		<path fill="#47C8F5" d="M248.72,272.419c1.695,0,3.061-1.359,3.061-3.052v-9.162h4.838l12.213,12.213l-7,7.003
			c-1.192,1.197-1.192,3.128,0,4.318c0.598,0.599,1.373,0.888,2.167,0.888c0.782,0,1.552-0.289,2.157-0.888l7-7.001l6.996,7.001
			c0.606,0.599,1.376,0.888,2.166,0.888c0.787,0,1.553-0.289,2.16-0.888c1.19-1.19,1.19-3.121,0-4.318l-7.003-7.003l7.003-7.001
			c1.19-1.197,1.19-3.127,0-4.317c-1.191-1.19-3.127-1.19-4.326,0l-6.996,7.002l-8.635-8.636c3.278-1.398,5.582-4.644,5.582-8.422
			v-6.115c0-5.044-4.125-9.161-9.159-9.161H248.72c-1.685,0-3.053,1.368-3.053,3.053v30.546
			C245.667,271.045,247.035,272.419,248.72,272.419z M251.78,241.883h9.163c1.677,0,3.055,1.368,3.055,3.046v6.115
			c0,1.68-1.378,3.046-3.055,3.046h-9.163V241.883z"/>
	</g>
	<path fill="#47C8F5" d="M300.678,219.588h-99.271c0,0-0.379,5.307-0.379,5.206h99.649c1.444,0,2.608-1.167,2.608-2.608
		C303.286,220.749,302.122,219.588,300.678,219.588z"/>
	<path fill="#47C8F5" d="M311.093,224.794H321.5c1.443,0,2.602-1.167,2.602-2.608c0-1.437-1.158-2.598-2.602-2.598h-10.407
		c-1.443,0-2.609,1.161-2.609,2.598C308.483,223.626,309.649,224.794,311.093,224.794z"/>
	<g>
		<path fill="#47C8F5" d="M313.951,203.854v4.542c0,1.259,1.012,2.277,2.267,2.277c1.258,0,2.278-1.018,2.278-2.277v-4.542
			c0-1.254-1.021-2.272-2.278-2.272C314.963,201.582,313.951,202.6,313.951,203.854z"/>
		<path fill="#47C8F5" d="M268.515,203.854v4.542c0,1.259,1.018,2.277,2.277,2.277c1.254,0,2.266-1.018,2.266-2.277v-4.542
			c0-1.254-1.012-2.272-2.266-2.272C269.532,201.582,268.515,202.6,268.515,203.854z"/>
		<path fill="#47C8F5" d="M291.235,203.854v4.542c0,1.259,1.012,2.277,2.271,2.277c1.255,0,2.267-1.018,2.267-2.277v-4.542
			c0-1.254-1.012-2.272-2.267-2.272C292.247,201.582,291.235,202.6,291.235,203.854z"/>
		<path fill="#47C8F5" d="M329.852,208.396v-4.542c0-1.254-1.011-2.272-2.271-2.272c-1.262,0-2.272,1.018-2.272,2.272v4.542
			c0,1.259,1.011,2.277,2.272,2.277C328.841,210.673,329.852,209.655,329.852,208.396z"/>
		<path fill="#47C8F5" d="M245.8,203.854v4.542c0,1.259,1.011,2.277,2.271,2.277c1.261,0,2.266-1.018,2.266-2.277v-4.542
			c0-1.254-1.005-2.272-2.266-2.272C246.811,201.582,245.8,202.6,245.8,203.854z"/>
		<path fill="#47C8F5" d="M279.872,203.854v4.542c0,1.259,1.019,2.277,2.271,2.277c1.26,0,2.277-1.018,2.277-2.277v-4.542
			c0-1.254-1.018-2.272-2.277-2.272C280.891,201.582,279.872,202.6,279.872,203.854z"/>
		<path fill="#47C8F5" d="M257.152,203.854v4.542c0,1.259,1.017,2.277,2.276,2.277c1.255,0,2.271-1.018,2.271-2.277v-4.542
			c0-1.254-1.017-2.272-2.271-2.272C258.169,201.582,257.152,202.6,257.152,203.854z"/>
		<path fill="#47C8F5" d="M304.866,210.673c1.253,0,2.27-1.018,2.27-2.277v-4.542c0-1.254-1.017-2.272-2.27-2.272
			c-1.26,0-2.277,1.018-2.277,2.272v4.542C302.589,209.655,303.606,210.673,304.866,210.673z"/>
		<path fill="#47C8F5" d="M223.194,203.854v4.542c0,1.259,1.019,2.277,2.275,2.277c1.256,0,2.268-1.018,2.268-2.277v-4.542
			c0-1.254-1.012-2.272-2.268-2.272C224.213,201.582,223.194,202.6,223.194,203.854z"/>
		<path fill="#47C8F5" d="M200.479,203.854v4.542c0,1.259,1.011,2.277,2.272,2.277c1.26,0,2.264-1.018,2.264-2.277v-4.542
			c0-1.254-1.004-2.272-2.264-2.272C201.489,201.582,200.479,202.6,200.479,203.854z"/>
		<path fill="#47C8F5" d="M234.551,203.854v4.542c0,1.259,1.019,2.277,2.272,2.277c1.26,0,2.276-1.018,2.276-2.277v-4.542
			c0-1.254-1.017-2.272-2.276-2.272C235.569,201.582,234.551,202.6,234.551,203.854z"/>
		<path fill="#47C8F5" d="M211.831,203.854v4.542c0,1.259,1.018,2.277,2.276,2.277c1.255,0,2.272-1.018,2.272-2.277v-4.542
			c0-1.254-1.018-2.272-2.272-2.272C212.849,201.582,211.831,202.6,211.831,203.854z"/>
	</g>
	<g>
		<path fill="#47C8F5" d="M81.771,242.88c3.744-2.743,6.193-7.171,6.193-12.129c0-8.277-6.771-15.046-15.048-15.046
			c-8.278,0-15.048,6.769-15.048,15.046c0,4.958,2.454,9.387,6.193,12.129c-6.617,3.274-11.206,10.091-11.206,17.96h5.013
			c0-8.331,6.715-15.048,15.048-15.048c8.337,0,15.048,6.717,15.048,15.048h5.011C92.975,252.971,88.388,246.154,81.771,242.88z
			 M72.916,240.774c-5.573,0-10.021-4.458-10.021-10.023c0-5.58,4.448-10.036,10.021-10.036c5.571,0,10.035,4.457,10.035,10.036
			C82.951,236.315,78.487,240.774,72.916,240.774z"/>
		<rect x="102.755" y="223.713" fill="#47C8F5" width="54.062" height="4.162"/>
		<rect x="102.755" y="236.19" fill="#47C8F5" width="45.737" height="4.156"/>
		<rect x="102.755" y="248.67" fill="#47C8F5" width="54.062" height="4.161"/>
		<path fill="#47C8F5" d="M50.776,279.861c-1.145,0-2.076,0.93-2.076,2.074s0.932,2.082,2.076,2.082
			c1.142,0,2.079-0.937,2.079-2.082S51.918,279.861,50.776,279.861L50.776,279.861z"/>
		<path fill="#47C8F5" d="M59.092,279.861c-1.145,0-2.08,0.93-2.08,2.074s0.936,2.082,2.08,2.082s2.088-0.937,2.088-2.082
			S60.236,279.861,59.092,279.861L59.092,279.861z"/>
		<path fill="#47C8F5" d="M67.408,279.861c-1.144,0-2.074,0.93-2.074,2.074s0.931,2.082,2.074,2.082
			c1.145,0,2.082-0.937,2.082-2.082S68.553,279.861,67.408,279.861L67.408,279.861z"/>
		<path fill="#47C8F5" d="M75.726,279.861c-1.144,0-2.081,0.93-2.081,2.074s0.938,2.082,2.081,2.082c1.15,0,2.086-0.937,2.086-2.082
			S76.876,279.861,75.726,279.861L75.726,279.861z"/>
		<path fill="#47C8F5" d="M84.047,279.861c-1.143,0-2.079,0.93-2.079,2.074s0.937,2.082,2.079,2.082
			c1.146,0,2.076-0.937,2.076-2.082S85.192,279.861,84.047,279.861L84.047,279.861z"/>
		<path fill="#47C8F5" d="M92.358,279.861c-1.144,0-2.075,0.93-2.075,2.074s0.932,2.082,2.075,2.082c1.149,0,2.08-0.937,2.08-2.082
			S93.508,279.861,92.358,279.861L92.358,279.861z"/>
		<path fill="#47C8F5" d="M100.676,279.861c-1.14,0-2.075,0.93-2.075,2.074s0.936,2.082,2.075,2.082
			c1.149,0,2.079-0.937,2.079-2.082S101.825,279.861,100.676,279.861L100.676,279.861z"/>
		<path fill="#47C8F5" d="M108.99,279.861c-1.144,0-2.073,0.93-2.073,2.074s0.93,2.082,2.073,2.082c1.146,0,2.082-0.937,2.082-2.082
			S110.136,279.861,108.99,279.861L108.99,279.861z"/>
		<path fill="#47C8F5" d="M117.313,279.861c-1.149,0-2.08,0.93-2.08,2.074s0.931,2.082,2.08,2.082c1.144,0,2.075-0.937,2.075-2.082
			S118.457,279.861,117.313,279.861L117.313,279.861z"/>
		<path fill="#47C8F5" d="M125.625,279.861c-1.145,0-2.075,0.93-2.075,2.074s0.931,2.082,2.075,2.082s2.079-0.937,2.079-2.082
			S126.77,279.861,125.625,279.861L125.625,279.861z"/>
		<path fill="#47C8F5" d="M133.946,279.861c-1.149,0-2.087,0.93-2.087,2.074s0.938,2.082,2.087,2.082
			c1.146,0,2.082-0.937,2.082-2.082S135.092,279.861,133.946,279.861L133.946,279.861z"/>
		<path fill="#47C8F5" d="M142.264,279.861c-1.145,0-2.082,0.93-2.082,2.074s0.938,2.082,2.082,2.082
			c1.146,0,2.074-0.937,2.074-2.082S143.409,279.861,142.264,279.861L142.264,279.861z"/>
		<path fill="#47C8F5" d="M150.58,279.861c-1.145,0-2.088,0.93-2.088,2.074s0.943,2.082,2.088,2.082s2.081-0.937,2.081-2.082
			S151.725,279.861,150.58,279.861L150.58,279.861z"/>
		<path fill="#47C8F5" d="M158.897,279.861c-1.144,0-2.081,0.93-2.081,2.074s0.938,2.082,2.081,2.082s2.073-0.937,2.073-2.082
			S160.041,279.861,158.897,279.861L158.897,279.861z"/>
	</g>
</g>
<g>
	<path fill="#47C8F5" d="M44.25,132.18v-23.43h8.745c1.936,0,3.63,0.309,5.082,0.924c1.452,0.616,2.667,1.452,3.646,2.508
		c0.979,1.056,1.716,2.293,2.211,3.712s0.742,2.932,0.742,4.538c0,1.782-0.275,3.394-0.825,4.834
		c-0.55,1.441-1.336,2.673-2.359,3.696c-1.022,1.023-2.255,1.815-3.696,2.376c-1.44,0.561-3.041,0.841-4.801,0.841H44.25z
		 M59.166,120.432c0-1.034-0.138-1.974-0.413-2.821c-0.275-0.847-0.676-1.579-1.204-2.195c-0.528-0.616-1.177-1.089-1.947-1.419
		s-1.639-0.495-2.606-0.495h-3.333v13.926h3.333c0.989,0,1.869-0.176,2.64-0.528c0.77-0.352,1.413-0.842,1.931-1.469
		c0.517-0.627,0.912-1.364,1.188-2.211C59.028,122.374,59.166,121.444,59.166,120.432z"/>
	<path fill="#47C8F5" d="M69.528,132.18v-23.43h5.412v23.43H69.528z"/>
	<path fill="#47C8F5" d="M97.181,129.87c-1.781,1.65-3.839,2.475-6.171,2.475c-1.54,0-2.992-0.292-4.355-0.875
		c-1.364-0.583-2.558-1.402-3.581-2.458c-1.022-1.056-1.831-2.327-2.425-3.812c-0.595-1.485-0.892-3.119-0.892-4.9
		c0-1.606,0.297-3.124,0.892-4.554c0.594-1.43,1.413-2.673,2.458-3.729s2.282-1.892,3.713-2.508c1.43-0.616,2.97-0.924,4.62-0.924
		c2.178,0,4.08,0.457,5.709,1.37c1.627,0.913,2.849,2.162,3.662,3.746l-4.025,3.036c-0.528-1.056-1.293-1.875-2.294-2.458
		s-2.084-0.875-3.25-0.875c-0.902,0-1.722,0.181-2.459,0.544c-0.737,0.363-1.369,0.869-1.897,1.518
		c-0.527,0.649-0.936,1.402-1.221,2.26c-0.286,0.858-0.429,1.782-0.429,2.772c0,1.012,0.153,1.947,0.462,2.805
		c0.308,0.858,0.736,1.601,1.287,2.228c0.549,0.627,1.204,1.117,1.963,1.468c0.759,0.353,1.601,0.528,2.524,0.528
		c2.112,0,4.015-0.979,5.709-2.937v-0.726h-4.554v-3.927h9.042v12.243h-4.488V129.87z"/>
	<path fill="#47C8F5" d="M106.884,132.18v-23.43h5.412v23.43H106.884z"/>
	<path fill="#47C8F5" d="M136.285,113.501h-7.128v18.678h-5.412v-18.678h-7.16v-4.752h19.7V113.501z"/>
	<path fill="#47C8F5" d="M144.635,108.75h4.884l8.547,23.43h-5.544l-1.815-5.247h-7.293l-1.781,5.247h-5.544L144.635,108.75z
		 M149.815,123.204l-2.739-8.283l-2.805,8.283H149.815z"/>
	<path fill="#47C8F5" d="M162.026,132.18v-23.43h5.412v18.678h11.352v4.752H162.026z"/>
	<path fill="#47C8F5" d="M198.095,108.783h4.982l2.376,7.491l2.376-7.491h5.017l-3.927,10.89l2.376,6.303l5.874-17.226h5.906
		l-9.372,23.43h-4.521l-3.729-9.174l-3.695,9.174h-4.555l-9.339-23.43h5.874l5.907,17.226l2.31-6.303L198.095,108.783z"/>
	<path fill="#47C8F5" d="M231.127,108.75h4.884l8.547,23.43h-5.544l-1.815-5.247h-7.293l-1.781,5.247h-5.544L231.127,108.75z
		 M236.308,123.204l-2.739-8.283l-2.805,8.283H236.308z"/>
	<path fill="#47C8F5" d="M248.519,132.18v-23.43h5.412v18.678h11.352v4.752H248.519z"/>
	<path fill="#47C8F5" d="M269.474,132.18v-23.43h5.412v18.678h11.352v4.752H269.474z"/>
	<path fill="#47C8F5" d="M306.895,127.428v4.752h-16.467v-23.43h16.17v4.752H295.84v4.554h9.24v4.389h-9.24v4.983H306.895z"/>
	<path fill="#47C8F5" d="M329.697,113.501h-7.128v18.678h-5.412v-18.678h-7.16v-4.752h19.7V113.501z"/>
</g>
</svg>
